<?xml version="1.0" encoding="UTF-8"?>
<svg width="18px" height="18px" viewBox="0 0 18 18" version="1.1" xmlns="http://www.w3.org/2000/svg" xmlns:xlink="http://www.w3.org/1999/xlink">
    <!-- Generator: Sketch 49.2 (51160) - http://www.bohemiancoding.com/sketch -->
    <title>ic-volume-up-24px</title>
    <desc>Created with Sketch.</desc>
    <defs>
        <path d="M3,9 L3,15 L7,15 L12,20 L12,4 L7,9 L3,9 Z M16.5,12 C16.5,10.23 15.48,8.71 14,7.97 L14,16.02 C15.48,15.29 16.5,13.77 16.5,12 Z M14,3.23 L14,5.29 C16.89,6.15 19,8.83 19,12 C19,15.17 16.89,17.85 14,18.71 L14,20.77 C18.01,19.86 21,16.28 21,12 C21,7.72 18.01,4.14 14,3.23 Z" id="path-1"></path>
    </defs>
    <g id="Symbols" stroke="none" stroke-width="1" fill="none" fill-rule="evenodd">
        <g id="Icon/Podcast" transform="translate(-3.000000, -3.000000)">
            <g id="ic-volume-up-24px">
                <polygon id="Shape" points="0 0 24 0 24 24 0 24"></polygon>
                <mask id="mask-2" fill="white">
                    <use xlink:href="#path-1"></use>
                </mask>
                <use id="Shape" fill="#000000" fill-rule="nonzero" xlink:href="#path-1"></use>
                <g id="Color/Dark-grey-#323232" mask="url(#mask-2)" fill="#323232">
                    <rect id="Rectangle" x="0" y="0" width="24" height="24"></rect>
                </g>
            </g>
        </g>
    </g>
</svg>