<?xml version="1.0" encoding="UTF-8"?>
<svg width="24px" height="24px" viewBox="0 0 24 24" version="1.1" xmlns="http://www.w3.org/2000/svg" xmlns:xlink="http://www.w3.org/1999/xlink">
    <!-- Generator: Sketch 49.2 (51160) - http://www.bohemiancoding.com/sketch -->
    <title>Icon/Account circle</title>
    <desc>Created with Sketch.</desc>
    <defs>
        <path d="M12,20.3653846 C14.9206726,20.3653846 17.2283649,19.1213945 18.9230769,16.6334132 C18.8870197,15.6237978 18.0757209,14.7764418 16.4891825,14.0913462 C14.902644,13.4062505 13.4062505,13.0637022 12,13.0637022 C10.5937495,13.0637022 9.097356,13.3972357 7.51081754,14.0643028 C5.92427908,14.7313698 5.11298031,15.5877406 5.07692308,16.6334132 C6.77163508,19.1213945 9.07932738,20.3653846 12,20.3653846 Z M12,3.97716369 C11.0625,3.97716369 10.2512022,4.319712 9.56610554,5.00480769 C8.88100985,5.68990338 8.53846154,6.50120215 8.53846154,7.43870215 C8.53846154,8.37620215 8.88100985,9.1875 9.56610554,9.87259569 C10.2512022,10.5576923 11.0625,10.9002406 12,10.9002406 C12.9375,10.9002406 13.7487978,10.5576923 14.4338945,9.87259569 C15.1189902,9.1875 15.4615385,8.37620215 15.4615385,7.43870215 C15.4615385,6.50120215 15.1189902,5.68990338 14.4338945,5.00480769 C13.7487978,4.319712 12.9375,3.97716369 12,3.97716369 Z M12,0.515625231 C15.1730769,0.515625231 17.8864182,1.642428 20.1400237,3.89603354 C22.3936302,6.14963908 23.5204329,8.86298031 23.5204329,12.0360572 C23.5204329,15.2091342 22.3936302,17.9224763 20.1400237,20.1760818 C17.8864182,22.4296874 15.1730769,23.5564902 12,23.5564902 C8.82692308,23.5564902 6.11358185,22.4296874 3.85997631,20.1760818 C1.60636985,17.9224763 0.479567077,15.2091342 0.479567077,12.0360572 C0.479567077,8.86298031 1.60636985,6.14963908 3.85997631,3.89603354 C6.11358185,1.642428 8.82692308,0.515625231 12,0.515625231 Z" id="path-1"></path>
    </defs>
    <g id="Icon/Account-circle" stroke="none" stroke-width="1" fill="none" fill-rule="evenodd">
        <g id="account-circle">
            <mask id="mask-2" fill="white">
                <use xlink:href="#path-1"></use>
            </mask>
            <use id="Shape" fill="#000000" fill-rule="nonzero" xlink:href="#path-1"></use>
            <g id="Color/Dark-blue-#002E70" mask="url(#mask-2)" fill="#002E70">
                <rect id="Rectangle" x="0" y="0" width="24" height="24"></rect>
            </g>
        </g>
    </g>
</svg>