<?xml version="1.0" encoding="UTF-8"?>
<svg width="24px" height="24px" viewBox="0 0 24 24" version="1.1" xmlns="http://www.w3.org/2000/svg" xmlns:xlink="http://www.w3.org/1999/xlink">
    <!-- Generator: Sketch 49.2 (51160) - http://www.bohemiancoding.com/sketch -->
    <title>Icon/Search</title>
    <desc>Created with Sketch.</desc>
    <defs>
        <path d="M8.88494291,15.0213065 C10.5894884,15.0213065 12.038352,14.4247167 13.2315338,13.2315349 C14.4247156,12.0383531 15.0213065,10.5894884 15.0213065,8.88494291 C15.0213065,7.18039745 14.4247156,5.73153491 13.2315338,4.53835309 C12.038352,3.34517127 10.5894884,2.74857927 8.88494291,2.74857927 C7.18039745,2.74857927 5.73153382,3.34517127 4.538352,4.53835309 C3.34517018,5.73153491 2.74857927,7.18039745 2.74857927,8.88494291 C2.74857927,10.5894884 3.34517018,12.0383531 4.538352,13.2315349 C5.73153382,14.4247167 7.18039745,15.0213065 8.88494291,15.0213065 Z M17.0667611,15.0213065 L23.8423298,21.7968753 L21.7968753,23.8423298 L15.0213065,17.0667611 L15.0213065,15.9801142 L14.6377844,15.5965909 C13.0184662,17.0028415 11.100852,17.7059662 8.88494291,17.7059662 C6.413352,17.7059662 4.31463055,16.8536935 2.58877855,15.149148 C0.862926545,13.4446025 0,11.3565349 0,8.88494291 C0,6.41335309 0.862926545,4.31463055 2.58877855,2.58877855 C4.31463055,0.862926545 6.413352,0 8.88494291,0 C11.3565338,0 13.4446025,0.862926545 15.149148,2.58877855 C16.8536935,4.31463055 17.7059662,6.41335309 17.7059662,8.88494291 C17.7059662,11.100852 17.0028415,13.0184662 15.5965909,14.6377844 L15.9801142,15.0213065 L17.0667611,15.0213065 Z" id="path-1"></path>
    </defs>
    <g id="Symbols" stroke="none" stroke-width="1" fill="none" fill-rule="evenodd">
        <g id="Header/Desktop-New" transform="translate(-1256.000000, -72.000000)">
            <g id="Icon/Search" transform="translate(1256.000000, 72.000000)">
                <g id="search">
                    <mask id="mask-2" fill="white">
                        <use xlink:href="#path-1"></use>
                    </mask>
                    <use id="Shape" fill="#323232" fill-rule="nonzero" xlink:href="#path-1"></use>
                    <g id="Color/Dark-blue-#002E70" mask="url(#mask-2)" fill="#002E70">
                        <rect id="Rectangle" x="0" y="0" width="24" height="24"></rect>
                    </g>
                </g>
            </g>
        </g>
    </g>
</svg>