<?xml version="1.0" encoding="UTF-8"?>
<svg width="24px" height="24px" viewBox="0 0 24 24" version="1.1" xmlns="http://www.w3.org/2000/svg" xmlns:xlink="http://www.w3.org/1999/xlink">
    <!-- Generator: Sketch 49.2 (51160) - http://www.bohemiancoding.com/sketch -->
    <title>logo circle facebook</title>
    <desc>Created with Sketch.</desc>
    <defs></defs>
    <g id="Symbols" stroke="none" stroke-width="1" fill="none" fill-rule="evenodd">
        <g id="Footer/Desktop" transform="translate(-1046.000000, -288.000000)">
            <g id="Address" transform="translate(1044.000000, 108.000000)">
                <g id="logo-circle-facebook" transform="translate(2.000000, 180.000000)">
                    <g id="Filled_Icons" fill="#FFFFFF" fill-rule="nonzero">
                        <path d="M12,0 C5.383,0 0,5.383 0,12 C0,18.617 5.383,24 12,24 C18.617,24 24,18.617 24,12 C24,5.383 18.617,0 12,0 Z M15.595,11.5 L13.5,11.5 C13.5,14.513 13.5,18.5 13.5,18.5 L10.5,18.5 C10.5,18.5 10.5,14.549 10.5,11.5 L8.5,11.5 L8.5,9.5 L10.5,9.5 L10.5,8.336 C10.5,7.236 10.852,5.517 13.149,5.517 L15.5,5.524 L15.5,7.83 C15.5,7.83 14.337,7.83 14.092,7.83 C13.848,7.83 13.5,7.953 13.5,8.477 L13.5,9.5 L15.839,9.5 L15.595,11.5 Z" id="Shape"></path>
                    </g>
                    <g id="Frames-24px">
                        <rect id="Rectangle-path" x="0" y="0" width="24" height="24"></rect>
                    </g>
                </g>
            </g>
        </g>
    </g>
</svg>