<svg id="Layer_1" data-name="Layer 1" xmlns="http://www.w3.org/2000/svg" viewBox="0 0 1230.40245 283.46457"><defs><style>.cls-1{fill:#fff;}</style></defs><title>DKB_Negativ_RGB</title><rect class="cls-1" x="345.48302" y="3.40294" width="20.87549" height="276.65869"/><path class="cls-1" d="M434.63975,132.58165V3.40294h43.8169c40.24658,0,60.65723,20.97217,60.65723,63.46582,0,43.81689-20.78516,65.71289-63.65332,65.71289Zm41.19483-26.21582c20.41113,0,28.26367-13.83106,28.26367-40.7959,0-24.71777-11.23633-35.95264-26.39062-35.95264h-8.42676v76.74854Z"/><polygon class="cls-1" points="548.277 132.582 548.277 3.403 621.668 3.403 620.17 29.617 582.894 29.617 582.894 53.96 617.174 53.96 617.174 79.052 582.894 79.052 582.894 106.366 625.788 106.366 625.788 132.582 548.277 132.582"/><polygon class="cls-1" points="657.596 132.582 657.596 29.617 630.443 29.617 630.443 3.403 719.377 3.403 719.377 29.617 692.224 29.617 692.224 132.582 657.596 132.582"/><path class="cls-1" d="M769.72179,132.58165V3.40294h34.62988V132.58165Zm66.45117,0L806.22472,66.319l31.084-62.916h33.31836L841.60265,63.87218l34.26757,68.70947Z"/><path class="cls-1" d="M937.27745,69.69005l31.44434-7.69043V127.714c-12.54493,5.24219-24.51661,7.11475-37.4375,7.11475-34.82911,0-60.66993-23.19336-60.66993-66.63721,0-45.31494,29.96094-67.03613,63.10352-67.03613,15.53027,0,28.63867,4.66846,36.12793,9.91211L960.1085,33.3629c-6.36523-3.1958-17.02636-6.36621-25.2666-6.36621-17.60156,0-29.21093,15.72851-29.21093,41.56933,0,20.59766,8.98826,37.79981,31.64648,39.84766Z"/><polygon class="cls-1" points="986.112 132.582 986.112 3.403 1020.742 3.403 1020.742 106.366 1058.929 106.366 1058.929 132.582 986.112 132.582"/><path class="cls-1" d="M434.63975,280.06163V150.88292H472.464c29.0127,0,47.3628,6.56543,47.3628,33.331,0,14.40528-11.23536,23.76953-21.16016,26.79v.72363c14.23145,2.64747,23.78174,12.73243,23.78174,28.4629,0,28.08789-20.22266,39.87109-49.98438,39.87109ZM474.15,201.44054c7.86426,0,11.60986-4.11817,11.60986-12.73145,0-8.78906-4.30664-11.61035-11.60986-11.61035h-4.86914v24.3418Zm0,52.40722c8.80127,0,13.66894-4.29492,13.66894-15.12988,0-10.51172-4.49316-14.25781-12.73339-14.25781h-5.80469v29.38769Z"/><rect class="cls-1" x="534.04552" y="150.88292" width="34.64258" height="129.17871"/><path class="cls-1" d="M584.0172,280.06163V150.88292h37.82519c29.01123,0,47.36279,6.56543,47.36279,33.331,0,14.40528-11.23437,23.76953-21.14648,26.79v.72363c14.21875,2.64747,23.76758,12.73243,23.76758,28.4629,0,28.08789-20.19727,39.87109-49.98389,39.87109Zm39.523-78.62109c7.86425,0,11.60937-4.11817,11.60937-12.73145,0-8.78906-4.31934-11.61035-11.60937-11.61035H618.671v24.3418Zm0,52.40722c8.78808,0,13.65722-4.29492,13.65722-15.12988,0-10.51172-4.49414-14.25781-12.73291-14.25781H618.671v29.38769Z"/><polygon class="cls-1" points="684.922 280.062 684.922 150.883 719.564 150.883 719.564 253.848 757.751 253.848 757.751 280.062 684.922 280.062"/><rect class="cls-1" x="769.72179" y="150.88292" width="34.62988" height="129.17871"/><path class="cls-1" d="M816.51085,215.47276c0-45.291,26.20312-66.83691,58.41015-66.83691,32.208,0,58.42383,21.5459,58.42383,66.83691,0,45.31446-26.21582,66.83692-58.42383,66.83692C842.714,282.30968,816.51085,260.78722,816.51085,215.47276Zm81.6289,0c0-26.76367-8.9873-40.62109-23.21875-40.62109-14.23046,0-23.39355,13.85742-23.39355,40.62109,0,26.76563,9.16309,40.6211,23.39355,40.6211C889.15245,256.09386,898.13975,242.23839,898.13975,215.47276Z"/><polygon class="cls-1" points="963.467 280.062 963.467 177.099 936.303 177.099 936.303 150.883 1025.261 150.883 1025.261 177.099 998.097 177.099 998.097 280.062 963.467 280.062"/><polygon class="cls-1" points="1036.084 280.062 1036.084 150.883 1109.486 150.883 1107.989 177.099 1070.726 177.099 1070.726 201.441 1104.993 201.441 1104.993 226.508 1070.726 226.508 1070.726 253.848 1113.607 253.848 1113.607 280.062 1036.084 280.062"/><path class="cls-1" d="M1124.26768,280.06163V150.88292h34.61622V280.06163Zm66.44922,0-29.96-66.28613,31.084-62.89258h33.332l-29.0127,60.49512,34.24219,68.68359Z"/><rect class="cls-1" x="1069.78917" y="106.36583" width="26.21582" height="26.24121"/><path class="cls-1" d="M141.73253,0c77.3888,0,141.7221,64.33329,141.7221,141.73253,0,77.39874-64.3333,141.732-141.7221,141.732C64.29354,283.46457,0,219.13127,0,141.73253,0,64.33329,64.29354,0,141.73253,0m-6.894,91.5963v67.77086h13.7299V91.5963a6.56565,6.56565,0,0,0-6.66-6.63958A6.95611,6.95611,0,0,0,134.83851,91.5963Zm-29.79459,67.77086h14.121l-.166-.31111c-5.6834-12.06951-17.4413-40.565-17.4413-51.05464,0-5.33154,3.14385-8.27959,8.67219-8.27959a21.76188,21.76188,0,0,1,7.14748,1.44421l.22414.03976,3.36948-11.09346-.11778-.078c-4.11991-1.52373-8.39787-2.98781-13.1713-2.98781A20.88878,20.88878,0,0,0,92.964,92.76816a20.09241,20.09241,0,0,0-5.87771,14.53152c0,8.82775,5.19387,23.8652,17.87963,51.95019ZM75.51471,148.23593c-10.24561-18.9854-14.22936-29.10081-14.22936-36.21052,0-4.41363,1.66983-9.74566,9.77548-9.74566a30.858,30.858,0,0,1,5.77186.7221l.19432.06014,3.28151-10.87976-.1958-.03827a41.21014,41.21014,0,0,0-12.36124-2.06989,21.62729,21.62729,0,0,0-15.528,5.93585,21.58216,21.58216,0,0,0-5.79969,14.99967c0,9.10159,4.676,21.40518,14.29546,37.69449l6.24994,10.66308H81.46051Zm90.48457-47.0699a22.18874,22.18874,0,0,1,7.20563-1.44421c5.498,0,8.69158,2.94805,8.69158,8.27959,0,10.48963-11.80513,38.98513-17.5089,51.05464l-.11828.31111h14.07331l.09642-.11729c12.70514-28.085,17.901-43.12244,17.901-51.95019a19.89465,19.89465,0,0,0-5.92741-14.53152,20.73993,20.73993,0,0,0-14.69751-5.72166c-4.72572,0-9.034,1.46408-13.12359,2.98781l-.19581.078,3.35954,11.09346ZM231.173,96.00992c-3.946-3.90572-9.3456-5.93585-15.5374-5.93585A41.68278,41.68278,0,0,0,203.27184,92.144l-.156.03827,3.282,10.87976.19581-.06014a30.83875,30.83875,0,0,1,5.75993-.7221c8.07583,0,9.78542,5.332,9.78542,9.74566,0,7.10971-4.01356,17.22512-14.24725,36.21052L201.934,159.36716H216.4655l6.24-10.66308c9.59955-16.28931,14.27707-28.5929,14.27707-37.69449A21.376,21.376,0,0,0,231.173,96.00992ZM75.64094,210.77118H154.71l-79.06908,14.942v11.22962h132.133V226.04518h-75.1733l75.1733-14.88338V199.87452H75.64094Zm0-23.47507h132.133v-11.8747H75.64094ZM147.494,60.42559V50.13375h9.13985V40.85624H147.494V24.02074H135.95074v16.8355h-9.13985v9.27751h9.13985V60.42559A18.37536,18.37536,0,0,0,123.511,75.66082a69.68487,69.68487,0,0,1,36.42273,0A18.37615,18.37615,0,0,0,147.494,60.42559Z"/></svg>