<?xml version="1.0" encoding="UTF-8"?>
<svg width="20px" height="20px" viewBox="0 0 20 20" version="1.1" xmlns="http://www.w3.org/2000/svg" xmlns:xlink="http://www.w3.org/1999/xlink">
    <!-- Generator: Sketch 49.3 (51167) - http://www.bohemiancoding.com/sketch -->
    <title>Icon/Share</title>
    <desc>Created with Sketch.</desc>
    <defs>
        <path d="M18.75,16.08 C17.9583333,16.08 17.25,16.38 16.7083333,16.85 L9.28125,12.7 C9.33333333,12.47 9.375,12.24 9.375,12 C9.375,11.76 9.33333333,11.53 9.28125,11.3 L16.625,7.19 C17.1875,7.69 17.9270833,8 18.75,8 C20.4791667,8 21.875,6.66 21.875,5 C21.875,3.34 20.4791667,2 18.75,2 C17.0208333,2 15.625,3.34 15.625,5 C15.625,5.24 15.6666667,5.47 15.71875,5.7 L8.375,9.81 C7.8125,9.31 7.07291667,9 6.25,9 C4.52083333,9 3.125,10.34 3.125,12 C3.125,13.66 4.52083333,15 6.25,15 C7.07291667,15 7.8125,14.69 8.375,14.19 L15.7916667,18.35 C15.7395833,18.56 15.7083333,18.78 15.7083333,19 C15.7083333,20.61 17.0729167,21.92 18.75,21.92 C20.4270833,21.92 21.7916667,20.61 21.7916667,19 C21.7916667,17.39 20.4270833,16.08 18.75,16.08 Z" id="path-1"></path>
    </defs>
    <g id="Services" stroke="none" stroke-width="1" fill="none" fill-rule="evenodd">
        <g id="Service---Desktop" transform="translate(-1313.000000, -230.000000)">
            <g id="Content" transform="translate(393.000000, 192.000000)">
                <g id="Page-header">
                    <g id="Icon/Share" transform="translate(917.210526, 36.000000)">
                        <g id="ic-share-24px">
                            <polygon id="Shape" points="0 0 25 0 25 24 0 24"></polygon>
                            <mask id="mask-2" fill="white">
                                <use xlink:href="#path-1"></use>
                            </mask>
                            <use id="Shape" fill="#000000" fill-rule="nonzero" xlink:href="#path-1"></use>
                            <g id="Color/Dark-grey-50-#989898" mask="url(#mask-2)" fill="#989898">
                                <rect id="Rectangle" x="0" y="0" width="25" height="24"></rect>
                            </g>
                        </g>
                    </g>
                </g>
            </g>
        </g>
    </g>
</svg>