<?xml version="1.0" encoding="UTF-8"?>
<svg width="110px" height="48px" viewBox="0 0 110 48" version="1.1" xmlns="http://www.w3.org/2000/svg" xmlns:xlink="http://www.w3.org/1999/xlink">
    <!-- Generator: Sketch 49.2 (51160) - http://www.bohemiancoding.com/sketch -->
    <title>Logo</title>
    <desc>Created with Sketch.</desc>
    <defs>
        <path d="M-8.13151629e-20,25.8207573 L24.2931699,20.7333333 L24.3317972,22.2389996 L0.0386273504,27.3264235 L-8.13151629e-20,25.8207573 Z M0.0108156581,31.2552585 L0.0279833694,29.745592 L24.3202949,31.8840862 L24.3039855,33.3929526 L0.0108156581,31.2552585 Z M0.0100431111,36.2495224 L0.028069208,34.7406559 L24.3212391,37.014356 L24.303213,38.5232224 L0.0100431111,36.2495224 Z M0.0084980171,43.2257854 L24.3008095,40.3824603 L24.3239859,41.8913267 L0.0299576562,44.7338518 L0.0084980171,43.2257854 Z M0.0195711909,47.5133341 L0.0195711909,46.0028677 L24.3127411,46.0028677 L24.3127411,47.5133341 L0.0195711909,47.5133341 Z M28.3874319,32.7655508 L28.3874319,19.7300669 L32.8674999,19.7300669 C36.9865152,19.7300669 39.0732485,21.847011 39.0732485,26.1346077 C39.0732485,30.5544102 36.9471429,32.7655508 32.5625738,32.7655508 L28.3874319,32.7655508 Z M32.6002707,30.1197838 C34.6870039,30.1197838 35.4920423,28.7225347 35.4920423,26.0032283 C35.4920423,23.5086716 34.3427055,22.3766601 32.792106,22.3766601 L31.9301034,22.3766601 L31.9301034,30.1197838 L32.6002707,30.1197838 Z M40.0105611,32.7657161 L40.0105611,19.7302322 L47.5181096,19.7302322 L47.3639712,22.3759991 L43.5532327,22.3759991 L43.5532327,24.8317203 L47.0590451,24.8317203 L47.0590451,27.3634599 L43.5532327,27.3634599 L43.5532327,30.1199491 L47.9394773,30.1199491 L47.9394773,32.7657161 L40.0105611,32.7657161 Z M51.1946471,32.7657161 L51.1946471,22.3759991 L48.4176416,22.3759991 L48.4176416,19.7302322 L57.5134865,19.7302322 L57.5134865,22.3759991 L54.736481,22.3759991 L54.736481,32.7657161 L51.1946471,32.7657161 Z M69.4620657,32.7657161 L66.3985637,26.0777592 L69.5785073,19.7302322 L72.9863077,19.7302322 L70.0183045,25.8323524 L73.5224415,32.7657161 L69.4620657,32.7657161 Z M62.6648945,32.7657161 L62.6648945,19.7302322 L66.2067284,19.7302322 L66.2067284,32.7657161 L62.6648945,32.7657161 Z M79.8033326,26.4185195 L83.0209731,25.6434635 L83.0209731,32.2744066 C81.7376028,32.8032294 80.5128722,32.9907963 79.191805,32.9907963 C75.6298662,32.9907963 72.9860564,30.6482762 72.9860564,26.2664829 C72.9860564,21.6954702 76.0512338,19.5049867 79.4397669,19.5049867 C81.0297387,19.5049867 82.3700732,19.9767958 83.1357392,20.5056187 L82.1397032,22.7531159 C81.4888032,22.4325171 80.3972684,22.1110919 79.554533,22.1110919 C77.7542963,22.1110919 76.5672626,23.6975605 76.5672626,26.3036658 C76.5672626,28.3826007 77.4870671,30.1194533 79.8033326,30.3276773 L79.8033326,26.4185195 Z M84.8011048,32.7657161 L84.8011048,19.7302322 L88.3437764,19.7302322 L88.3437764,30.1199491 L92.2516891,30.1199491 L92.2516891,32.7657161 L84.8011048,32.7657161 Z M28.3870968,47.7782539 L28.3870968,34.7452488 L32.2556372,34.7452488 C35.2236403,34.7452488 37.1009463,35.4062774 37.1009463,38.1082318 C37.1009463,39.5616684 35.9516095,40.5069393 34.9371438,40.8085336 L34.9371438,40.8845519 C36.3914067,41.1489633 37.3681755,42.1694262 37.3681755,43.7550686 C37.3681755,46.590055 35.3007096,47.7782539 32.2556372,47.7782539 L28.3870968,47.7782539 Z M38.5554605,47.7785017 L38.5554605,34.7454967 L42.0981321,34.7454967 L42.0981321,47.7785017 L38.5554605,47.7785017 Z M43.668669,47.7782539 L43.668669,34.7452488 L47.5372094,34.7452488 C50.5043749,34.7452488 52.3816808,35.4062774 52.3816808,38.1082318 C52.3816808,39.5616684 51.232344,40.5069393 50.2178784,40.8085336 L50.2178784,40.8845519 C51.672979,41.1489633 52.6497477,42.1694262 52.6497477,43.7550686 C52.6497477,46.590055 50.5814441,47.7782539 47.5372094,47.7782539 L43.668669,47.7782539 Z M53.9893283,47.7783365 L53.9893283,34.7453314 L57.5319999,34.7453314 L57.5319999,45.1350484 L61.4382371,45.1350484 L61.4382371,47.7783365 L53.9893283,47.7783365 Z M62.664727,47.7785017 L62.664727,34.7454967 L66.2073985,34.7454967 L66.2073985,47.7785017 L62.664727,47.7785017 Z M67.4524017,41.2633213 C67.4524017,36.690656 70.132233,34.519177 73.426105,34.519177 C76.7208146,34.519177 79.4006459,36.690656 79.4006459,41.2633213 C79.4006459,45.8335077 76.7208146,48.0049867 73.426105,48.0049867 C70.132233,48.0049867 67.4524017,45.8335077 67.4524017,41.2633213 Z M82.484588,47.7783365 L82.484588,37.3902721 L79.7075825,37.3902721 L79.7075825,34.7453314 L88.8034273,34.7453314 L88.8034273,37.3902721 L86.0272596,37.3902721 L86.0272596,47.7783365 L82.484588,47.7783365 Z M89.9149835,47.7783365 L89.9149835,34.7453314 L97.4208566,34.7453314 L97.2683935,37.3902721 L93.4568173,37.3902721 L93.4568173,39.8459933 L96.961792,39.8459933 L96.961792,42.3769066 L93.4568173,42.3769066 L93.4568173,45.1350484 L97.8422242,45.1350484 L97.8422242,47.7783365 L89.9149835,47.7783365 Z M105.732187,47.7783365 L102.668685,41.0928585 L105.846953,34.7453314 L109.254753,34.7453314 L106.287588,40.8466254 L109.790887,47.7783365 L105.732187,47.7783365 Z M98.934178,47.7783365 L98.934178,34.7453314 L102.477687,34.7453314 L102.477687,47.7783365 L98.934178,47.7783365 Z M93.4832052,32.7888521 L93.4832052,30.1389537 L96.1680627,30.1389537 L96.1680627,32.7888521 L93.4832052,32.7888521 Z M32.4273675,45.1349658 C33.3287425,45.1349658 33.8255039,44.7003395 33.8255039,43.6055109 C33.8255039,42.5462125 33.3664394,42.1694262 32.5237041,42.1694262 L31.9306061,42.1694262 L31.9306061,45.1349658 L32.4273675,45.1349658 Z M32.4273675,39.8459107 C33.2324059,39.8459107 33.6144012,39.430289 33.6144012,38.5610364 C33.6144012,37.6727792 33.174604,37.3901895 32.4273675,37.3901895 L31.9306061,37.3901895 L31.9306061,39.8459107 L32.4273675,39.8459107 Z M47.7097775,45.1349658 C48.609477,45.1349658 49.1062385,44.7003395 49.1062385,43.6055109 C49.1062385,42.5462125 48.6471739,42.1694262 47.8044386,42.1694262 L47.2113406,42.1694262 L47.2113406,45.1349658 L47.7097775,45.1349658 Z M47.7097775,39.8459107 C48.5131405,39.8459107 48.8959735,39.430289 48.8959735,38.5610364 C48.8959735,37.6727792 48.4553385,37.3901895 47.7097775,37.3901895 L47.2113406,37.3901895 L47.2113406,39.8459107 L47.7097775,39.8459107 Z M75.8010101,41.2633213 C75.8010101,38.5613669 74.882881,37.1624651 73.426105,37.1624651 C71.971842,37.1624651 71.0327702,38.5613669 71.0327702,41.2633213 C71.0327702,43.9627968 71.971842,45.3616986 73.426105,45.3616986 C74.882881,45.3616986 75.8010101,43.9627968 75.8010101,41.2633213 Z M9.12450253,0.0333333333 C14.1066112,0.0333333333 18.2486046,4.11757505 18.2486046,9.03365083 C18.2486046,13.9490916 14.1066112,18.0326983 9.12450253,18.0326983 C4.13917504,18.0326983 -0.000243317972,13.9490916 -0.000243317972,9.03365083 C-0.000243317972,4.11757505 4.13917504,0.0333333333 9.12450253,0.0333333333 Z M8.68062555,5.84848838 L8.68062555,10.1543408 L9.56451691,10.1543408 L9.56451691,5.84848838 C9.56451691,5.61354288 9.3784684,5.42812643 9.13576844,5.42812643 C8.88984965,5.42812643 8.68062555,5.62052775 8.68062555,5.84848838 Z M6.76233025,10.1544043 L7.67132849,10.1544043 L7.66038446,10.1347197 C7.29536888,9.36828941 6.53829952,7.56174904 6.53829952,6.89310685 C6.53829952,6.55465834 6.74044219,6.36797192 7.09644504,6.36797192 C7.27090575,6.36797192 7.44150386,6.42004092 7.55673806,6.4575052 L7.56961339,6.46068014 L7.78656269,5.75520866 L7.78012502,5.74949377 C7.51360571,5.65488059 7.23807366,5.56090239 6.93228459,5.56090239 C6.56469394,5.56090239 6.22478525,5.69297986 5.98530412,5.92602039 C5.73874157,6.16350584 5.60483815,6.48861961 5.60483815,6.84675274 C5.60483815,7.40808198 5.93959671,8.36373867 6.75782388,10.1474195 L6.76233025,10.1544043 Z M4.86128788,9.4474724 C4.20207102,8.24353547 3.9432769,7.59902282 3.9432769,7.14818147 C3.9432769,6.86751684 4.0527172,6.52970332 4.5748118,6.52970332 C4.69841497,6.52970332 4.83939982,6.55319787 4.94626505,6.57478746 L4.95914038,6.57796239 L5.16836448,5.89027058 L5.15742045,5.88582566 C4.90248893,5.8001023 4.60442506,5.7531132 4.36172511,5.7531132 C3.96387743,5.7531132 3.61753107,5.88519067 3.36195579,6.13283593 C3.12247466,6.38238614 2.98728371,6.71257981 2.98728371,7.08150774 C2.98728371,7.66125163 3.28985394,8.44355664 3.90851352,9.47795181 L4.30958002,10.1542138 L5.24432893,10.1542138 L4.86128788,9.4474724 Z M10.686795,6.4577592 C10.8033167,6.41965993 10.9739148,6.36759093 11.1490193,6.36759093 C11.5050222,6.36759093 11.7103837,6.55427735 11.7103837,6.89336085 C11.7103837,7.56136805 10.9500955,9.36854341 10.5831486,10.1349737 L10.5754234,10.1546583 L11.4812028,10.1546583 L11.4876405,10.1476735 C12.3058676,8.36399266 12.6380511,7.40833598 12.6380511,6.84700674 C12.6380511,6.4888736 12.506079,6.16312485 12.2588727,5.92627439 C12.0206791,5.69259886 11.6801266,5.56115638 11.312536,5.56115638 C11.0080344,5.56115638 10.7292836,5.65449959 10.4659831,5.74911278 L10.4550391,5.75546266 L10.6713446,6.46093414 L10.686795,6.4577592 Z M14.8826073,6.13296292 C14.6289633,5.88468268 14.2806856,5.7532402 13.8821942,5.7532402 C13.6407818,5.7532402 13.3427179,5.8002293 13.0858551,5.88595266 L13.0768424,5.89039757 L13.287354,6.57808939 L13.2995855,6.57491445 C13.405807,6.55332487 13.5474356,6.52983032 13.6723263,6.52983032 C14.1912021,6.52983032 14.2993549,6.86764384 14.2993549,7.14830846 C14.2993549,7.59914982 14.042492,8.24366247 13.383919,9.44759939 L13.0002341,10.1543408 L13.9356268,10.1543408 L14.3373371,9.47807881 C14.9553529,8.44368363 15.2566356,7.66137863 15.2566356,7.08163474 C15.2566356,6.71270681 15.1240197,6.38251314 14.8826073,6.13296292 Z M4.86914183,13.4170353 L9.96004702,13.4170353 L4.86914183,14.3688821 L4.86914183,15.0807034 L13.3758719,15.0807034 L13.3758719,14.3892017 L8.53667937,14.3892017 L13.3758719,13.4437048 L13.3758719,12.7248986 L4.86914183,12.7248986 L4.86914183,13.4170353 Z M4.86939934,11.9284968 L13.3761294,11.9284968 L13.3761294,11.1734963 L4.86939934,11.1734963 L4.86939934,11.9284968 Z M9.49550514,3.87348573 L9.49550514,3.2175433 L10.0839077,3.2175433 L10.0839077,2.63081455 L9.49550514,2.63081455 L9.49550514,1.55895509 L8.75195488,1.55895509 L8.75195488,2.63081455 L8.16355233,2.63081455 L8.16355233,3.2175433 L8.75195488,3.2175433 L8.75195488,3.87348573 C8.32513771,4.01318305 8.00647331,4.38592091 7.9511094,4.83930222 C8.29616822,4.74151409 8.69723473,4.68500018 9.12405189,4.68500018 C9.55086906,4.68500018 9.9512918,4.74151409 10.2963506,4.83930222 C10.2416305,4.38592091 9.92232231,4.01318305 9.49550514,3.87348573 Z" id="path-1"></path>
    </defs>
    <g id="Symbols" stroke="none" stroke-width="1" fill="none" fill-rule="evenodd">
        <g id="Footer/Desktop" transform="translate(-1046.000000, -36.000000)">
            <g id="Logo/Desktop" transform="translate(1046.000000, 36.000000)">
                <mask id="mask-2" fill="white">
                    <use xlink:href="#path-1"></use>
                </mask>
                <use id="Logo" fill="#002E70" fill-rule="evenodd" xlink:href="#path-1"></use>
                <g id="Color/White-#FFFFFF" mask="url(#mask-2)" fill="#FFFFFF" fill-rule="evenodd">
                    <rect id="Rectangle" x="0" y="0" width="110" height="48"></rect>
                </g>
            </g>
        </g>
    </g>
</svg>