<?xml version="1.0" standalone="no"?>
<!DOCTYPE svg PUBLIC "-//W3C//DTD SVG 1.1//EN" "http://www.w3.org/Graphics/SVG/1.1/DTD/svg11.dtd" >
<svg xmlns="http://www.w3.org/2000/svg" xmlns:xlink="http://www.w3.org/1999/xlink" version="1.1">
<metadata></metadata>
<defs>
<font id="nowaythin" horiz-adv-x="1085" >
<font-face units-per-em="2048" ascent="1536" descent="-512" />
<missing-glyph horiz-adv-x="585" />
<glyph unicode="&#x2e;&#x2e;&#x2e;" horiz-adv-x="1331" d="M158 0v74h61v-74h-61zM635 0v74h61v-74h-61zM1112 0v74h62v-74h-62z" />
<glyph unicode="&#xd;" horiz-adv-x="534" />
<glyph unicode=" "  horiz-adv-x="585" />
<glyph unicode="&#x09;" horiz-adv-x="585" />
<glyph unicode="&#xa0;" horiz-adv-x="585" />
<glyph unicode="!" horiz-adv-x="399" d="M170 0v74h61v-74h-61zM180 1434h39l-6 -1143h-27z" />
<glyph unicode="&#x22;" horiz-adv-x="573" d="M168 1434h39l-6 -484h-27zM365 1434h38l-6 -484h-26z" />
<glyph unicode="#" horiz-adv-x="999" d="M35 528l6 33h233l60 320h-236l6 32h236l61 336h35l-63 -336h323l62 336h35l-64 -336h236l-7 -32h-235l-59 -320h237l-6 -33h-238l-61 -340h-35l64 340h-324l-61 -340h-35l63 340h-233zM307 561h324l59 320h-323z" />
<glyph unicode="$" horiz-adv-x="999" d="M106 117l19 26q152 -127 383 -127q395 0 395 361q0 89 -42 153.5t-109 102.5t-148.5 68.5t-163 62t-148.5 70.5t-109 106t-42 158q0 177 91.5 262t273.5 90v141h35v-141q124 -3 205 -37.5t155 -95.5l-20 -27q-72 61 -154.5 94t-204.5 33q-348 0 -348 -317q0 -68 26 -121 t70.5 -88t101.5 -63t120.5 -50.5t127 -45.5t120.5 -54t101.5 -69t70.5 -97t26 -133q0 -379 -397 -395v-179h-35v179q-251 0 -400 133z" />
<glyph unicode="%" horiz-adv-x="1509" d="M111 979v192q0 146 57.5 212.5t181.5 66.5t182 -67t58 -212v-192q0 -145 -58 -212t-182 -67t-181.5 66.5t-57.5 212.5zM143 987q0 -135 47 -195.5t160 -60.5t160 60.5t47 195.5v176q0 135 -47 195.5t-160 60.5t-160 -60.5t-47 -195.5v-176zM451 -59l573 1552h33 l-572 -1552h-34zM920 262v193q0 145 57.5 211.5t181.5 66.5t182 -66.5t58 -211.5v-193q0 -145 -58 -211.5t-182 -66.5t-181.5 66.5t-57.5 211.5zM952 270q0 -135 47 -195.5t160 -60.5t160 60.5t47 195.5v176q0 135 -47 195.5t-160 60.5t-160 -60.5t-47 -195.5v-176z" />
<glyph unicode="&#x26;" horiz-adv-x="1202" d="M102 371q0 154 73 244t228 133l-59 65q-73 81 -114.5 158t-41.5 180q0 142 95.5 220.5t246.5 78.5q107 0 184 -29t150 -78l-18 -26q-145 100 -316 100q-134 0 -221.5 -69.5t-87.5 -196.5q0 -90 37.5 -162.5t108.5 -152.5l538 -607q53 67 104 218t54 288v10h31v-10 q-3 -128 -46.5 -271.5t-117.5 -258.5l178 -205h-41l-156 176q-53 -62 -102.5 -100.5t-133 -65t-192.5 -26.5q-180 0 -280.5 99t-100.5 288zM135 371q0 -177 95.5 -266t254.5 -89q101 0 180.5 26t127 63.5t94.5 95.5l-459 518q-148 -36 -220.5 -119t-72.5 -229z" />
<glyph unicode="'" horiz-adv-x="374" d="M168 1434h39l-6 -484h-27z" />
<glyph unicode="(" horiz-adv-x="575" d="M102 637q0 243 80 477t256 424l23 -22q-113 -120 -188 -275t-105.5 -303.5t-30.5 -300.5t30.5 -300.5t105.5 -303.5t188 -275l-23 -22q-176 190 -256 424t-80 477z" />
<glyph unicode=")" horiz-adv-x="575" d="M115 -242q166 176 244.5 409t78.5 470t-78.5 470t-244.5 409l22 22q176 -190 256 -424t80 -477t-80 -477t-256 -424z" />
<glyph unicode="*" horiz-adv-x="806" d="M78 1272l14 39l295 -113l-4 338h41l-4 -338l295 113l14 -39l-301 -103l215 -274l-33 -25l-207 277l-206 -277l-33 25l215 274z" />
<glyph unicode="+" horiz-adv-x="940" d="M20 588v35h433v448h34v-448h433v-35h-433v-447h-34v447h-433z" />
<glyph unicode="," horiz-adv-x="376" d="M121 -201q64 83 67 201h-30v74h61v-74q0 -126 -78 -219z" />
<glyph unicode="-" horiz-adv-x="710" d="M94 631v31h522v-31h-522z" />
<glyph unicode="." horiz-adv-x="376" d="M158 0v74h61v-74h-61z" />
<glyph unicode="/" horiz-adv-x="530" d="M-12 -162l520 1757h35l-520 -1757h-35z" />
<glyph unicode="0" horiz-adv-x="1064" d="M123 463v508q0 107 22.5 192t70 150.5t127.5 101t189 35.5t189 -35.5t127.5 -101t70.5 -150.5t23 -192v-508q0 -108 -22.5 -193.5t-70.5 -150.5t-128 -100t-189 -35t-189 35t-127.5 100t-70 150.5t-22.5 193.5zM158 473q0 -457 374 -457q375 0 375 457v488 q0 456 -375 456q-374 0 -374 -456v-488z" />
<glyph unicode="1" horiz-adv-x="931" d="M74 1227l473 207h28v-1399h299v-35h-731v35h398v1360l-453 -197z" />
<glyph unicode="2" horiz-adv-x="985" d="M113 0v94q0 70 40 143.5t103.5 139.5t140 134.5t153.5 138.5t140.5 139t103.5 148t40 155q0 89 -28.5 153.5t-80.5 101t-116 53.5t-144 17q-151 0 -320 -100l-16 26q170 107 338 107q188 0 294.5 -89.5t106.5 -268.5q0 -80 -40 -162t-103.5 -152.5t-140 -141t-153.5 -138 t-140.5 -132t-103.5 -135.5t-40 -137v-59h725v-35h-759z" />
<glyph unicode="3" horiz-adv-x="989" d="M96 98l19 27q169 -109 354 -109q391 0 391 383q0 154 -91.5 244t-268.5 90h-138v33h138q148 0 229.5 79.5t81.5 219.5q0 162 -86.5 257t-269.5 95q-157 0 -312 -100l-18 26q158 107 332 107q196 0 292.5 -104.5t96.5 -280.5q0 -125 -59.5 -207t-174.5 -108 q119 -16 199 -107t80 -244q0 -415 -420 -415q-207 0 -375 114z" />
<glyph unicode="4" d="M98 381v29l451 1024h39l-447 -1018h586v477h35v-477h225v-35h-225v-381h-35v381h-629z" />
<glyph unicode="5" horiz-adv-x="1019" d="M111 94l18 27q69 -45 161.5 -75t192.5 -30q89 0 158.5 25t112.5 65t70.5 96.5t38.5 114.5t11 123q0 175 -102 286.5t-289 111.5q-70 0 -131 -15.5t-94.5 -33t-81.5 -48.5l-26 7l40 686h644v-33h-611l-39 -619q131 88 299 88q205 0 313.5 -119.5t108.5 -310.5 q0 -70 -11.5 -132t-41.5 -123t-76 -104t-121 -70t-172 -27q-109 0 -207 32t-165 78z" />
<glyph unicode="6" horiz-adv-x="1071" d="M125 442v463q0 140 34 247t94.5 171t138.5 95.5t171 31.5q182 0 332 -102l-18 -27q-149 96 -312 96q-87 0 -158.5 -29.5t-128 -89t-87.5 -160t-31 -233.5v-207q31 40 59.5 69t74 62.5t107 51.5t134.5 18q108 0 188.5 -35t128 -98.5t70 -144.5t22.5 -179 q0 -104 -22.5 -186t-70 -144t-127.5 -95t-189 -33t-189 33t-128 95t-70.5 144t-22.5 186zM160 442q0 -93 20.5 -167.5t63 -134t117 -92t174.5 -32.5q374 0 374 426q0 93 -20 167.5t-63 133.5t-117 91t-174 32q-232 0 -375 -217v-207z" />
<glyph unicode="7" horiz-adv-x="1034" d="M94 1401v33h846v-23l-608 -1411h-37l604 1401h-805z" />
<glyph unicode="8" horiz-adv-x="1069" d="M90 362q0 307 399 394q-13 6 -45 18.5t-56 22.5t-58.5 27.5t-60 35t-53 44t-45 55t-29 67.5t-11.5 82q0 161 103 251.5t301 90.5q197 0 300 -90.5t103 -251.5q0 -43 -11.5 -82t-29 -67.5t-45 -55t-53 -44t-60 -35t-58.5 -27.5t-56 -22.5t-45 -18.5q399 -87 399 -394 q0 -185 -114.5 -281.5t-329.5 -96.5t-330 96.5t-115 281.5zM125 362q0 -172 107 -259t303 -87t302.5 87t106.5 259q0 145 -101 237t-308 136q-207 -44 -308.5 -136t-101.5 -237zM166 1108q0 -41 13 -78.5t31.5 -65t50.5 -53.5t58 -42.5t67 -35.5t64.5 -28t62.5 -23 q15 -5 22 -8q137 50 191 80q177 97 177 254q0 142 -92 225.5t-276 83.5t-276.5 -83.5t-92.5 -225.5z" />
<glyph unicode="9" horiz-adv-x="1071" d="M127 991q0 104 22.5 186t70.5 144t128 95.5t189 33.5t189 -33.5t127.5 -95.5t70 -144t22.5 -186v-463q0 -140 -34 -246.5t-94.5 -170.5t-138.5 -95.5t-171 -31.5q-182 0 -332 102l19 27q150 -97 311 -97q87 0 158.5 29.5t128 89t87.5 160t31 233.5v207q-31 -40 -59.5 -69 t-74 -62t-106.5 -51t-134 -18q-108 0 -188.5 35t-128 98.5t-70.5 144t-23 178.5zM162 991q0 -73 12.5 -135.5t40.5 -116.5t70.5 -91.5t106.5 -59t145 -21.5q231 0 374 217v207q0 93 -20 167.5t-63 134t-117 92t-174 32.5q-375 0 -375 -426z" />
<glyph unicode=":" horiz-adv-x="376" d="M158 0v74h61v-74h-61zM158 983v74h61v-74h-61z" />
<glyph unicode=";" horiz-adv-x="376" d="M121 -201q64 83 67 201h-30v74h61v-74q0 -126 -78 -219zM158 983v74h61v-74h-61z" />
<glyph unicode="&#x3c;" horiz-adv-x="946" d="M86 588v33l772 436v-39l-733 -414l733 -414v-38z" />
<glyph unicode="=" horiz-adv-x="940" d="M20 395v35h900v-35h-900zM20 803v35h900v-35h-900z" />
<glyph unicode="&#x3e;" horiz-adv-x="946" d="M86 152v38l733 414l-733 414v39l772 -436v-33z" />
<glyph unicode="?" horiz-adv-x="931" d="M82 1331q80 54 167.5 86.5t211.5 32.5q187 0 287 -83t100 -239q0 -65 -16 -119t-43 -92t-61.5 -70t-73 -58t-77.5 -51t-73.5 -53.5t-61.5 -61.5t-43 -79t-16 -102v-145h-35v145q0 75 26 134.5t67 99t90.5 73.5t99.5 68t91 73.5t67 100t26 137.5q0 142 -94 215.5 t-260 73.5q-200 0 -361 -110zM340 0v74h61v-74h-61z" />
<glyph unicode="@" horiz-adv-x="1499" d="M125 598q0 128 20.5 234t67 197.5t118 154t179 98t244.5 35.5q317 0 468.5 -170t151.5 -506q0 -214 -53 -315t-182 -101q-80 0 -123 26.5t-62 84.5q-29 -45 -89 -78t-140 -33q-124 0 -174.5 71t-50.5 206v186q0 135 50.5 206t174.5 71q75 0 131 -28t88 -73l4 90h29v-536 q0 -49 13.5 -82.5t38 -49.5t50.5 -22t60 -6q112 0 157 91.5t45 291.5q0 313 -140 478t-447 165q-132 0 -234 -34.5t-169.5 -95t-110.5 -148.5t-61.5 -188t-18.5 -220q0 -358 151 -528t490 -170q228 0 442 120l14 -28q-221 -125 -456 -125q-358 0 -517 177t-159 554zM535 508 q0 -127 40.5 -188.5t149.5 -61.5q71 0 130 31.5t89 81.5v448q-30 51 -87.5 82t-131.5 31q-109 0 -149.5 -61.5t-40.5 -188.5v-174z" />
<glyph unicode="A" horiz-adv-x="1138" d="M72 0l479 1434h33l483 -1434h-41l-158 479h-598l-157 -479h-41zM283 514h573l-289 862z" />
<glyph unicode="B" horiz-adv-x="1128" d="M231 0v1434h392q82 0 144.5 -19t100 -50.5t61 -77.5t32 -93.5t8.5 -106.5q0 -131 -67.5 -215.5t-168.5 -111.5q58 -11 106.5 -35t90.5 -66t66 -111t24 -159q0 -49 -7.5 -94.5t-33 -101.5t-67 -96.5t-117 -68.5t-174.5 -28h-390zM266 33h355q170 0 267 90t97 266 q0 350 -381 350h-338v-706zM266 772h336q143 0 237.5 80t94.5 235q0 66 -11.5 116t-43 98t-96.5 74t-162 26h-355v-629z" />
<glyph unicode="C" horiz-adv-x="1120" d="M154 453v528q0 469 424 469q45 0 85.5 -6.5t71.5 -15.5t60 -26.5t49 -31t41 -37.5t32 -38t26 -40.5t20.5 -37.5l17.5 -35l-29 -15q-22 45 -40 74.5t-50 66t-68 58t-92 36.5t-124 15q-390 0 -390 -446v-508q0 -447 390 -447q73 0 131.5 15.5t95 37.5t67.5 58t46.5 64 t33.5 69l29 -14q-41 -91 -78 -134q-110 -128 -325 -128q-424 0 -424 469z" />
<glyph unicode="D" horiz-adv-x="1204" d="M205 0v1434h344q274 0 405 -176t131 -541t-131 -541t-405 -176h-344zM240 33h309q261 0 381.5 172.5t120.5 511.5t-120.5 511.5t-381.5 172.5h-309v-1368z" />
<glyph unicode="E" horiz-adv-x="1007" d="M205 0v1434h682v-33h-647v-633h614v-33h-614v-702h647v-33h-682z" />
<glyph unicode="F" horiz-adv-x="997" d="M205 0v1434h682v-33h-647v-653h614v-33h-614v-715h-35z" />
<glyph unicode="G" horiz-adv-x="1138" d="M154 453v528q0 469 424 469q57 0 107 -11t84.5 -24.5t67.5 -40.5t51 -45t39.5 -52.5t28.5 -48.5l23 -46l-27 -15q-24 46 -41 74t-49.5 65.5t-68 58.5t-91.5 36.5t-124 15.5q-390 0 -390 -446v-508q0 -447 390 -447q88 0 158.5 20t114.5 53t70 64.5t42 65.5v465h-334v33 h368v-508q-15 -29 -29.5 -51.5t-49.5 -57.5t-76.5 -58t-111 -40.5t-152.5 -17.5q-424 0 -424 469z" />
<glyph unicode="H" horiz-adv-x="1269" d="M205 0v1434h35v-668h792v668h33v-1434h-33v733h-792v-733h-35z" />
<glyph unicode="I" horiz-adv-x="444" d="M205 0v1434h35v-1434h-35z" />
<glyph unicode="J" horiz-adv-x="679" d="M82 8l10 31q61 -23 117 -23q41 0 74 7.5t56.5 23.5t40.5 34.5t28 48.5t17.5 56t9.5 66.5t4 71t1 77.5v1033h35v-1043q0 -54 -2 -93.5t-8 -85t-17.5 -77t-31.5 -62t-47.5 -49t-68 -29.5t-91.5 -11q-69 0 -127 24z" />
<glyph unicode="K" horiz-adv-x="1062" d="M205 0v1434h35v-668h268l412 668h36l-421 -684l430 -750h-39l-418 733h-268v-733h-35z" />
<glyph unicode="L" horiz-adv-x="956" d="M205 0v1434h35v-1401h647v-33h-682z" />
<glyph unicode="M" horiz-adv-x="1439" d="M195 0v1434h28l496 -1031l495 1031h29v-1434h-33v1350l-479 -994h-24l-480 994v-1350h-32z" />
<glyph unicode="N" horiz-adv-x="1269" d="M195 0v1434h26l819 -1362v1362h35v-1434h-31l-817 1354v-1354h-32z" />
<glyph unicode="O" horiz-adv-x="1167" d="M154 455v526q0 108 24 192.5t74.5 147t134 96t197.5 33.5t197.5 -33.5t134 -96t74.5 -147t24 -192.5v-526q0 -222 -104 -346.5t-326 -124.5t-326 124.5t-104 346.5zM188 465q0 -449 396 -449q395 0 395 449v506q0 446 -395 446q-396 0 -396 -446v-506z" />
<glyph unicode="P" horiz-adv-x="1079" d="M205 0v1434h317q108 0 189 -20t132 -55t83 -88.5t44.5 -114t12.5 -138.5q0 -97 -21 -168.5t-71 -129t-142.5 -87t-226.5 -29.5h-282v-604h-35zM240 637h282q103 0 179.5 20t123 53.5t75 84t38.5 103.5t10 120q0 68 -10.5 121.5t-38.5 104t-74.5 84t-123 53.5t-179.5 20 h-282v-764z" />
<glyph unicode="Q" horiz-adv-x="1167" d="M154 453v528q0 108 24 192.5t74.5 147t134 96t197.5 33.5t197.5 -33.5t134 -96t74.5 -147t24 -192.5v-528q0 -218 -90 -336l155 -148l-20 -24l-156 149q-107 -110 -319 -110q-114 0 -197.5 33.5t-134 96t-74.5 147t-24 192.5zM188 463q0 -447 396 -447q195 0 293 103 l-209 198l22 23l207 -199q82 109 82 322v508q0 446 -395 446q-396 0 -396 -446v-508z" />
<glyph unicode="R" horiz-adv-x="1128" d="M205 0v1434h317q134 0 226 -27.5t142.5 -83t71.5 -125.5t21 -168q0 -163 -67 -260.5t-230 -128.5l332 -641h-39l-330 635q-59 -6 -127 -6h-282v-629h-35zM240 662h282q86 0 153.5 12.5t113.5 37t78 56t49 74.5t24.5 88t7.5 100q0 68 -10.5 120t-38.5 101t-74.5 80.5 t-123 50.5t-179.5 19h-282v-739z" />
<glyph unicode="S" horiz-adv-x="1048" d="M106 117l19 26q152 -127 383 -127q395 0 395 361q0 89 -42 153.5t-109 102.5t-148.5 68.5t-163 62t-148.5 70.5t-109 106t-42 158q0 181 95.5 266.5t285.5 85.5q133 0 218 -35t161 -98l-20 -27q-72 61 -154.5 94t-204.5 33q-348 0 -348 -317q0 -68 26 -121t70.5 -88 t101.5 -63t120.5 -50.5t127 -45.5t120.5 -54t101.5 -69t70.5 -97t26 -133q0 -395 -430 -395q-135 0 -236.5 38t-165.5 95z" />
<glyph unicode="T" horiz-adv-x="1017" d="M78 1401v33h860v-33h-412v-1401h-34v1401h-414z" />
<glyph unicode="U" horiz-adv-x="1159" d="M154 428v1006h34v-996q0 -209 92 -315.5t300 -106.5q209 0 300 106t91 316v996h35v-1006q0 -219 -100.5 -331.5t-325.5 -112.5t-325.5 112.5t-100.5 331.5z" />
<glyph unicode="V" horiz-adv-x="1089" d="M63 1434h39l443 -1385l442 1385h39l-461 -1434h-41z" />
<glyph unicode="W" horiz-adv-x="1626" d="M59 1434h41l338 -1381l357 1381h36l357 -1381l338 1381h41l-357 -1434h-47l-350 1360l-350 -1360h-47z" />
<glyph unicode="X" horiz-adv-x="974" d="M63 0l406 739l-383 695h41l360 -656l361 656h41l-383 -695l405 -739h-39l-385 700l-385 -700h-39z" />
<glyph unicode="Y" horiz-adv-x="1087" d="M61 1434h41l443 -799l440 799h41l-465 -838v-596h-35v596z" />
<glyph unicode="Z" horiz-adv-x="1003" d="M109 0v25l751 1376h-721v33h764v-23l-749 -1378h749v-33h-794z" />
<glyph unicode="[" horiz-adv-x="583" d="M166 -238v1749h299v-32h-264v-1684h264v-33h-299z" />
<glyph unicode="\" horiz-adv-x="530" d="M-12 1595h35l520 -1757h-35z" />
<glyph unicode="]" horiz-adv-x="583" d="M119 -205h264v1684h-264v32h299v-1749h-299v33z" />
<glyph unicode="^" horiz-adv-x="948" d="M37 750l420 786h32l420 -786h-39l-397 745l-397 -745h-39z" />
<glyph unicode="_" horiz-adv-x="1005" d="M61 -82h883v-31h-883v31z" />
<glyph unicode="`" horiz-adv-x="757" d="M297 1599h45l123 -325h-29z" />
<glyph unicode="a" horiz-adv-x="1024" d="M125 287q0 88 34.5 158.5t96 118t150 79t192.5 45.5t227 14v107q0 148 -82 220.5t-233 72.5q-155 0 -315 -90l-15 30q169 93 330 93q350 0 350 -334v-801h-29l-6 190q-41 -88 -130.5 -147t-221.5 -59q-163 0 -255.5 83t-92.5 220zM160 287q0 -124 85 -197.5t236 -73.5 q60 0 114 17t91.5 43t67 59t46.5 64t25 59v412q-147 0 -265 -21t-209.5 -65.5t-141 -119.5t-49.5 -177z" />
<glyph unicode="b" horiz-adv-x="1048" d="M184 0v1536h35v-578q52 68 144.5 122.5t218.5 54.5q344 0 344 -406v-340q0 -405 -344 -405q-126 0 -218.5 54t-144.5 122l-6 -160h-29zM219 203q64 -82 152.5 -134.5t195.5 -52.5q172 0 248 95.5t76 285.5v324q0 190 -76 285.5t-248 95.5q-107 0 -195.5 -52.5 t-152.5 -134.5v-712z" />
<glyph unicode="c" horiz-adv-x="874" d="M123 416v286q0 209 87.5 321t283.5 112q61 0 111.5 -13.5t87 -39t60.5 -50.5t48 -59l-27 -19q-51 73 -117 110.5t-163 37.5q-182 0 -259 -106t-77 -302v-270q0 -95 17 -167t55 -127.5t105 -84.5t161 -29q95 0 160.5 31.5t123.5 106.5l25 -19q-57 -78 -129 -114.5 t-180 -36.5q-373 0 -373 432z" />
<glyph unicode="d" horiz-adv-x="1048" d="M123 389v340q0 406 344 406q67 0 127.5 -17t105 -45.5t75.5 -56.5t54 -58v578h35v-1536h-28l-7 160q-52 -68 -144 -122t-218 -54q-344 0 -344 405zM158 397q0 -190 75.5 -285.5t247.5 -95.5q107 0 195.5 52.5t152.5 134.5v712q-64 82 -152.5 134.5t-195.5 52.5 q-172 0 -247.5 -95.5t-75.5 -285.5v-324z" />
<glyph unicode="e" horiz-adv-x="974" d="M123 416v286q0 208 87 320.5t282 112.5q101 0 173 -30.5t115 -88.5t62.5 -135.5t19.5 -178.5v-161h-704v-117q0 -95 17 -167t55 -127.5t105 -84.5t161 -29q177 0 329 97l17 -29q-165 -100 -346 -100q-104 0 -178 31.5t-116 91t-60.5 135t-18.5 174.5zM158 573h671v121 q0 76 -10 136.5t-34 112.5t-62 86t-96 53.5t-135 19.5q-181 0 -257.5 -106t-76.5 -302v-121z" />
<glyph unicode="f" horiz-adv-x="669" d="M66 1085v27l200 6v125q0 295 232 295q64 0 123 -27l-9 -28q-50 22 -114 22q-108 0 -152.5 -66t-44.5 -190v-131h299v-33h-299v-1085h-35v1085h-200z" />
<glyph unicode="g" horiz-adv-x="1028" d="M123 389v340q0 406 344 406q67 0 127.5 -17t105 -45.5t75.5 -56.5t54 -58l7 160h28v-1218q0 -162 -87.5 -246t-262.5 -84q-201 0 -346 86l16 29q80 -41 156 -61.5t174 -20.5q151 0 233 72.5t82 220.5v264q-52 -68 -144 -122t-218 -54q-344 0 -344 405zM158 397 q0 -190 75.5 -285.5t247.5 -95.5q107 0 195.5 52.5t152.5 134.5v712q-64 82 -152.5 134.5t-195.5 52.5q-172 0 -247.5 -95.5t-75.5 -285.5v-324z" />
<glyph unicode="h" horiz-adv-x="1099" d="M184 0v1536h35v-584q189 183 408 183q150 0 224.5 -82.5t74.5 -216.5v-836h-35v807q0 142 -65.5 218.5t-215.5 76.5q-199 0 -391 -187v-915h-35z" />
<glyph unicode="i" horiz-adv-x="403" d="M170 1389v69h66v-69h-66zM184 0v1118h35v-1118h-35z" />
<glyph unicode="j" horiz-adv-x="403" d="M-137 -395l12 28q68 -22 123 -22q49 0 83.5 12.5t54.5 32.5t31 55t14 69.5t3 86.5v1251h35v-1245q0 -75 -7.5 -124t-30 -90.5t-67.5 -61t-116 -19.5q-33 0 -66.5 7t-51.5 13zM170 1389v69h66v-69h-66z" />
<glyph unicode="k" horiz-adv-x="954" d="M184 0v1536h35v-915h279l333 497h41l-344 -514l349 -604h-43l-334 586h-281v-586h-35z" />
<glyph unicode="l" horiz-adv-x="403" d="M184 0v1536h35v-1536h-35z" />
<glyph unicode="m" horiz-adv-x="1740" d="M184 0v1118h29l6 -166q34 33 62.5 56t81 56.5t117.5 52t136 18.5q203 0 269 -162q180 162 383 162q150 0 224.5 -82.5t74.5 -216.5v-836h-35v807q0 142 -65.5 218.5t-213.5 76.5q-184 0 -360 -158q14 -49 14 -108v-836h-37v807q0 144 -60.5 219.5t-209.5 75.5 q-189 0 -381 -187v-915h-35z" />
<glyph unicode="n" horiz-adv-x="1097" d="M184 0v1118h29l6 -166q189 183 406 183q150 0 224.5 -82.5t74.5 -216.5v-836h-35v807q0 142 -65.5 218.5t-215.5 76.5q-197 0 -389 -187v-915h-35z" />
<glyph unicode="o" horiz-adv-x="987" d="M123 416v286q0 433 371 433q101 0 173 -30.5t115 -88.5t62.5 -135.5t19.5 -178.5v-286q0 -208 -86.5 -320t-283.5 -112q-371 0 -371 432zM158 424q0 -95 17 -167t55 -127.5t104 -84.5t160 -29q183 0 259 105.5t76 302.5v270q0 197 -76 302.5t-259 105.5q-182 0 -259 -106 t-77 -302v-270z" />
<glyph unicode="p" horiz-adv-x="1048" d="M184 -414v1532h29l6 -160q52 68 144.5 122.5t218.5 54.5q344 0 344 -406v-340q0 -405 -344 -405q-126 0 -218.5 54t-144.5 122v-574h-35zM219 203q64 -82 152.5 -134.5t195.5 -52.5q172 0 248 95.5t76 285.5v324q0 190 -76 285.5t-248 95.5q-107 0 -195.5 -52.5 t-152.5 -134.5v-712z" />
<glyph unicode="q" horiz-adv-x="1048" d="M123 389v340q0 406 344 406q67 0 127.5 -17t105 -45.5t75.5 -56.5t54 -58l7 160h28v-1532h-35v574q-52 -68 -144 -122t-218 -54q-344 0 -344 405zM158 397q0 -190 75.5 -285.5t247.5 -95.5q107 0 195.5 52.5t152.5 134.5v712q-64 82 -152.5 134.5t-195.5 52.5 q-172 0 -247.5 -95.5t-75.5 -285.5v-324z" />
<glyph unicode="r" horiz-adv-x="720" d="M184 0v1118h29l6 -231q20 34 53.5 72.5t83 80t118 68.5t140.5 27q44 0 78 -9l-6 -32q-36 8 -86 8q-63 0 -124 -25t-109.5 -65.5t-85 -84t-62.5 -87.5v-840h-35z" />
<glyph unicode="s" horiz-adv-x="854" d="M94 86l17 27q151 -97 309 -97q169 0 246 69.5t77 188.5q0 65 -21.5 115t-58 82t-84 56.5t-99.5 42.5t-104 35t-99.5 39t-84 51t-58 73.5t-21.5 103.5q0 124 81.5 193.5t239.5 69.5q156 0 285 -84l-17 -27q-116 80 -262 80q-84 0 -143.5 -20t-91 -54.5t-45 -73 t-13.5 -84.5q0 -67 35 -114t90.5 -74t122.5 -48.5t134.5 -47t123 -60t90.5 -95.5t35 -146q0 -303 -358 -303q-89 0 -177 26.5t-149 75.5z" />
<glyph unicode="t" horiz-adv-x="741" d="M63 1085v27l203 6v238l35 6v-244h299v-33h-299v-802q0 -52 3 -86.5t14 -69.5t31 -55t54.5 -32.5t83.5 -12.5q70 0 125 22l9 -29q-59 -26 -134 -26q-71 0 -116 19.5t-67.5 61t-30 90.5t-7.5 124v796h-203z" />
<glyph unicode="u" horiz-adv-x="1089" d="M174 283v835h35v-807q0 -295 283 -295q197 0 389 187v915h34v-1118h-28l-6 166q-188 -182 -406 -182q-150 0 -225.5 82.5t-75.5 216.5z" />
<glyph unicode="v" horiz-adv-x="927" d="M63 1118h39l363 -1069l362 1069h39l-383 -1118h-37z" />
<glyph unicode="w" horiz-adv-x="1409" d="M63 1118h39l301 -1069l283 1069h33l282 -1069l302 1069h38l-321 -1118h-39l-279 1047l-278 -1047h-39z" />
<glyph unicode="x" horiz-adv-x="886" d="M74 0l348 580l-332 538h41l311 -516l312 516h41l-334 -547l350 -571h-41l-330 549l-325 -549h-41z" />
<glyph unicode="y" horiz-adv-x="925" d="M63 1118h41l363 -1069l358 1069h39l-518 -1532h-39l139 408z" />
<glyph unicode="z" horiz-adv-x="927" d="M92 0v25l699 1060h-680v33h723v-24l-697 -1061h697v-33h-742z" />
<glyph unicode="{" horiz-adv-x="643" d="M88 623v32h39q76 0 107.5 61t31.5 195v396q0 206 185 206h73v-32h-73q-70 0 -110 -37.5t-40 -140.5v-392q0 -123 -23 -186.5t-83 -81.5v-8q60 -16 83 -81t23 -189v-392q0 -103 40 -140.5t110 -37.5h73v-33h-73q-185 0 -185 207v396q0 134 -31.5 196t-107.5 62h-39z" />
<glyph unicode="|" horiz-adv-x="409" d="M186 -238v1809h35v-1809h-35z" />
<glyph unicode="}" horiz-adv-x="643" d="M119 -205h74q70 0 109.5 37.5t39.5 140.5v392q0 124 23.5 188.5t83.5 81.5v8q-61 18 -84 81.5t-23 186.5v392q0 103 -39.5 140.5t-109.5 37.5h-74v32h74q184 0 184 -206v-396q0 -134 31.5 -195t107.5 -61h39v-32h-39q-76 0 -107.5 -62t-31.5 -196v-396q0 -207 -184 -207 h-74v33z" />
<glyph unicode="&#xa1;" horiz-adv-x="399" d="M170 1036v74h61v-74h-61zM180 -324l6 1143h27l6 -1143h-39z" />
<glyph unicode="&#xa2;" horiz-adv-x="839" d="M98 537v348q0 202 82.5 301t272.5 100v148h34v-150q149 -7 299 -113l-20 -26q-61 44 -142.5 76t-164.5 32q-179 0 -252.5 -92.5t-73.5 -283.5v-332q0 -192 73.5 -284.5t252.5 -92.5q162 0 309 106l18 -24q-143 -105 -299 -115v-135h-34v135q-190 1 -272.5 100t-82.5 302z " />
<glyph unicode="&#xa3;" horiz-adv-x="1058" d="M84 731v27l174 6q-4 13 -16.5 60t-16.5 64t-11.5 51.5t-10 62.5t-2.5 59q0 101 33 177.5t90 120t125 64.5t147 21q188 0 350 -101l-16 -28q-155 96 -334 96q-72 0 -133 -18t-113.5 -56.5t-83 -109t-30.5 -166.5q0 -52 8.5 -104t16.5 -82.5t32 -110.5h467v-33h-459 q55 -215 55 -338q0 -114 -54.5 -214t-127.5 -146h791v-33h-850v31q77 36 143 138t66 230q0 130 -58 332h-182z" />
<glyph unicode="&#xa4;" horiz-adv-x="1175" d="M123 225l174 176q-92 110 -92 275q0 164 94 272l-176 178l27 25l176 -176q105 94 262 94q154 0 262 -94l176 176l27 -25l-179 -180q97 -108 97 -270q0 -165 -94 -273l176 -178l-27 -24l-176 176q-105 -94 -262 -94q-160 0 -262 94l-176 -176zM240 676q0 -165 97.5 -262 t250.5 -97t250.5 97t97.5 262t-97.5 261.5t-250.5 96.5t-250.5 -96.5t-97.5 -261.5z" />
<glyph unicode="&#xa5;" horiz-adv-x="1087" d="M61 1434h41l443 -799l440 799h41l-453 -816h340v-32h-352v-193h352v-33h-352v-360h-35v360h-354v33h354v193h-354v32h342z" />
<glyph unicode="&#xa6;" horiz-adv-x="407" d="M186 -238v828h35v-828h-35zM186 743v828h35v-828h-35z" />
<glyph unicode="&#xa7;" horiz-adv-x="966" d="M98 578q0 192 140 286q-134 84 -134 246q0 340 381 340q219 0 363 -107l-17 -26q-73 49 -149.5 74.5t-196.5 25.5q-348 0 -348 -305q0 -68 25 -119t67 -82.5t97 -55t115.5 -41.5t120.5 -36.5t115 -44.5t97 -61t67 -92t25 -131q0 -205 -133 -291q127 -88 127 -242 q0 -340 -381 -340q-217 0 -362 107l16 26q71 -48 150.5 -74t195.5 -26q348 0 348 305q0 68 -25 119t-67 82.5t-97 55.5t-115.5 42t-120.5 36t-115 44.5t-97 61.5t-67 92t-25 131zM133 580q0 -72 28 -127t71 -86.5t105.5 -58.5t120.5 -42.5t127.5 -40t116.5 -49.5 q129 79 129 270q0 72 -27.5 126t-69.5 85.5t-103.5 58t-118.5 42t-126.5 39t-115.5 47.5q-137 -81 -137 -264z" />
<glyph unicode="&#xa8;" horiz-adv-x="792" d="M207 1368v70h65v-70h-65zM520 1368v70h66v-70h-66z" />
<glyph unicode="&#xa9;" horiz-adv-x="1624" d="M43 782q0 370 202.5 584.5t565.5 214.5t565.5 -214.5t202.5 -584.5t-202.5 -584t-565.5 -214t-565.5 214t-202.5 584zM78 782q0 -355 193 -560.5t540 -205.5t540 205.5t193 560.5t-193 560.5t-540 205.5t-540 -205.5t-193 -560.5zM514 662v219q0 165 69.5 254.5 t225.5 89.5q158 0 246 -133l-29 -19q-82 117 -217 117q-142 0 -201 -81.5t-59 -234.5v-206q0 -153 59 -234.5t201 -81.5q76 0 126 29.5t91 85.5l27 -21q-88 -129 -244 -129q-295 0 -295 345z" />
<glyph unicode="&#xaa;" horiz-adv-x="688" d="M96 889q0 97 62.5 160t163 88.5t239.5 25.5v66q0 188 -207 188q-114 0 -211 -57l-12 24q107 64 223 64q238 0 238 -223v-533h-27l-4 115q-31 -53 -90.5 -89t-140.5 -36q-105 0 -169.5 58t-64.5 149zM127 889q0 -79 57 -127.5t146 -48.5t152 49.5t79 103.5v267 q-130 0 -223.5 -22.5t-152 -78.5t-58.5 -143z" />
<glyph unicode="&#xab;" horiz-adv-x="1019" d="M86 598v29l455 352v-41l-406 -326l406 -325v-41zM479 598v29l455 352v-41l-406 -326l406 -325v-41z" />
<glyph unicode="&#xac;" horiz-adv-x="1026" d="M20 664v34h986v-512h-35v478h-951z" />
<glyph unicode="&#xad;" horiz-adv-x="710" d="M94 631v31h522v-31h-522z" />
<glyph unicode="&#xae;" horiz-adv-x="1019" d="M68 1006q0 203 119.5 323.5t322.5 120.5t322.5 -120.5t119.5 -323.5t-119.5 -324t-322.5 -121t-322.5 121t-119.5 324zM102 1006q0 -190 108.5 -302t299.5 -112t299.5 112t108.5 302t-108 301.5t-300 111.5t-300 -111.5t-108 -301.5zM367 737v541h147q84 0 124 -44.5 t40 -119.5q0 -82 -38.5 -120.5t-92.5 -43.5l112 -213h-36l-109 211h-115v-211h-32zM399 977h121q59 0 92 35t33 102q0 62 -28 98.5t-107 36.5h-111v-272z" />
<glyph unicode="&#xaf;" horiz-adv-x="677" d="M100 1436v32h478v-32h-478z" />
<glyph unicode="&#xb0;" horiz-adv-x="593" d="M39 1243q0 107 71 180.5t187 73.5t187 -73.5t71 -180.5t-71 -180.5t-187 -73.5t-187 73.5t-71 180.5zM72 1243q0 -96 62.5 -159.5t162.5 -63.5t162.5 63.5t62.5 159.5t-62.5 159.5t-162.5 63.5t-162.5 -63.5t-62.5 -159.5z" />
<glyph unicode="&#xb1;" horiz-adv-x="940" d="M20 29v34h900v-34h-900zM20 588v35h433v448h34v-448h433v-35h-433v-447h-34v447h-433z" />
<glyph unicode="&#xb2;" horiz-adv-x="837" d="M158 1358q120 86 243 86q136 0 205.5 -62t69.5 -163q0 -54 -26.5 -104t-68.5 -90.5t-93.5 -79.5t-102.5 -79t-93 -81.5t-68.5 -94t-26.5 -110.5v-45h485v-33h-518v78q0 61 26.5 117t68.5 100t93 85t102.5 80t93.5 77.5t68.5 85t26.5 94.5q0 87 -64 139.5t-180 52.5 q-117 0 -223 -82z" />
<glyph unicode="&#xb3;" horiz-adv-x="837" d="M135 575l19 27q115 -80 227 -80q264 0 264 221q0 122 -69 173t-195 51h-84v32h84q63 0 109 17t71 46.5t36 62t11 69.5q0 113 -62 165t-165 52q-57 0 -104.5 -19t-106.5 -59l-18 25q120 86 231 86q115 0 187.5 -61.5t72.5 -188.5q0 -80 -40 -134.5t-118 -74.5 q191 -30 191 -242q0 -57 -13.5 -100.5t-45 -79.5t-90.5 -55t-144 -19q-138 0 -248 86z" />
<glyph unicode="&#xb4;" horiz-adv-x="757" d="M297 1274l123 325h45l-139 -325h-29z" />
<glyph unicode="&#xb5;" horiz-adv-x="1089" d="M174 -414v1532h35v-821q0 -132 69.5 -206.5t213.5 -74.5q197 0 389 187v915h34v-1118h-28l-6 166q-188 -182 -406 -182q-195 0 -266 139v-537h-35z" />
<glyph unicode="&#xb6;" horiz-adv-x="1028" d="M57 1036q0 172 108.5 285t303.5 113h500v-33h-115v-1815h-35v1815h-229v-1815h-35v1057h-113q-175 0 -280 106.5t-105 286.5z" />
<glyph unicode="&#xb7;" horiz-adv-x="376" d="M158 598v74h61v-74h-61z" />
<glyph unicode="&#xb8;" horiz-adv-x="770" d="M238 -379l8 29q74 -21 123 -21q70 0 98.5 23.5t28.5 83.5q0 49 -29.5 69.5t-87.5 20.5q-43 0 -76 -10l-22 14l38 195h33l-37 -177q30 9 66 9q149 0 149 -121q0 -70 -36.5 -104.5t-122.5 -34.5q-59 0 -133 24z" />
<glyph unicode="&#xb9;" horiz-adv-x="837" d="M156 1303l305 131h26v-899h187v-33h-461v33h242v862l-287 -123z" />
<glyph unicode="&#xba;" horiz-adv-x="688" d="M96 971v188q0 289 248 289t248 -289v-188q0 -289 -248 -289t-248 289zM127 977q0 -127 49 -195.5t168 -68.5t168 68.5t49 195.5v176q0 127 -49 195.5t-168 68.5t-168 -68.5t-49 -195.5v-176z" />
<glyph unicode="&#xbb;" horiz-adv-x="1019" d="M86 246v41l406 325l-406 326v41l455 -352v-29zM479 246v41l406 325l-406 326v41l455 -352v-29z" />
<glyph unicode="&#xbc;" horiz-adv-x="1947" d="M156 1303l305 131h26v-899h187v-33h-461v33h242v862l-287 -123zM737 -162l518 1757h35l-518 -1757h-35zM1188 219v25l299 688h35l-295 -680h399v338h33v-338h129v-33h-129v-219h-33v219h-438z" />
<glyph unicode="&#xbd;" horiz-adv-x="1947" d="M156 1303l305 131h26v-899h187v-33h-461v33h242v862l-287 -123zM737 -162l518 1757h35l-518 -1757h-35zM1257 856q120 86 244 86q136 0 205.5 -62t69.5 -163q0 -54 -26.5 -104t-69 -90.5t-93.5 -79.5t-102 -79t-93.5 -81.5t-69 -94t-26.5 -110.5v-45h486v-33h-518v78 q0 61 26.5 117t68.5 100t93.5 85t102.5 80t93 77.5t68.5 85t26.5 94.5q0 87 -64 139.5t-180 52.5q-117 0 -223 -82z" />
<glyph unicode="&#xbe;" horiz-adv-x="1947" d="M135 575l19 27q115 -80 227 -80q264 0 264 221q0 122 -69 173t-195 51h-84v32h84q63 0 109 17t71 46.5t36 62t11 69.5q0 113 -62 165t-165 52q-57 0 -104.5 -19t-106.5 -59l-18 25q120 86 231 86q115 0 187.5 -61.5t72.5 -188.5q0 -80 -40 -134.5t-118 -74.5 q191 -30 191 -242q0 -57 -13.5 -100.5t-45 -79.5t-90.5 -55t-144 -19q-138 0 -248 86zM737 -162l518 1757h35l-518 -1757h-35zM1188 219v25l299 688h35l-295 -680h399v338h33v-338h129v-33h-129v-219h-33v219h-438z" />
<glyph unicode="&#xbf;" horiz-adv-x="931" d="M84 -18q0 65 16 119t43 92t61.5 70t73 58t77.5 51t73.5 53.5t61.5 61.5t43 79t16 102v145h35v-145q0 -75 -26 -134.5t-67 -99t-90.5 -73.5t-99.5 -68t-91 -73.5t-67 -100t-26 -137.5q0 -142 94 -215.5t260 -73.5q113 0 198 28.5t162 81.5l19 -24q-80 -54 -167.5 -86.5 t-211.5 -32.5q-187 0 -287 83t-100 239zM530 1036v74h62v-74h-62z" />
<glyph unicode="&#xc0;" horiz-adv-x="1138" d="M72 0l479 1434h33l483 -1434h-41l-158 479h-598l-157 -479h-41zM283 514h573l-289 862zM426 1907h45l123 -326h-29z" />
<glyph unicode="&#xc1;" horiz-adv-x="1138" d="M72 0l479 1434h33l483 -1434h-41l-158 479h-598l-157 -479h-41zM283 514h573l-289 862zM537 1581l122 326h46l-140 -326h-28z" />
<glyph unicode="&#xc2;" horiz-adv-x="1138" d="M72 0l479 1434h33l483 -1434h-41l-158 479h-598l-157 -479h-41zM283 514h573l-289 862zM307 1581l248 326h29l247 -326h-36l-226 283l-225 -283h-37z" />
<glyph unicode="&#xc3;" horiz-adv-x="1138" d="M72 0l479 1434h33l483 -1434h-41l-158 479h-598l-157 -479h-41zM274 1663q39 66 73.5 95.5t82.5 29.5q37 0 74.5 -18.5t64 -41t64 -41t74.5 -18.5q31 0 56.5 17t38.5 34.5t36 55.5l26 -17q-39 -66 -73.5 -95.5t-81.5 -29.5q-42 0 -82.5 18.5t-67.5 41t-61.5 41 t-65.5 18.5q-24 0 -42.5 -7.5t-35.5 -25.5t-26.5 -31.5t-26.5 -41.5zM283 514h573l-289 862z" />
<glyph unicode="&#xc4;" horiz-adv-x="1138" d="M72 0l479 1434h33l483 -1434h-41l-158 479h-598l-157 -479h-41zM283 514h573l-289 862zM379 1675v70h65v-70h-65zM692 1675v70h66v-70h-66z" />
<glyph unicode="&#xc5;" horiz-adv-x="1138" d="M72 0l479 1434h33l483 -1434h-41l-158 479h-598l-157 -479h-41zM283 514h573l-289 862zM375 1741q0 89 53 139.5t141 50.5t141.5 -50.5t53.5 -139.5q0 -90 -53.5 -140.5t-141.5 -50.5t-141 50t-53 141zM403 1741q0 -77 43.5 -119.5t122.5 -42.5t122.5 42.5t43.5 119.5 t-43.5 119.5t-122.5 42.5t-122.5 -42.5t-43.5 -119.5z" />
<glyph unicode="&#xc6;" horiz-adv-x="1583" d="M72 0l481 1434h909v-33h-868l211 -633h625v-33h-613l234 -702h411v-33h-438l-160 479h-594l-157 -479h-41zM283 512h571l-287 864z" />
<glyph unicode="&#xc7;" horiz-adv-x="1120" d="M154 453v528q0 469 424 469q57 0 107 -11t84.5 -24.5t67.5 -40.5t51 -45t39.5 -52.5t28.5 -48.5l23 -46l-27 -15q-24 46 -41 74t-49.5 65.5t-68 58.5t-91.5 36.5t-124 15.5q-390 0 -390 -446v-508q0 -447 390 -447q73 0 131.5 15.5t95 37.5t67.5 58t46.5 64t33.5 69 l29 -14q-41 -90 -77 -133q-106 -126 -316 -129l-27 -136q30 9 66 9q149 0 149 -121q0 -70 -37 -104.5t-123 -34.5q-59 0 -133 24l9 29q74 -21 122 -21q70 0 98.5 23.5t28.5 83.5q0 49 -29 69.5t-87 20.5q-43 0 -76 -10l-23 14l31 154q-403 11 -403 469z" />
<glyph unicode="&#xc8;" horiz-adv-x="1007" d="M205 0v1434h682v-33h-647v-633h614v-33h-614v-702h647v-33h-682zM430 1907h45l123 -326h-29z" />
<glyph unicode="&#xc9;" horiz-adv-x="1007" d="M205 0v1434h682v-33h-647v-633h614v-33h-614v-702h647v-33h-682zM512 1581l123 326h45l-139 -326h-29z" />
<glyph unicode="&#xca;" horiz-adv-x="1007" d="M205 0v1434h682v-33h-647v-633h614v-33h-614v-702h647v-33h-682zM289 1581l248 326h28l248 -326h-37l-225 283l-225 -283h-37z" />
<glyph unicode="&#xcb;" horiz-adv-x="1007" d="M205 0v1434h682v-33h-647v-633h614v-33h-614v-702h647v-33h-682zM354 1675v70h66v-70h-66zM668 1675v70h65v-70h-65z" />
<glyph unicode="&#xcc;" horiz-adv-x="444" d="M92 1907h45l123 -326h-29zM205 0v1434h35v-1434h-35z" />
<glyph unicode="&#xcd;" horiz-adv-x="444" d="M188 1581l123 326h45l-139 -326h-29zM205 0v1434h35v-1434h-35z" />
<glyph unicode="&#xce;" horiz-adv-x="444" d="M-37 1581l248 326h29l247 -326h-36l-226 283l-225 -283h-37zM205 0v1434h35v-1434h-35z" />
<glyph unicode="&#xcf;" horiz-adv-x="444" d="M35 1675v70h65v-70h-65zM205 0v1434h35v-1434h-35zM348 1675v70h66v-70h-66z" />
<glyph unicode="&#xd0;" horiz-adv-x="1204" d="M80 713v30h125v691h344q274 0 405 -176t131 -541t-131 -541t-405 -176h-344v713h-125zM240 33h309q261 0 381.5 172.5t120.5 511.5t-120.5 511.5t-381.5 172.5h-309v-658h403v-30h-403v-680z" />
<glyph unicode="&#xd1;" horiz-adv-x="1269" d="M195 0v1434h26l819 -1362v1362h35v-1434h-31l-817 1354v-1354h-32zM340 1663q39 66 73.5 95.5t82.5 29.5q37 0 74.5 -18.5t63.5 -41t63.5 -41t74.5 -18.5q31 0 56.5 17t38.5 34.5t36 55.5l27 -17q-39 -66 -73.5 -95.5t-82.5 -29.5q-42 0 -82.5 18.5t-67 41t-61 41 t-65.5 18.5q-24 0 -42.5 -7.5t-35.5 -25.5t-26.5 -31.5t-26.5 -41.5z" />
<glyph unicode="&#xd2;" horiz-adv-x="1167" d="M154 455v526q0 108 24 192.5t74.5 147t134 96t197.5 33.5t197.5 -33.5t134 -96t74.5 -147t24 -192.5v-526q0 -222 -104 -346.5t-326 -124.5t-326 124.5t-104 346.5zM188 465q0 -449 396 -449q395 0 395 449v506q0 446 -395 446q-396 0 -396 -446v-506zM453 1907h45 l123 -326h-29z" />
<glyph unicode="&#xd3;" horiz-adv-x="1167" d="M154 455v526q0 108 24 192.5t74.5 147t134 96t197.5 33.5t197.5 -33.5t134 -96t74.5 -147t24 -192.5v-526q0 -222 -104 -346.5t-326 -124.5t-326 124.5t-104 346.5zM188 465q0 -449 396 -449q395 0 395 449v506q0 446 -395 446q-396 0 -396 -446v-506zM516 1581l123 326 h45l-139 -326h-29z" />
<glyph unicode="&#xd4;" horiz-adv-x="1167" d="M154 455v526q0 108 24 192.5t74.5 147t134 96t197.5 33.5t197.5 -33.5t134 -96t74.5 -147t24 -192.5v-526q0 -222 -104 -346.5t-326 -124.5t-326 124.5t-104 346.5zM188 465q0 -449 396 -449q395 0 395 449v506q0 446 -395 446q-396 0 -396 -446v-506zM326 1581l247 326 h29l248 -326h-37l-225 283l-226 -283h-36z" />
<glyph unicode="&#xd5;" horiz-adv-x="1167" d="M154 455v526q0 108 24 192.5t74.5 147t134 96t197.5 33.5t197.5 -33.5t134 -96t74.5 -147t24 -192.5v-526q0 -222 -104 -346.5t-326 -124.5t-326 124.5t-104 346.5zM188 465q0 -449 396 -449q395 0 395 449v506q0 446 -395 446q-396 0 -396 -446v-506zM289 1663 q39 66 73.5 95.5t81.5 29.5q37 0 74.5 -18.5t64 -41t64 -41t74.5 -18.5q31 0 56.5 17t38.5 34.5t36 55.5l27 -17q-39 -66 -73.5 -95.5t-82.5 -29.5q-42 0 -82.5 18.5t-67.5 41t-61.5 41t-65.5 18.5q-24 0 -42.5 -7.5t-35.5 -25.5t-26.5 -31.5t-26.5 -41.5z" />
<glyph unicode="&#xd6;" horiz-adv-x="1167" d="M154 455v526q0 108 24 192.5t74.5 147t134 96t197.5 33.5t197.5 -33.5t134 -96t74.5 -147t24 -192.5v-526q0 -222 -104 -346.5t-326 -124.5t-326 124.5t-104 346.5zM188 465q0 -449 396 -449q395 0 395 449v506q0 446 -395 446q-396 0 -396 -446v-506zM393 1675v70h66 v-70h-66zM707 1675v70h65v-70h-65z" />
<glyph unicode="&#xd7;" horiz-adv-x="968" d="M135 295l318 313l-318 316l25 24l317 -315l320 315l24 -24l-319 -316l319 -313l-24 -25l-320 314l-317 -314z" />
<glyph unicode="&#xd8;" horiz-adv-x="1167" d="M154 455v526q0 108 24 192.5t74.5 147t134 96t197.5 33.5q147 0 247 -59l48 116h34l-53 -135q154 -116 154 -391v-526q0 -222 -104 -346.5t-326 -124.5q-151 0 -250 61l-47 -119h-35l53 135q-151 117 -151 394zM188 465q0 -258 131 -369l500 1262q-94 59 -235 59 q-396 0 -396 -446v-506zM346 78q94 -62 238 -62q395 0 395 449v506q0 258 -133 366z" />
<glyph unicode="&#xd9;" horiz-adv-x="1159" d="M154 428v1006h34v-996q0 -209 92 -315.5t300 -106.5q209 0 300 106t91 316v996h35v-1006q0 -219 -100.5 -331.5t-325.5 -112.5t-325.5 112.5t-100.5 331.5zM449 1907h45l122 -326h-28z" />
<glyph unicode="&#xda;" horiz-adv-x="1159" d="M154 428v1006h34v-996q0 -209 92 -315.5t300 -106.5q209 0 300 106t91 316v996h35v-1006q0 -219 -100.5 -331.5t-325.5 -112.5t-325.5 112.5t-100.5 331.5zM514 1581l123 326h45l-139 -326h-29z" />
<glyph unicode="&#xdb;" horiz-adv-x="1159" d="M154 428v1006h34v-996q0 -209 92 -315.5t300 -106.5q209 0 300 106t91 316v996h35v-1006q0 -219 -100.5 -331.5t-325.5 -112.5t-325.5 112.5t-100.5 331.5zM326 1581l247 326h29l248 -326h-37l-225 283l-226 -283h-36z" />
<glyph unicode="&#xdc;" horiz-adv-x="1159" d="M154 428v1006h34v-996q0 -209 92 -315.5t300 -106.5q209 0 300 106t91 316v996h35v-1006q0 -219 -100.5 -331.5t-325.5 -112.5t-325.5 112.5t-100.5 331.5zM389 1675v70h66v-70h-66zM702 1675v70h66v-70h-66z" />
<glyph unicode="&#xdd;" horiz-adv-x="1120" d="M61 1434h41l443 -799l440 799h41l-465 -838v-596h-35v596zM520 1581l123 326h45l-139 -326h-29z" />
<glyph unicode="&#xde;" horiz-adv-x="1079" d="M205 0v1434h35v-248h282q108 0 189 -20t132 -55t83 -88.5t44.5 -114t12.5 -138.5q0 -97 -21 -168.5t-71 -129t-142.5 -87t-226.5 -29.5h-282v-356h-35zM240 389h282q103 0 179.5 20t123 53.5t75 84t38.5 103.5t10 120q0 68 -10.5 121.5t-38.5 104t-74.5 84t-123 53.5 t-179.5 20h-282v-764z" />
<glyph unicode="&#xdf;" horiz-adv-x="1140" d="M184 0v1227q0 140 93 225.5t262 85.5q184 0 275 -80.5t91 -230.5q0 -124 -48 -195t-148 -96q130 -29 196 -125t66 -252v-164q0 -87 -20.5 -157t-63.5 -124.5t-116.5 -84t-172.5 -29.5h-227v33h227q94 0 161 27t105 78t55 116t17 149v148q0 367 -344 367h-150v32h150 q44 0 79.5 5.5t74.5 22.5t64.5 46.5t42.5 81t17 121.5q0 278 -331 278q-153 0 -236.5 -76t-83.5 -196v-1233h-35z" />
<glyph unicode="&#xe0;" horiz-adv-x="1024" d="M125 287q0 88 34.5 158.5t96 118t150 79t192.5 45.5t227 14v107q0 148 -82 220.5t-233 72.5q-155 0 -315 -90l-15 30q169 93 330 93q350 0 350 -334v-801h-29l-6 190q-41 -88 -130.5 -147t-221.5 -59q-163 0 -255.5 83t-92.5 220zM160 287q0 -124 85 -197.5t236 -73.5 q60 0 114 17t91.5 43t67 59t46.5 64t25 59v412q-147 0 -265 -21t-209.5 -65.5t-141 -119.5t-49.5 -177zM395 1599h45l123 -325h-28z" />
<glyph unicode="&#xe1;" horiz-adv-x="1024" d="M125 287q0 88 34.5 158.5t96 118t150 79t192.5 45.5t227 14v107q0 148 -82 220.5t-233 72.5q-155 0 -315 -90l-15 30q169 93 330 93q350 0 350 -334v-801h-29l-6 190q-41 -88 -130.5 -147t-221.5 -59q-163 0 -255.5 83t-92.5 220zM160 287q0 -124 85 -197.5t236 -73.5 q60 0 114 17t91.5 43t67 59t46.5 64t25 59v412q-147 0 -265 -21t-209.5 -65.5t-141 -119.5t-49.5 -177zM473 1274l123 325h45l-139 -325h-29z" />
<glyph unicode="&#xe2;" horiz-adv-x="1024" d="M125 287q0 88 34.5 158.5t96 118t150 79t192.5 45.5t227 14v107q0 148 -82 220.5t-233 72.5q-155 0 -315 -90l-15 30q169 93 330 93q350 0 350 -334v-801h-29l-6 190q-41 -88 -130.5 -147t-221.5 -59q-163 0 -255.5 83t-92.5 220zM160 287q0 -124 85 -197.5t236 -73.5 q60 0 114 17t91.5 43t67 59t46.5 64t25 59v412q-147 0 -265 -21t-209.5 -65.5t-141 -119.5t-49.5 -177zM256 1274l248 325h28l248 -325h-37l-225 282l-225 -282h-37z" />
<glyph unicode="&#xe3;" horiz-adv-x="1024" d="M125 287q0 88 34.5 158.5t96 118t150 79t192.5 45.5t227 14v107q0 148 -82 220.5t-233 72.5q-155 0 -315 -90l-15 30q169 93 330 93q350 0 350 -334v-801h-29l-6 190q-41 -88 -130.5 -147t-221.5 -59q-163 0 -255.5 83t-92.5 220zM160 287q0 -124 85 -197.5t236 -73.5 q60 0 114 17t91.5 43t67 59t46.5 64t25 59v412q-147 0 -265 -21t-209.5 -65.5t-141 -119.5t-49.5 -177zM217 1356q39 66 73.5 95.5t82.5 29.5q37 0 74.5 -18.5t63.5 -41t63.5 -41t74.5 -18.5q24 0 42.5 7.5t35.5 25.5t26.5 31.5t26.5 41.5l27 -16q-39 -66 -73.5 -95.5 t-82.5 -29.5q-42 0 -82.5 18.5t-67 41t-61 41t-65.5 18.5t-56.5 -17t-38.5 -34.5t-36 -55.5z" />
<glyph unicode="&#xe4;" horiz-adv-x="1024" d="M125 287q0 88 34.5 158.5t96 118t150 79t192.5 45.5t227 14v107q0 148 -82 220.5t-233 72.5q-155 0 -315 -90l-15 30q169 93 330 93q350 0 350 -334v-801h-29l-6 190q-41 -88 -130.5 -147t-221.5 -59q-163 0 -255.5 83t-92.5 220zM160 287q0 -124 85 -197.5t236 -73.5 q60 0 114 17t91.5 43t67 59t46.5 64t25 59v412q-147 0 -265 -21t-209.5 -65.5t-141 -119.5t-49.5 -177zM346 1368v70h66v-70h-66zM659 1368v70h66v-70h-66z" />
<glyph unicode="&#xe5;" horiz-adv-x="1024" d="M125 287q0 88 34.5 158.5t96 118t150 79t192.5 45.5t227 14v107q0 148 -82 220.5t-233 72.5q-155 0 -315 -90l-15 30q169 93 330 93q350 0 350 -334v-801h-29l-6 190q-41 -88 -130.5 -147t-221.5 -59q-163 0 -255.5 83t-92.5 220zM160 287q0 -124 85 -197.5t236 -73.5 q60 0 114 17t91.5 43t67 59t46.5 64t25 59v412q-147 0 -265 -21t-209.5 -65.5t-141 -119.5t-49.5 -177zM334 1434q0 89 53 139.5t141 50.5t141.5 -50.5t53.5 -139.5q0 -90 -53.5 -140.5t-141.5 -50.5t-141 50t-53 141zM362 1434q0 -77 43.5 -119.5t122.5 -42.5t122.5 42.5 t43.5 119.5t-43.5 119t-122.5 42t-122.5 -42t-43.5 -119z" />
<glyph unicode="&#xe6;" horiz-adv-x="1677" d="M125 287q0 88 34.5 158.5t96 118t150 79t192.5 45.5t227 14v107q0 148 -82 220.5t-233 72.5q-155 0 -315 -90l-15 30q169 93 330 93q292 0 340 -234q73 234 344 234q101 0 173.5 -30.5t115 -88.5t62.5 -135.5t20 -178.5v-161h-705v-117q0 -95 17 -167t55 -127.5 t105 -84.5t161 -29q178 0 330 97l16 -29q-165 -100 -346 -100q-149 0 -234 66.5t-120 197.5q-34 -116 -130 -190t-241 -74q-163 0 -255.5 83t-92.5 220zM160 287q0 -124 85 -197.5t236 -73.5q102 0 182 48t121 123.5t41 162.5v320q-147 0 -265 -21t-209.5 -65.5t-141 -119.5 t-49.5 -177zM860 573h672v121q0 96 -16.5 167.5t-54.5 127.5t-105 84.5t-162 28.5q-181 0 -257.5 -106t-76.5 -302v-121z" />
<glyph unicode="&#xe7;" horiz-adv-x="874" d="M123 416v286q0 209 87.5 321t283.5 112q61 0 111.5 -13.5t87 -39t60.5 -50.5t48 -59l-27 -19q-51 73 -117 110.5t-163 37.5q-182 0 -259 -106t-77 -302v-270q0 -95 17 -167t55 -127.5t105 -84.5t161 -29q95 0 160.5 31.5t123.5 106.5l25 -19q-57 -79 -129 -115t-182 -36 l-29 -136q30 9 65 9q150 0 150 -121q0 -70 -37 -104.5t-123 -34.5q-59 0 -133 24l8 29q73 -21 123 -21q70 0 98.5 23.5t28.5 83.5q0 49 -29.5 69.5t-87.5 20.5q-42 0 -75 -10l-23 14l31 156q-179 10 -258.5 120.5t-79.5 309.5z" />
<glyph unicode="&#xe8;" horiz-adv-x="974" d="M123 416v286q0 208 87 320.5t282 112.5q101 0 173 -30.5t115 -88.5t62.5 -135.5t19.5 -178.5v-161h-704v-117q0 -95 17 -167t55 -127.5t105 -84.5t161 -29q177 0 329 97l17 -29q-165 -100 -346 -100q-104 0 -178 31.5t-116 91t-60.5 135t-18.5 174.5zM158 573h671v121 q0 76 -10 136.5t-34 112.5t-62 86t-96 53.5t-135 19.5q-181 0 -257.5 -106t-76.5 -302v-121zM367 1599h45l123 -325h-29z" />
<glyph unicode="&#xe9;" horiz-adv-x="974" d="M123 416v286q0 208 87 320.5t282 112.5q101 0 173 -30.5t115 -88.5t62.5 -135.5t19.5 -178.5v-161h-704v-117q0 -95 17 -167t55 -127.5t105 -84.5t161 -29q177 0 329 97l17 -29q-165 -100 -346 -100q-104 0 -178 31.5t-116 91t-60.5 135t-18.5 174.5zM158 573h671v121 q0 76 -10 136.5t-34 112.5t-62 86t-96 53.5t-135 19.5q-181 0 -257.5 -106t-76.5 -302v-121zM438 1274l123 325h45l-139 -325h-29z" />
<glyph unicode="&#xea;" horiz-adv-x="974" d="M123 416v286q0 208 87 320.5t282 112.5q101 0 173 -30.5t115 -88.5t62.5 -135.5t19.5 -178.5v-161h-704v-117q0 -95 17 -167t55 -127.5t105 -84.5t161 -29q177 0 329 97l17 -29q-165 -100 -346 -100q-104 0 -178 31.5t-116 91t-60.5 135t-18.5 174.5zM158 573h671v121 q0 76 -10 136.5t-34 112.5t-62 86t-96 53.5t-135 19.5q-181 0 -257.5 -106t-76.5 -302v-121zM242 1274l247 325h29l248 -325h-37l-225 282l-225 -282h-37z" />
<glyph unicode="&#xeb;" horiz-adv-x="974" d="M123 416v286q0 208 87 320.5t282 112.5q101 0 173 -30.5t115 -88.5t62.5 -135.5t19.5 -178.5v-161h-704v-117q0 -95 17 -167t55 -127.5t105 -84.5t161 -29q177 0 329 97l17 -29q-165 -100 -346 -100q-104 0 -178 31.5t-116 91t-60.5 135t-18.5 174.5zM158 573h671v121 q0 76 -10 136.5t-34 112.5t-62 86t-96 53.5t-135 19.5q-181 0 -257.5 -106t-76.5 -302v-121zM311 1368v70h66v-70h-66zM625 1368v70h65v-70h-65z" />
<glyph unicode="&#xec;" horiz-adv-x="403" d="M68 1599h45l123 -325h-29zM184 0v1118h35v-1118h-35z" />
<glyph unicode="&#xed;" horiz-adv-x="403" d="M160 1274l123 325h45l-140 -325h-28zM184 0v1118h35v-1118h-35z" />
<glyph unicode="&#xee;" horiz-adv-x="403" d="M-59 1274l247 325h29l248 -325h-37l-225 282l-226 -282h-36zM184 0v1118h35v-1118h-35z" />
<glyph unicode="&#xef;" horiz-adv-x="403" d="M14 1368v70h66v-70h-66zM184 0v1118h35v-1118h-35zM328 1368v70h65v-70h-65z" />
<glyph unicode="&#xf0;" horiz-adv-x="987" d="M123 416v164q0 432 371 432q134 0 218 -57t117 -162v204q0 221 -124 326l-181 -178l-22 22l176 176q-92 64 -225 64q-103 0 -199 -47l-12 29q108 51 211 51q149 0 252 -70l124 125l23 -25q-4 -3 -123 -122q135 -117 135 -357v-575q0 -208 -86.5 -320t-283.5 -112 q-371 0 -371 432zM158 424q0 -95 17 -167t55 -127.5t104 -84.5t160 -29q183 0 259 105.5t76 302.5v147q0 197 -76 302.5t-259 105.5q-94 0 -160 -29t-104 -84.5t-55 -127.5t-17 -167v-147z" />
<glyph unicode="&#xf1;" horiz-adv-x="1097" d="M184 0v1118h29l6 -166q189 183 406 183q150 0 224.5 -82.5t74.5 -216.5v-836h-35v807q0 142 -65.5 218.5t-215.5 76.5q-197 0 -389 -187v-915h-35zM260 1356q39 66 73.5 95.5t82.5 29.5q37 0 74.5 -18.5t63.5 -41t63.5 -41t74.5 -18.5q24 0 42.5 7.5t35.5 25.5t26.5 31.5 t26.5 41.5l27 -16q-39 -66 -73.5 -95.5t-82.5 -29.5q-42 0 -82.5 18.5t-67 41t-61 41t-65.5 18.5t-56.5 -17t-38.5 -34.5t-36 -55.5z" />
<glyph unicode="&#xf2;" horiz-adv-x="987" d="M123 416v286q0 433 371 433q101 0 173 -30.5t115 -88.5t62.5 -135.5t19.5 -178.5v-286q0 -208 -86.5 -320t-283.5 -112q-371 0 -371 432zM158 424q0 -95 17 -167t55 -127.5t104 -84.5t160 -29q183 0 259 105.5t76 302.5v270q0 197 -76 302.5t-259 105.5q-182 0 -259 -106 t-77 -302v-270zM362 1599h46l122 -325h-28z" />
<glyph unicode="&#xf3;" horiz-adv-x="987" d="M123 416v286q0 433 371 433q101 0 173 -30.5t115 -88.5t62.5 -135.5t19.5 -178.5v-286q0 -208 -86.5 -320t-283.5 -112q-371 0 -371 432zM158 424q0 -95 17 -167t55 -127.5t104 -84.5t160 -29q183 0 259 105.5t76 302.5v270q0 197 -76 302.5t-259 105.5q-182 0 -259 -106 t-77 -302v-270zM444 1274l123 325h45l-139 -325h-29z" />
<glyph unicode="&#xf4;" horiz-adv-x="987" d="M123 416v286q0 433 371 433q101 0 173 -30.5t115 -88.5t62.5 -135.5t19.5 -178.5v-286q0 -208 -86.5 -320t-283.5 -112q-371 0 -371 432zM158 424q0 -95 17 -167t55 -127.5t104 -84.5t160 -29q183 0 259 105.5t76 302.5v270q0 197 -76 302.5t-259 105.5q-182 0 -259 -106 t-77 -302v-270zM238 1274l247 325h29l248 -325h-37l-225 282l-226 -282h-36z" />
<glyph unicode="&#xf5;" horiz-adv-x="987" d="M123 416v286q0 433 371 433q101 0 173 -30.5t115 -88.5t62.5 -135.5t19.5 -178.5v-286q0 -208 -86.5 -320t-283.5 -112q-371 0 -371 432zM158 424q0 -95 17 -167t55 -127.5t104 -84.5t160 -29q183 0 259 105.5t76 302.5v270q0 197 -76 302.5t-259 105.5q-182 0 -259 -106 t-77 -302v-270zM199 1356q39 66 73.5 95.5t81.5 29.5q37 0 74.5 -18.5t64 -41t64 -41t74.5 -18.5q24 0 42.5 7.5t35.5 25.5t26.5 31.5t26.5 41.5l26 -16q-39 -66 -73.5 -95.5t-81.5 -29.5q-42 0 -82.5 18.5t-67.5 41t-61.5 41t-65.5 18.5t-56.5 -17t-38.5 -34.5t-36 -55.5z " />
<glyph unicode="&#xf6;" horiz-adv-x="987" d="M123 416v286q0 433 371 433q101 0 173 -30.5t115 -88.5t62.5 -135.5t19.5 -178.5v-286q0 -208 -86.5 -320t-283.5 -112q-371 0 -371 432zM158 424q0 -95 17 -167t55 -127.5t104 -84.5t160 -29q183 0 259 105.5t76 302.5v270q0 197 -76 302.5t-259 105.5q-182 0 -259 -106 t-77 -302v-270zM309 1368v70h66v-70h-66zM623 1368v70h65v-70h-65z" />
<glyph unicode="&#xf7;" horiz-adv-x="940" d="M20 588v35h900v-35h-900zM432 305q0 39 37 39t37 -39t-37 -39t-37 39zM432 905q0 39 37 39t37 -39t-37 -39t-37 39z" />
<glyph unicode="&#xf8;" horiz-adv-x="987" d="M123 416v286q0 433 371 433q108 0 188 -39l41 104h35l-47 -119q153 -96 153 -379v-286q0 -208 -86.5 -320t-283.5 -112q-118 0 -195 41l-39 -99h-35l45 115q-147 100 -147 375zM158 424q0 -255 125 -350l387 991q-76 37 -176 37q-182 0 -259 -106t-77 -302v-270zM311 55 q73 -39 183 -39q183 0 259 105.5t76 302.5v270q0 262 -131 355z" />
<glyph unicode="&#xf9;" horiz-adv-x="1089" d="M174 283v835h35v-807q0 -295 283 -295q197 0 389 187v915h34v-1118h-28l-6 166q-188 -182 -406 -182q-150 0 -225.5 82.5t-75.5 216.5zM424 1599h45l123 -325h-29z" />
<glyph unicode="&#xfa;" horiz-adv-x="1089" d="M174 283v835h35v-807q0 -295 283 -295q197 0 389 187v915h34v-1118h-28l-6 166q-188 -182 -406 -182q-150 0 -225.5 82.5t-75.5 216.5zM496 1274l122 325h46l-140 -325h-28z" />
<glyph unicode="&#xfb;" horiz-adv-x="1089" d="M174 283v835h35v-807q0 -295 283 -295q197 0 389 187v915h34v-1118h-28l-6 166q-188 -182 -406 -182q-150 0 -225.5 82.5t-75.5 216.5zM293 1274l248 325h28l248 -325h-37l-225 282l-225 -282h-37z" />
<glyph unicode="&#xfc;" horiz-adv-x="1089" d="M174 283v835h35v-807q0 -295 283 -295q197 0 389 187v915h34v-1118h-28l-6 166q-188 -182 -406 -182q-150 0 -225.5 82.5t-75.5 216.5zM362 1368v70h66v-70h-66zM676 1368v70h65v-70h-65z" />
<glyph unicode="&#xfd;" horiz-adv-x="956" d="M63 1118h41l363 -1069l358 1069h39l-518 -1532h-39l139 408zM434 1274l123 325h45l-139 -325h-29z" />
<glyph unicode="&#xfe;" horiz-adv-x="1048" d="M184 -414v1950h35v-578q52 68 144.5 122.5t218.5 54.5q344 0 344 -406v-340q0 -405 -344 -405q-126 0 -218.5 54t-144.5 122v-574h-35zM219 203q64 -82 152.5 -134.5t195.5 -52.5q172 0 248 95.5t76 285.5v324q0 190 -76 285.5t-248 95.5q-107 0 -195.5 -52.5 t-152.5 -134.5v-712z" />
<glyph unicode="&#xff;" horiz-adv-x="925" d="M63 1118h41l363 -1069l358 1069h39l-518 -1532h-39l139 408zM276 1368v70h66v-70h-66zM590 1368v70h65v-70h-65z" />
<glyph unicode="&#x100;" horiz-adv-x="1136" d="M72 0l479 1434h33l483 -1434h-41l-158 479h-598l-157 -479h-41zM283 514h573l-289 862zM334 1743v33h477v-33h-477z" />
<glyph unicode="&#x101;" horiz-adv-x="1024" d="M125 287q0 88 34.5 158.5t96 118t150 79t192.5 45.5t227 14v107q0 148 -82 220.5t-233 72.5q-155 0 -315 -90l-15 30q169 93 330 93q350 0 350 -334v-801h-29l-6 190q-41 -88 -130.5 -147t-221.5 -59q-163 0 -255.5 83t-92.5 220zM160 287q0 -124 85 -197.5t236 -73.5 q60 0 114 17t91.5 43t67 59t46.5 64t25 59v412q-147 0 -265 -21t-209.5 -65.5t-141 -119.5t-49.5 -177zM279 1436v32h477v-32h-477z" />
<glyph unicode="&#x102;" horiz-adv-x="1136" d="M72 0l479 1434h33l483 -1434h-41l-158 479h-598l-157 -479h-41zM283 514h573l-289 862zM324 1858v24h30v-24q0 -98 60.5 -139.5t156.5 -41.5t156.5 41.5t60.5 139.5v24h31v-24q0 -58 -20.5 -101t-57 -66.5t-78.5 -34.5t-92 -11q-106 0 -176.5 50.5t-70.5 162.5z" />
<glyph unicode="&#x103;" horiz-adv-x="1024" d="M125 287q0 88 34.5 158.5t96 118t150 79t192.5 45.5t227 14v107q0 148 -82 220.5t-233 72.5q-155 0 -315 -90l-15 30q169 93 330 93q350 0 350 -334v-801h-29l-6 190q-41 -88 -130.5 -147t-221.5 -59q-163 0 -255.5 83t-92.5 220zM160 287q0 -124 85 -197.5t236 -73.5 q60 0 114 17t91.5 43t67 59t46.5 64t25 59v412q-147 0 -265 -21t-209.5 -65.5t-141 -119.5t-49.5 -177zM272 1550v25h31v-25q0 -180 217 -180t217 180v25h31v-25q0 -58 -20.5 -101t-57 -66.5t-78.5 -34.5t-92 -11t-92 11t-78.5 34.5t-57 66.5t-20.5 101z" />
<glyph unicode="&#x104;" horiz-adv-x="1138" d="M72 0l479 1434h33l483 -1434q-98 -41 -162.5 -111.5t-64.5 -146.5q0 -61 33.5 -87t84.5 -26q44 0 101 23l8 -27q-58 -28 -111 -28q-65 0 -108 33t-43 110q0 85 60 154.5t157 117.5l-154 467h-598l-157 -479h-41zM283 514h573l-289 862z" />
<glyph unicode="&#x105;" horiz-adv-x="1024" d="M125 287q0 88 34.5 158.5t96 118t150 79t192.5 45.5t227 14v107q0 148 -82 220.5t-233 72.5q-155 0 -315 -90l-15 30q169 93 330 93q350 0 350 -334v-801q-98 -41 -162.5 -111.5t-64.5 -146.5q0 -113 119 -113q42 0 100 23l8 -27q-58 -28 -110 -28q-66 0 -109 33t-43 110 q0 86 62.5 158t168.5 120l-4 172q-41 -88 -130.5 -147t-221.5 -59q-163 0 -255.5 83t-92.5 220zM160 287q0 -124 85 -197.5t236 -73.5q60 0 114 17t91.5 43t67 59t46.5 64t25 59v412q-147 0 -265 -21t-209.5 -65.5t-141 -119.5t-49.5 -177z" />
<glyph unicode="&#x106;" horiz-adv-x="1099" d="M154 453v528q0 469 424 469q45 0 85.5 -6.5t71.5 -15.5t60 -26.5t49 -31t41 -37.5t32 -38t26 -40.5t20.5 -37.5l17.5 -35l-29 -15q-22 45 -40 74.5t-50 66t-68 58t-92 36.5t-124 15q-390 0 -390 -446v-508q0 -447 390 -447q73 0 131.5 15.5t95 37.5t67.5 58t46.5 64 t33.5 69l29 -14q-41 -91 -78 -134q-110 -128 -325 -128q-424 0 -424 469zM532 1581l123 326h45l-139 -326h-29z" />
<glyph unicode="&#x107;" horiz-adv-x="874" d="M123 416v286q0 209 87.5 321t283.5 112q61 0 111.5 -13.5t87 -39t60.5 -50.5t48 -59l-27 -19q-51 73 -117 110.5t-163 37.5q-182 0 -259 -106t-77 -302v-270q0 -95 17 -167t55 -127.5t105 -84.5t161 -29q95 0 160.5 31.5t123.5 106.5l25 -19q-57 -78 -129 -114.5 t-180 -36.5q-373 0 -373 432zM453 1274l122 325h46l-140 -325h-28z" />
<glyph unicode="&#x108;" horiz-adv-x="1099" d="M154 453v528q0 469 424 469q45 0 85.5 -6.5t71.5 -15.5t60 -26.5t49 -31t41 -37.5t32 -38t26 -40.5t20.5 -37.5l17.5 -35l-29 -15q-22 45 -40 74.5t-50 66t-68 58t-92 36.5t-124 15q-390 0 -390 -446v-508q0 -447 390 -447q73 0 131.5 15.5t95 37.5t67.5 58t46.5 64 t33.5 69l29 -14q-41 -91 -78 -134q-110 -128 -325 -128q-424 0 -424 469zM326 1581l247 326h29l248 -326h-37l-225 283l-226 -283h-36z" />
<glyph unicode="&#x109;" horiz-adv-x="874" d="M123 416v286q0 209 87.5 321t283.5 112q61 0 111.5 -13.5t87 -39t60.5 -50.5t48 -59l-27 -19q-51 73 -117 110.5t-163 37.5q-182 0 -259 -106t-77 -302v-270q0 -95 17 -167t55 -127.5t105 -84.5t161 -29q95 0 160.5 31.5t123.5 106.5l25 -19q-57 -78 -129 -114.5 t-180 -36.5q-373 0 -373 432zM240 1274l247 325h29l248 -325h-37l-225 282l-226 -282h-36z" />
<glyph unicode="&#x10a;" horiz-adv-x="1099" d="M154 453v528q0 469 424 469q45 0 85.5 -6.5t71.5 -15.5t60 -26.5t49 -31t41 -37.5t32 -38t26 -40.5t20.5 -37.5l17.5 -35l-29 -15q-22 45 -40 74.5t-50 66t-68 58t-92 36.5t-124 15q-390 0 -390 -446v-508q0 -447 390 -447q73 0 131.5 15.5t95 37.5t67.5 58t46.5 64 t33.5 69l29 -14q-41 -91 -78 -134q-110 -128 -325 -128q-424 0 -424 469zM551 1696v69h65v-69h-65z" />
<glyph unicode="&#x10b;" horiz-adv-x="872" d="M123 416v286q0 209 87.5 321t283.5 112q61 0 111.5 -13.5t87 -39t60.5 -50.5t48 -59l-27 -19q-51 73 -117 110.5t-163 37.5q-182 0 -259 -106t-77 -302v-270q0 -95 17 -167t55 -127.5t105 -84.5t161 -29q95 0 160.5 31.5t123.5 106.5l25 -19q-57 -78 -129 -114.5 t-180 -36.5q-373 0 -373 432zM465 1389v69h65v-69h-65z" />
<glyph unicode="&#x10c;" horiz-adv-x="1099" d="M154 453v528q0 469 424 469q45 0 85.5 -6.5t71.5 -15.5t60 -26.5t49 -31t41 -37.5t32 -38t26 -40.5t20.5 -37.5l17.5 -35l-29 -15q-22 45 -40 74.5t-50 66t-68 58t-92 36.5t-124 15q-390 0 -390 -446v-508q0 -447 390 -447q73 0 131.5 15.5t95 37.5t67.5 58t46.5 64 t33.5 69l29 -14q-41 -91 -78 -134q-110 -128 -325 -128q-424 0 -424 469zM324 1907h36l226 -283l225 283h37l-248 -326h-29z" />
<glyph unicode="&#x10d;" horiz-adv-x="874" d="M123 416v286q0 209 87.5 321t283.5 112q61 0 111.5 -13.5t87 -39t60.5 -50.5t48 -59l-27 -19q-51 73 -117 110.5t-163 37.5q-182 0 -259 -106t-77 -302v-270q0 -95 17 -167t55 -127.5t105 -84.5t161 -29q95 0 160.5 31.5t123.5 106.5l25 -19q-57 -78 -129 -114.5 t-180 -36.5q-373 0 -373 432zM221 1599h37l225 -282l226 282h36l-247 -325h-29z" />
<glyph unicode="&#x10e;" horiz-adv-x="1204" d="M205 0v1434h344q274 0 405 -176t131 -541t-131 -541t-405 -176h-344zM240 33h309q261 0 381.5 172.5t120.5 511.5t-120.5 511.5t-381.5 172.5h-309v-1368zM289 1907h37l225 -283l225 283h37l-248 -326h-28z" />
<glyph unicode="&#x10f;" horiz-adv-x="1048" d="M123 389v340q0 406 344 406q67 0 127.5 -17t105 -45.5t75.5 -56.5t54 -58v578h35v-1536h-28l-7 160q-52 -68 -144 -122t-218 -54q-344 0 -344 405zM158 397q0 -190 75.5 -285.5t247.5 -95.5q107 0 195.5 52.5t152.5 134.5v712q-64 82 -152.5 134.5t-195.5 52.5 q-172 0 -247.5 -95.5t-75.5 -285.5v-324zM950 1214l39 322h43l-53 -322h-29z" />
<glyph unicode="&#x110;" horiz-adv-x="1204" d="M80 713v30h125v691h344q274 0 405 -176t131 -541t-131 -541t-405 -176h-344v713h-125zM240 33h309q261 0 381.5 172.5t120.5 511.5t-120.5 511.5t-381.5 172.5h-309v-658h403v-30h-403v-680z" />
<glyph unicode="&#x111;" horiz-adv-x="1048" d="M123 389v340q0 406 344 406q67 0 127.5 -17t105 -45.5t75.5 -56.5t54 -58v353h-319v30h319v195h35v-195h168v-30h-168v-1311h-28l-7 160q-52 -68 -144 -122t-218 -54q-344 0 -344 405zM158 397q0 -190 75.5 -285.5t247.5 -95.5q107 0 195.5 52.5t152.5 134.5v712 q-64 82 -152.5 134.5t-195.5 52.5q-172 0 -247.5 -95.5t-75.5 -285.5v-324z" />
<glyph unicode="&#x112;" horiz-adv-x="1007" d="M205 0v1434h682v-33h-647v-633h614v-33h-614v-702h647v-33h-682zM328 1743v33h477v-33h-477z" />
<glyph unicode="&#x113;" horiz-adv-x="974" d="M123 416v286q0 208 87 320.5t282 112.5q101 0 173 -30.5t115 -88.5t62.5 -135.5t19.5 -178.5v-161h-704v-117q0 -95 17 -167t55 -127.5t105 -84.5t161 -29q177 0 329 97l17 -29q-165 -100 -346 -100q-104 0 -178 31.5t-116 91t-60.5 135t-18.5 174.5zM158 573h671v121 q0 76 -10 136.5t-34 112.5t-62 86t-96 53.5t-135 19.5q-181 0 -257.5 -106t-76.5 -302v-121zM262 1436v32h477v-32h-477z" />
<glyph unicode="&#x114;" horiz-adv-x="1007" d="M205 0v1434h682v-33h-647v-633h614v-33h-614v-702h647v-33h-682zM315 1858v24h31v-24q0 -98 60.5 -139.5t156.5 -41.5t156.5 41.5t60.5 139.5v24h31v-24q0 -58 -20.5 -101t-57 -66.5t-78.5 -34.5t-92 -11t-92 11t-78.5 34.5t-57 66.5t-20.5 101z" />
<glyph unicode="&#x115;" horiz-adv-x="974" d="M123 416v286q0 208 87 320.5t282 112.5q101 0 173 -30.5t115 -88.5t62.5 -135.5t19.5 -178.5v-161h-704v-117q0 -95 17 -167t55 -127.5t105 -84.5t161 -29q177 0 329 97l17 -29q-165 -100 -346 -100q-104 0 -178 31.5t-116 91t-60.5 135t-18.5 174.5zM158 573h671v121 q0 76 -10 136.5t-34 112.5t-62 86t-96 53.5t-135 19.5q-181 0 -257.5 -106t-76.5 -302v-121zM248 1550v25h31v-25q0 -180 217 -180t217 180v25h30v-25q0 -112 -70.5 -162.5t-176.5 -50.5q-50 0 -92 11t-78.5 34.5t-57 66.5t-20.5 101z" />
<glyph unicode="&#x116;" horiz-adv-x="1007" d="M205 0v1434h682v-33h-647v-633h614v-33h-614v-702h647v-33h-682zM528 1696v69h66v-69h-66z" />
<glyph unicode="&#x117;" horiz-adv-x="974" d="M123 416v286q0 208 87 320.5t282 112.5q101 0 173 -30.5t115 -88.5t62.5 -135.5t19.5 -178.5v-161h-704v-117q0 -95 17 -167t55 -127.5t105 -84.5t161 -29q177 0 329 97l17 -29q-165 -100 -346 -100q-104 0 -178 31.5t-116 91t-60.5 135t-18.5 174.5zM158 573h671v121 q0 76 -10 136.5t-34 112.5t-62 86t-96 53.5t-135 19.5q-181 0 -257.5 -106t-76.5 -302v-121zM465 1389v69h65v-69h-65z" />
<glyph unicode="&#x118;" horiz-adv-x="1007" d="M205 0v1434h682v-33h-647v-633h614v-33h-614v-702h647v-33q-99 -41 -163.5 -111.5t-64.5 -146.5q0 -113 119 -113q44 0 101 23l8 -27q-58 -28 -111 -28q-65 0 -108 33t-43 110q0 83 56.5 150t141.5 110h-618z" />
<glyph unicode="&#x119;" horiz-adv-x="974" d="M123 416v286q0 208 87 320.5t282 112.5q101 0 173 -30.5t115 -88.5t62.5 -135.5t19.5 -178.5v-161h-704v-117q0 -95 17 -167t55 -127.5t105 -84.5t161 -29q168 0 329 97l17 -29q-37 -19 -57.5 -30.5t-66 -39.5t-73.5 -53.5t-59.5 -60.5t-47.5 -75t-16 -83 q0 -113 119 -113q43 0 100 23l9 -27q-58 -28 -111 -28q-66 0 -109 33t-43 110q0 76 45.5 143t114.5 117q-72 -16 -151 -16q-104 0 -178 31.5t-116 91t-60.5 135t-18.5 174.5zM158 573h671v121q0 76 -10 136.5t-34 112.5t-62 86t-96 53.5t-135 19.5q-181 0 -257.5 -106 t-76.5 -302v-121z" />
<glyph unicode="&#x11a;" horiz-adv-x="1007" d="M205 0v1434h682v-33h-647v-633h614v-33h-614v-702h647v-33h-682zM305 1907h37l225 -283l226 283h36l-247 -326h-29z" />
<glyph unicode="&#x11b;" horiz-adv-x="974" d="M123 416v286q0 208 87 320.5t282 112.5q101 0 173 -30.5t115 -88.5t62.5 -135.5t19.5 -178.5v-161h-704v-117q0 -95 17 -167t55 -127.5t105 -84.5t161 -29q177 0 329 97l17 -29q-165 -100 -346 -100q-104 0 -178 31.5t-116 91t-60.5 135t-18.5 174.5zM158 573h671v121 q0 76 -10 136.5t-34 112.5t-62 86t-96 53.5t-135 19.5q-181 0 -257.5 -106t-76.5 -302v-121zM242 1599h37l225 -282l225 282h37l-248 -325h-29z" />
<glyph unicode="&#x11c;" horiz-adv-x="1138" d="M154 453v528q0 469 424 469q57 0 107 -11t84.5 -24.5t67.5 -40.5t51 -45t39.5 -52.5t28.5 -48.5l23 -46l-27 -15q-24 46 -41 74t-49.5 65.5t-68 58.5t-91.5 36.5t-124 15.5q-390 0 -390 -446v-508q0 -447 390 -447q88 0 158.5 20t114.5 53t70 64.5t42 65.5v465h-334v33 h368v-508q-15 -29 -29.5 -51.5t-49.5 -57.5t-76.5 -58t-111 -40.5t-152.5 -17.5q-424 0 -424 469zM326 1581l247 326h29l248 -326h-37l-225 283l-226 -283h-36z" />
<glyph unicode="&#x11d;" horiz-adv-x="1028" d="M123 389v340q0 406 344 406q67 0 127.5 -17t105 -45.5t75.5 -56.5t54 -58l7 160h28v-1218q0 -162 -87.5 -246t-262.5 -84q-201 0 -346 86l16 29q80 -41 156 -61.5t174 -20.5q151 0 233 72.5t82 220.5v264q-52 -68 -144 -122t-218 -54q-344 0 -344 405zM158 397 q0 -190 75.5 -285.5t247.5 -95.5q107 0 195.5 52.5t152.5 134.5v712q-64 82 -152.5 134.5t-195.5 52.5q-172 0 -247.5 -95.5t-75.5 -285.5v-324zM248 1274l248 325h28l248 -325h-37l-225 282l-225 -282h-37z" />
<glyph unicode="&#x11e;" horiz-adv-x="1138" d="M154 453v528q0 469 424 469q57 0 107 -11t84.5 -24.5t67.5 -40.5t51 -45t39.5 -52.5t28.5 -48.5l23 -46l-27 -15q-24 46 -41 74t-49.5 65.5t-68 58.5t-91.5 36.5t-124 15.5q-390 0 -390 -446v-508q0 -447 390 -447q88 0 158.5 20t114.5 53t70 64.5t42 65.5v465h-334v33 h368v-508q-15 -29 -29.5 -51.5t-49.5 -57.5t-76.5 -58t-111 -40.5t-152.5 -17.5q-424 0 -424 469zM350 1858v24h31v-24q0 -98 60.5 -139.5t156.5 -41.5t156.5 41.5t60.5 139.5v24h31v-24q0 -58 -20.5 -101t-57 -66.5t-78.5 -34.5t-92 -11t-92 11t-78.5 34.5t-57 66.5 t-20.5 101z" />
<glyph unicode="&#x11f;" horiz-adv-x="1028" d="M123 389v340q0 406 344 406q67 0 127.5 -17t105 -45.5t75.5 -56.5t54 -58l7 160h28v-1218q0 -162 -87.5 -246t-262.5 -84q-201 0 -346 86l16 29q80 -41 156 -61.5t174 -20.5q151 0 233 72.5t82 220.5v264q-52 -68 -144 -122t-218 -54q-344 0 -344 405zM158 397 q0 -190 75.5 -285.5t247.5 -95.5q107 0 195.5 52.5t152.5 134.5v712q-64 82 -152.5 134.5t-195.5 52.5q-172 0 -247.5 -95.5t-75.5 -285.5v-324zM262 1550v25h31v-25q0 -180 217 -180t217 180v25h31v-25q0 -58 -20.5 -101t-57 -66.5t-78.5 -34.5t-92 -11t-92 11t-78.5 34.5 t-57 66.5t-20.5 101z" />
<glyph unicode="&#x120;" horiz-adv-x="1138" d="M154 453v528q0 469 424 469q57 0 107 -11t84.5 -24.5t67.5 -40.5t51 -45t39.5 -52.5t28.5 -48.5l23 -46l-27 -15q-24 46 -41 74t-49.5 65.5t-68 58.5t-91.5 36.5t-124 15.5q-390 0 -390 -446v-508q0 -447 390 -447q88 0 158.5 20t114.5 53t70 64.5t42 65.5v465h-334v33 h368v-508q-15 -29 -29.5 -51.5t-49.5 -57.5t-76.5 -58t-111 -40.5t-152.5 -17.5q-424 0 -424 469zM557 1696v69h66v-69h-66z" />
<glyph unicode="&#x121;" horiz-adv-x="1028" d="M123 389v340q0 406 344 406q67 0 127.5 -17t105 -45.5t75.5 -56.5t54 -58l7 160h28v-1218q0 -162 -87.5 -246t-262.5 -84q-201 0 -346 86l16 29q80 -41 156 -61.5t174 -20.5q151 0 233 72.5t82 220.5v264q-52 -68 -144 -122t-218 -54q-344 0 -344 405zM158 397 q0 -190 75.5 -285.5t247.5 -95.5q107 0 195.5 52.5t152.5 134.5v712q-64 82 -152.5 134.5t-195.5 52.5q-172 0 -247.5 -95.5t-75.5 -285.5v-324zM463 1389v69h65v-69h-65z" />
<glyph unicode="&#x122;" horiz-adv-x="1138" d="M154 453v528q0 469 424 469q57 0 107 -11t84.5 -24.5t67.5 -40.5t51 -45t39.5 -52.5t28.5 -48.5l23 -46l-27 -15q-24 46 -41 74t-49.5 65.5t-68 58.5t-91.5 36.5t-124 15.5q-390 0 -390 -446v-508q0 -447 390 -447q88 0 158.5 20t114.5 53t70 64.5t42 65.5v465h-334v33 h368v-508q-15 -29 -29.5 -51.5t-49.5 -57.5t-76.5 -58t-111 -40.5t-152.5 -17.5q-424 0 -424 469zM537 -350q60 78 57 184h-29v70h62v-70q0 -119 -70 -203z" />
<glyph unicode="&#x123;" horiz-adv-x="1028" d="M123 389v340q0 406 344 406q67 0 127.5 -17t105 -45.5t75.5 -56.5t54 -58l7 160h28v-1218q0 -162 -87.5 -246t-262.5 -84q-201 0 -346 86l16 29q80 -41 156 -61.5t174 -20.5q151 0 233 72.5t82 220.5v264q-52 -68 -144 -122t-218 -54q-344 0 -344 405zM158 397 q0 -190 75.5 -285.5t247.5 -95.5q107 0 195.5 52.5t152.5 134.5v712q-64 82 -152.5 134.5t-195.5 52.5q-172 0 -247.5 -95.5t-75.5 -285.5v-324zM457 1331v70q0 120 69 203l21 -19q-61 -79 -58 -184h29v-70h-61z" />
<glyph unicode="&#x124;" horiz-adv-x="1269" d="M205 0v1434h35v-668h792v668h33v-1434h-33v733h-792v-733h-35zM377 1581l248 326h28l248 -326h-37l-225 283l-225 -283h-37z" />
<glyph unicode="&#x125;" horiz-adv-x="1099" d="M-49 1651l248 325h28l248 -325h-37l-225 282l-225 -282h-37zM184 0v1536h35v-584q189 183 408 183q150 0 224.5 -82.5t74.5 -216.5v-836h-35v807q0 142 -65.5 218.5t-215.5 76.5q-199 0 -391 -187v-915h-35z" />
<glyph unicode="&#x126;" horiz-adv-x="1269" d="M90 1139v32h115v263h35v-263h792v263h33v-263h113v-32h-113v-1139h-33v733h-792v-733h-35v1139h-115zM240 766h792v373h-792v-373z" />
<glyph unicode="&#x127;" horiz-adv-x="1099" d="M59 1309v32h125v195h35v-195h379v-32h-379v-357q189 183 408 183q150 0 224.5 -82.5t74.5 -216.5v-836h-35v807q0 142 -65.5 218.5t-215.5 76.5q-199 0 -391 -187v-915h-35v1309h-125z" />
<glyph unicode="&#x128;" horiz-adv-x="444" d="M-49 1663q39 66 73.5 95.5t81.5 29.5q37 0 74.5 -18.5t64 -41t64 -41t74.5 -18.5q31 0 56.5 17t38.5 34.5t36 55.5l27 -17q-39 -66 -73.5 -95.5t-82.5 -29.5q-42 0 -82.5 18.5t-67 41t-61 41t-65.5 18.5t-56.5 -16.5t-39.5 -35t-36 -54.5zM205 0v1434h35v-1434h-35z" />
<glyph unicode="&#x129;" horiz-adv-x="401" d="M-92 1356q39 66 73.5 95.5t81.5 29.5q37 0 74.5 -18.5t64 -41t64 -41t74.5 -18.5q24 0 42.5 7.5t35.5 25.5t26.5 31.5t26.5 41.5l27 -16q-39 -66 -73.5 -95.5t-82.5 -29.5q-42 0 -82.5 18.5t-67 41t-61 41t-65.5 18.5t-57 -17t-39 -35t-36 -55zM184 0v1118h35v-1118h-35z " />
<glyph unicode="&#x12a;" horiz-adv-x="444" d="M-12 1743v33h477v-33h-477zM205 0v1434h35v-1434h-35z" />
<glyph unicode="&#x12b;" horiz-adv-x="403" d="M-35 1436v32h477v-32h-477zM184 0v1118h35v-1118h-35z" />
<glyph unicode="&#x12c;" horiz-adv-x="444" d="M-23 1858v24h31v-24q0 -98 60.5 -139.5t156.5 -41.5t156.5 41.5t60.5 139.5v24h31v-24q0 -58 -20.5 -101t-57 -66.5t-78.5 -34.5t-92 -11t-92 11t-78.5 34.5t-57 66.5t-20.5 101zM205 0v1434h35v-1434h-35z" />
<glyph unicode="&#x12d;" horiz-adv-x="403" d="M-45 1550v25h31v-25q0 -180 217 -180t217 180v25h31v-25q0 -58 -20.5 -101t-57 -66.5t-78.5 -34.5t-92 -11t-92 11t-78.5 34.5t-57 66.5t-20.5 101zM184 0v1118h35v-1118h-35z" />
<glyph unicode="&#x12e;" horiz-adv-x="444" d="M-23 -260q0 84 61.5 155.5t166.5 120.5v1418h35v-1434q-99 -41 -163.5 -111.5t-64.5 -146.5q0 -113 119 -113q43 0 100 23l9 -27q-58 -28 -111 -28q-66 0 -109 33t-43 110z" />
<glyph unicode="&#x12f;" horiz-adv-x="403" d="M-43 -260q0 85 63 158t164 120v1100h35v-1118q-98 -41 -162.5 -111.5t-64.5 -146.5q0 -113 119 -113q43 0 100 23l8 -27q-58 -28 -110 -28q-66 0 -109 33t-43 110zM170 1389v69h66v-69h-66z" />
<glyph unicode="&#x130;" horiz-adv-x="444" d="M190 1696v69h66v-69h-66zM205 0v1434h35v-1434h-35z" />
<glyph unicode="&#x131;" horiz-adv-x="403" d="M184 0v1118h35v-1118h-35z" />
<glyph unicode="&#x132;" horiz-adv-x="1124" d="M205 0v1434h35v-1434h-35zM526 8l11 31q61 -23 116 -23q41 0 74 7.5t56.5 23.5t41 34.5t28.5 48.5t17.5 56t9.5 66.5t4 71t1 77.5v1033h35v-1043q0 -47 -1.5 -82.5t-6 -75.5t-13 -70t-21.5 -60t-33.5 -50t-47 -36.5t-63 -24.5t-81.5 -8q-69 0 -127 24z" />
<glyph unicode="&#x133;" horiz-adv-x="806" d="M170 1389v69h66v-69h-66zM184 0v1118h35v-1118h-35zM266 -395l13 28q68 -22 122 -22q61 0 99.5 17t57 54.5t24.5 78.5t6 106v1251h35v-1245q0 -75 -8 -124t-30.5 -90.5t-67.5 -61t-116 -19.5q-33 0 -66.5 7t-50.5 13zM573 1389v69h66v-69h-66z" />
<glyph unicode="&#x134;" horiz-adv-x="679" d="M82 8l10 31q61 -23 117 -23q41 0 74 7.5t56.5 23.5t40.5 34.5t28 48.5t17.5 56t9.5 66.5t4 71t1 77.5v1033h35v-1043q0 -54 -2 -93.5t-8 -85t-17.5 -77t-31.5 -62t-47.5 -49t-68 -29.5t-91.5 -11q-69 0 -127 24zM199 1589l247 326h29l248 -326h-37l-225 283l-225 -283 h-37z" />
<glyph unicode="&#x135;" horiz-adv-x="403" d="M-137 -395l12 28q68 -22 123 -22q49 0 83.5 12.5t54.5 32.5t31 55t14 69.5t3 86.5v1251h35v-1245q0 -75 -7.5 -124t-30 -90.5t-67.5 -61t-116 -19.5q-33 0 -66.5 7t-51.5 13zM-59 1274l247 325h29l248 -325h-37l-225 282l-226 -282h-36z" />
<glyph unicode="&#x136;" horiz-adv-x="1062" d="M205 0v1434h35v-668h268l412 668h36l-421 -684l430 -750h-39l-418 733h-268v-733h-35zM510 -350q60 78 57 184h-28v70h61v-70q0 -119 -70 -203z" />
<glyph unicode="&#x137;" horiz-adv-x="954" d="M184 0v1536h35v-915h279l333 497h41l-344 -514l349 -604h-43l-334 586h-281v-586h-35zM461 -350q60 78 57 184h-29v70h62v-70q0 -119 -70 -203z" />
<glyph unicode="&#x138;" horiz-adv-x="954" d="M184 0v1118h35v-497h281l334 497h38l-344 -514l349 -604h-41l-334 588h-283v-588h-35z" />
<glyph unicode="&#x139;" horiz-adv-x="956" d="M188 1581l123 326h45l-139 -326h-29zM205 0v1434h35v-1401h647v-33h-682z" />
<glyph unicode="&#x13a;" horiz-adv-x="403" d="M170 1624l123 326h45l-139 -326h-29zM184 0v1536h35v-1536h-35z" />
<glyph unicode="&#x13b;" horiz-adv-x="956" d="M205 0v1434h35v-1401h647v-33h-682zM502 -350q60 78 57 184h-29v70h62v-70q0 -119 -70 -203z" />
<glyph unicode="&#x13c;" horiz-adv-x="403" d="M150 -350q60 78 57 184h-29v70h62v-70q0 -119 -70 -203zM184 0v1536h35v-1536h-35z" />
<glyph unicode="&#x13d;" horiz-adv-x="956" d="M205 0v1434h35v-1401h647v-33h-682zM635 1112l39 322h43l-53 -322h-29z" />
<glyph unicode="&#x13e;" horiz-adv-x="473" d="M184 0v1536h35v-1536h-35zM305 1214l39 322h43l-53 -322h-29z" />
<glyph unicode="&#x13f;" horiz-adv-x="993" d="M205 0v1434h35v-1401h647v-33h-682zM610 733v74h62v-74h-62z" />
<glyph unicode="&#x140;" horiz-adv-x="518" d="M184 0v1536h35v-1536h-35zM340 735v74h61v-74h-61z" />
<glyph unicode="&#x141;" horiz-adv-x="956" d="M57 561v37l148 64v772h35v-756l401 176v-37l-401 -176v-608h647v-33h-682v625z" />
<glyph unicode="&#x142;" horiz-adv-x="534" d="M59 772v35l164 78v651h35v-635l219 103v-35l-219 -103v-866h-35v850z" />
<glyph unicode="&#x143;" horiz-adv-x="1269" d="M195 0v1434h26l819 -1362v1362h35v-1434h-31l-817 1354v-1354h-32zM621 1581l122 326h45l-139 -326h-28z" />
<glyph unicode="&#x144;" horiz-adv-x="1097" d="M184 0v1118h29l6 -166q189 183 406 183q150 0 224.5 -82.5t74.5 -216.5v-836h-35v807q0 142 -65.5 218.5t-215.5 76.5q-197 0 -389 -187v-915h-35zM502 1274l123 325h45l-140 -325h-28z" />
<glyph unicode="&#x145;" horiz-adv-x="1269" d="M195 0v1434h26l819 -1362v1362h35v-1434h-31l-817 1354v-1354h-32zM596 -350q60 78 57 184h-28v70h61v-70q0 -119 -70 -203z" />
<glyph unicode="&#x146;" horiz-adv-x="1097" d="M184 0v1118h29l6 -166q189 183 406 183q150 0 224.5 -82.5t74.5 -216.5v-836h-35v807q0 142 -65.5 218.5t-215.5 76.5q-197 0 -389 -187v-915h-35zM514 -350q60 78 57 184h-28v70h61v-70q0 -120 -69 -203z" />
<glyph unicode="&#x147;" horiz-adv-x="1269" d="M195 0v1434h26l819 -1362v1362h35v-1434h-31l-817 1354v-1354h-32zM383 1907h37l225 -283l225 283h37l-248 -326h-28z" />
<glyph unicode="&#x148;" horiz-adv-x="1097" d="M184 0v1118h29l6 -166q189 183 406 183q150 0 224.5 -82.5t74.5 -216.5v-836h-35v807q0 142 -65.5 218.5t-215.5 76.5q-197 0 -389 -187v-915h-35zM297 1599h37l225 -282l225 282h37l-248 -325h-28z" />
<glyph unicode="&#x149;" horiz-adv-x="1097" d="M100 1276q61 79 58 184h-29v70h61v-70q0 -120 -69 -203zM184 0v1118h29l6 -166q189 183 406 183q150 0 224.5 -82.5t74.5 -216.5v-836h-35v807q0 142 -65.5 218.5t-215.5 76.5q-197 0 -389 -187v-915h-35z" />
<glyph unicode="&#x14a;" horiz-adv-x="1269" d="M195 0v1434h26l819 -1362v1362h35v-1457q0 -54 -2 -93.5t-8 -85t-17.5 -77t-31.5 -62t-47.5 -49t-68 -29.5t-91.5 -11q-77 0 -127 24l10 31q58 -22 117 -22q41 0 74 7.5t56.5 23.5t40.5 34.5t28 48.5t17.5 56t9.5 66.5t4 71t1 77.5v18l-813 1348v-1354h-32z" />
<glyph unicode="&#x14b;" horiz-adv-x="1097" d="M184 0v1118h29l6 -166q189 183 406 183q150 0 224.5 -82.5t74.5 -216.5v-963q0 -75 -8 -124t-30.5 -90.5t-67.5 -61t-116 -19.5q-33 0 -66.5 7t-51.5 13l-17 7l13 28q68 -22 122 -22q61 0 99.5 17t57 54.5t24.5 78.5t6 106v940q0 142 -65.5 218.5t-215.5 76.5 q-197 0 -389 -187v-915h-35z" />
<glyph unicode="&#x14c;" horiz-adv-x="1167" d="M154 455v526q0 108 24 192.5t74.5 147t134 96t197.5 33.5t197.5 -33.5t134 -96t74.5 -147t24 -192.5v-526q0 -222 -104 -346.5t-326 -124.5t-326 124.5t-104 346.5zM188 465q0 -449 396 -449q395 0 395 449v506q0 446 -395 446q-396 0 -396 -446v-506zM346 1743v33h477 v-33h-477z" />
<glyph unicode="&#x14d;" horiz-adv-x="987" d="M123 416v286q0 433 371 433q101 0 173 -30.5t115 -88.5t62.5 -135.5t19.5 -178.5v-286q0 -208 -86.5 -320t-283.5 -112q-371 0 -371 432zM158 424q0 -95 17 -167t55 -127.5t104 -84.5t160 -29q183 0 259 105.5t76 302.5v270q0 197 -76 302.5t-259 105.5q-182 0 -259 -106 t-77 -302v-270zM256 1436v32h477v-32h-477z" />
<glyph unicode="&#x14e;" horiz-adv-x="1167" d="M154 455v526q0 108 24 192.5t74.5 147t134 96t197.5 33.5t197.5 -33.5t134 -96t74.5 -147t24 -192.5v-526q0 -222 -104 -346.5t-326 -124.5t-326 124.5t-104 346.5zM188 465q0 -449 396 -449q395 0 395 449v506q0 446 -395 446q-396 0 -396 -446v-506zM336 1858v24h31 v-24q0 -98 60.5 -139.5t156.5 -41.5t156.5 41.5t60.5 139.5v24h30v-24q0 -112 -70.5 -162.5t-176.5 -50.5q-50 0 -92 11t-78.5 34.5t-57 66.5t-20.5 101z" />
<glyph unicode="&#x14f;" horiz-adv-x="987" d="M123 416v286q0 433 371 433q101 0 173 -30.5t115 -88.5t62.5 -135.5t19.5 -178.5v-286q0 -208 -86.5 -320t-283.5 -112q-371 0 -371 432zM158 424q0 -95 17 -167t55 -127.5t104 -84.5t160 -29q183 0 259 105.5t76 302.5v270q0 197 -76 302.5t-259 105.5q-182 0 -259 -106 t-77 -302v-270zM252 1550v25h31v-25q0 -180 217 -180t217 180v25h31v-25q0 -58 -20.5 -101t-57 -66.5t-78.5 -34.5t-92 -11t-92 11t-78.5 34.5t-57 66.5t-20.5 101z" />
<glyph unicode="&#x150;" horiz-adv-x="1167" d="M154 455v526q0 108 24 192.5t74.5 147t134 96t197.5 33.5t197.5 -33.5t134 -96t74.5 -147t24 -192.5v-526q0 -222 -104 -346.5t-326 -124.5t-326 124.5t-104 346.5zM188 465q0 -449 396 -449q395 0 395 449v506q0 446 -395 446q-396 0 -396 -446v-506zM500 1581l123 326 h45l-140 -326h-28zM684 1581l123 326h45l-139 -326h-29z" />
<glyph unicode="&#x151;" horiz-adv-x="987" d="M123 416v286q0 433 371 433q101 0 173 -30.5t115 -88.5t62.5 -135.5t19.5 -178.5v-286q0 -208 -86.5 -320t-283.5 -112q-371 0 -371 432zM158 424q0 -95 17 -167t55 -127.5t104 -84.5t160 -29q183 0 259 105.5t76 302.5v270q0 197 -76 302.5t-259 105.5q-182 0 -259 -106 t-77 -302v-270zM373 1274l123 325h45l-140 -325h-28zM557 1274l123 325h45l-139 -325h-29z" />
<glyph unicode="&#x152;" horiz-adv-x="1781" d="M154 455v526q0 108 24 192.5t74.5 147t134 96t197.5 33.5q305 0 395 -250v234h682v-33h-647v-633h614v-33h-614v-702h647v-33h-682v233q-86 -249 -395 -249q-222 0 -326 124.5t-104 346.5zM188 465q0 -449 396 -449q208 0 301.5 116.5t93.5 332.5v524q0 95 -22.5 171.5 t-69 135t-123.5 90t-180 31.5q-396 0 -396 -446v-506z" />
<glyph unicode="&#x153;" horiz-adv-x="1681" d="M123 416v286q0 433 371 433q292 0 352 -267q60 267 352 267q101 0 173.5 -30.5t115 -88.5t62.5 -135.5t20 -178.5v-161h-705v-117q0 -95 17 -167t55 -127.5t105 -84.5t161 -29q178 0 330 97l16 -29q-165 -100 -346 -100q-295 0 -356 264q-59 -264 -352 -264 q-371 0 -371 432zM158 424q0 -95 17 -167t55 -127.5t104 -84.5t160 -29q93 0 159 28.5t104 83t55 125t17 163.5v286q0 193 -77 296.5t-258 103.5q-182 0 -259 -106t-77 -302v-270zM864 573h672v121q0 96 -16.5 167.5t-54.5 127.5t-105 84.5t-162 28.5q-181 0 -257.5 -106 t-76.5 -302v-121z" />
<glyph unicode="&#x154;" horiz-adv-x="1128" d="M205 0v1434h317q134 0 226 -27.5t142.5 -83t71.5 -125.5t21 -168q0 -163 -67 -260.5t-230 -128.5l332 -641h-39l-330 635q-59 -6 -127 -6h-282v-629h-35zM240 662h282q86 0 153.5 12.5t113.5 37t78 56t49 74.5t24.5 88t7.5 100q0 68 -10.5 120t-38.5 101t-74.5 80.5 t-123 50.5t-179.5 19h-282v-739zM522 1581l123 326h45l-139 -326h-29z" />
<glyph unicode="&#x155;" horiz-adv-x="720" d="M184 0v1118h29l6 -231q20 34 53.5 72.5t83 80t118 68.5t140.5 27q44 0 78 -9l-6 -32q-36 8 -86 8q-63 0 -124 -25t-109.5 -65.5t-85 -84t-62.5 -87.5v-840h-35zM356 1274l123 325h45l-139 -325h-29z" />
<glyph unicode="&#x156;" horiz-adv-x="1128" d="M205 0v1434h317q134 0 226 -27.5t142.5 -83t71.5 -125.5t21 -168q0 -163 -67 -260.5t-230 -128.5l332 -641h-39l-330 635q-59 -6 -127 -6h-282v-629h-35zM240 662h282q86 0 153.5 12.5t113.5 37t78 56t49 74.5t24.5 88t7.5 100q0 68 -10.5 120t-38.5 101t-74.5 80.5 t-123 50.5t-179.5 19h-282v-739zM530 -350q61 79 58 184h-29v70h62v-70q0 -119 -70 -203z" />
<glyph unicode="&#x157;" horiz-adv-x="720" d="M180 -350q61 79 58 184h-29v70h61v-70q0 -120 -69 -203zM184 0v1118h29l6 -231q20 34 53.5 72.5t83 80t118 68.5t140.5 27q44 0 78 -9l-6 -32q-36 8 -86 8q-63 0 -124 -25t-109.5 -65.5t-85 -84t-62.5 -87.5v-840h-35z" />
<glyph unicode="&#x158;" horiz-adv-x="1128" d="M205 0v1434h317q134 0 226 -27.5t142.5 -83t71.5 -125.5t21 -168q0 -163 -67 -260.5t-230 -128.5l332 -641h-39l-330 635q-59 -6 -127 -6h-282v-629h-35zM240 662h282q86 0 153.5 12.5t113.5 37t78 56t49 74.5t24.5 88t7.5 100q0 68 -10.5 120t-38.5 101t-74.5 80.5 t-123 50.5t-179.5 19h-282v-739zM291 1907h37l225 -283l225 283h37l-248 -326h-28z" />
<glyph unicode="&#x159;" horiz-adv-x="720" d="M147 1599h37l226 -282l225 282h37l-248 -325h-29zM184 0v1118h29l6 -231q20 34 53.5 72.5t83 80t118 68.5t140.5 27q44 0 78 -9l-6 -32q-36 8 -86 8q-63 0 -124 -25t-109.5 -65.5t-85 -84t-62.5 -87.5v-840h-35z" />
<glyph unicode="&#x15a;" horiz-adv-x="1048" d="M106 117l19 26q152 -127 383 -127q395 0 395 361q0 89 -42 153.5t-109 102.5t-148.5 68.5t-163 62t-148.5 70.5t-109 106t-42 158q0 181 95.5 266.5t285.5 85.5q133 0 218 -35t161 -98l-20 -27q-72 61 -154.5 94t-204.5 33q-348 0 -348 -317q0 -68 26 -121t70.5 -88 t101.5 -63t120.5 -50.5t127 -45.5t120.5 -54t101.5 -69t70.5 -97t26 -133q0 -395 -430 -395q-135 0 -236.5 38t-165.5 95zM481 1581l123 326h45l-139 -326h-29z" />
<glyph unicode="&#x15b;" horiz-adv-x="854" d="M94 86l17 27q151 -97 309 -97q169 0 246 69.5t77 188.5q0 65 -21.5 115t-58 82t-84 56.5t-99.5 42.5t-104 35t-99.5 39t-84 51t-58 73.5t-21.5 103.5q0 124 81.5 193.5t239.5 69.5q156 0 285 -84l-17 -27q-116 80 -262 80q-84 0 -143.5 -20t-91 -54.5t-45 -73 t-13.5 -84.5q0 -67 35 -114t90.5 -74t122.5 -48.5t134.5 -47t123 -60t90.5 -95.5t35 -146q0 -303 -358 -303q-89 0 -177 26.5t-149 75.5zM387 1274l123 325h45l-139 -325h-29z" />
<glyph unicode="&#x15c;" horiz-adv-x="1048" d="M106 117l19 26q152 -127 383 -127q395 0 395 361q0 89 -42 153.5t-109 102.5t-148.5 68.5t-163 62t-148.5 70.5t-109 106t-42 158q0 181 95.5 266.5t285.5 85.5q133 0 218 -35t161 -98l-20 -27q-72 61 -154.5 94t-204.5 33q-348 0 -348 -317q0 -68 26 -121t70.5 -88 t101.5 -63t120.5 -50.5t127 -45.5t120.5 -54t101.5 -69t70.5 -97t26 -133q0 -395 -430 -395q-135 0 -236.5 38t-165.5 95zM270 1581l248 326h29l248 -326h-37l-226 283l-225 -283h-37z" />
<glyph unicode="&#x15d;" horiz-adv-x="854" d="M94 86l17 27q151 -97 309 -97q169 0 246 69.5t77 188.5q0 65 -21.5 115t-58 82t-84 56.5t-99.5 42.5t-104 35t-99.5 39t-84 51t-58 73.5t-21.5 103.5q0 124 81.5 193.5t239.5 69.5q156 0 285 -84l-17 -27q-116 80 -262 80q-84 0 -143.5 -20t-91 -54.5t-45 -73 t-13.5 -84.5q0 -67 35 -114t90.5 -74t122.5 -48.5t134.5 -47t123 -60t90.5 -95.5t35 -146q0 -303 -358 -303q-89 0 -177 26.5t-149 75.5zM188 1274l248 325h29l248 -325h-37l-225 282l-226 -282h-37z" />
<glyph unicode="&#x15e;" horiz-adv-x="1048" d="M106 117l19 26q152 -127 383 -127q395 0 395 361q0 89 -42 153.5t-109 102.5t-148.5 68.5t-163 62t-148.5 70.5t-109 106t-42 158q0 181 95.5 266.5t285.5 85.5q133 0 218 -35t161 -98l-20 -27q-72 61 -154.5 94t-204.5 33q-348 0 -348 -317q0 -68 26 -121t70.5 -88 t101.5 -63t120.5 -50.5t127 -45.5t120.5 -54t101.5 -69t70.5 -97t26 -133q0 -395 -430 -395h-14l-27 -136q30 9 65 9q150 0 150 -121q0 -70 -37 -104.5t-123 -34.5q-59 0 -133 24l8 29q73 -21 123 -21q70 0 98.5 23.5t28.5 83.5q0 49 -29.5 69.5t-87.5 20.5q-42 0 -75 -10 l-23 14l31 156q-118 6 -208.5 42.5t-148.5 88.5z" />
<glyph unicode="&#x15f;" horiz-adv-x="854" d="M94 86l17 27q151 -97 309 -97q169 0 246 69.5t77 188.5q0 65 -21.5 115t-58 82t-84 56.5t-99.5 42.5t-104 35t-99.5 39t-84 51t-58 73.5t-21.5 103.5q0 124 81.5 193.5t239.5 69.5q156 0 285 -84l-17 -27q-116 80 -262 80q-84 0 -143.5 -20t-91 -54.5t-45 -73 t-13.5 -84.5q0 -67 35 -114t90.5 -74t122.5 -48.5t134.5 -47t123 -60t90.5 -95.5t35 -146q0 -303 -358 -303h-21l-28 -136q30 9 65 9q150 0 150 -121q0 -70 -37 -104.5t-123 -34.5q-59 0 -133 24l8 29q73 -21 123 -21q70 0 98.5 23.5t28.5 83.5q0 49 -29.5 69.5t-87.5 20.5 q-43 0 -76 -10l-22 14l31 156q-172 18 -273 100z" />
<glyph unicode="&#x160;" horiz-adv-x="1040" d="M106 117l19 26q152 -127 383 -127q395 0 395 361q0 89 -42 153.5t-109 102.5t-148.5 68.5t-163 62t-148.5 70.5t-109 106t-42 158q0 181 95.5 266.5t285.5 85.5q133 0 218 -35t161 -98l-20 -27q-72 61 -154.5 94t-204.5 33q-348 0 -348 -317q0 -68 26 -121t70.5 -88 t101.5 -63t120.5 -50.5t127 -45.5t120.5 -54t101.5 -69t70.5 -97t26 -133q0 -395 -430 -395q-135 0 -236.5 38t-165.5 95zM283 1913h36l226 -283l225 283h37l-248 -326h-29z" />
<glyph unicode="&#x161;" horiz-adv-x="872" d="M94 86l17 27q151 -97 309 -97q169 0 246 69.5t77 188.5q0 65 -21.5 115t-58 82t-84 56.5t-99.5 42.5t-104 35t-99.5 39t-84 51t-58 73.5t-21.5 103.5q0 124 81.5 193.5t239.5 69.5q156 0 285 -84l-17 -27q-116 80 -262 80q-84 0 -143.5 -20t-91 -54.5t-45 -73 t-13.5 -84.5q0 -67 35 -114t90.5 -74t122.5 -48.5t134.5 -47t123 -60t90.5 -95.5t35 -146q0 -303 -358 -303q-89 0 -177 26.5t-149 75.5zM188 1599h37l226 -282l225 282h37l-248 -325h-29z" />
<glyph unicode="&#x162;" horiz-adv-x="1017" d="M78 1401v33h860v-33h-412v-1401l-39 -152q30 9 66 9q149 0 149 -121q0 -70 -36.5 -104.5t-122.5 -34.5q-59 0 -133 24l8 29q74 -21 123 -21q70 0 98.5 23.5t28.5 83.5q0 49 -29.5 69.5t-87.5 20.5q-43 0 -76 -10l-22 14l39 170v1401h-414z" />
<glyph unicode="&#x163;" horiz-adv-x="741" d="M63 1085v27l203 6v238l35 6v-244h299v-33h-299v-802q0 -52 3 -86.5t14 -69.5t31 -55t54.5 -32.5t83.5 -12.5q70 0 125 22l9 -29q-59 -26 -134 -26q-48 0 -90 10l-32 -156q30 9 65 9q150 0 150 -121q0 -70 -37 -104.5t-123 -34.5q-59 0 -133 24l8 29q73 -21 123 -21 q70 0 98.5 23.5t28.5 83.5q0 49 -29.5 69.5t-87.5 20.5q-43 0 -76 -10l-22 14l37 186q-60 29 -80.5 94t-20.5 179v796h-203z" />
<glyph unicode="&#x164;" horiz-adv-x="1017" d="M78 1401v33h860v-33h-412v-1401h-34v1401h-414zM250 1907h37l225 -283l225 283h37l-248 -326h-28z" />
<glyph unicode="&#x165;" horiz-adv-x="741" d="M63 1085v27l203 6v238l35 6v-244h299v-33h-299v-802q0 -52 3 -86.5t14 -69.5t31 -55t54.5 -32.5t83.5 -12.5q70 0 125 22l9 -29q-59 -26 -134 -26q-71 0 -116 19.5t-67.5 61t-30 90.5t-7.5 124v796h-203zM483 1214l39 322h43l-53 -322h-29z" />
<glyph unicode="&#x166;" horiz-adv-x="1017" d="M78 1401v33h860v-33h-412v-561h295v-33h-295v-807h-34v807h-297v33h297v561h-414z" />
<glyph unicode="&#x167;" horiz-adv-x="741" d="M63 1085v27l203 6v238l35 6v-244h299v-33h-299v-356h283v-31h-283v-415q0 -52 3 -86.5t14 -69.5t31 -55t54.5 -32.5t83.5 -12.5q70 0 125 22l9 -29q-59 -26 -134 -26q-71 0 -116 19.5t-67.5 61t-30 90.5t-7.5 124v409h-186v31h186v356h-203z" />
<glyph unicode="&#x168;" horiz-adv-x="1159" d="M154 428v1006h34v-996q0 -209 92 -315.5t300 -106.5q209 0 300 106t91 316v996h35v-1006q0 -219 -100.5 -331.5t-325.5 -112.5t-325.5 112.5t-100.5 331.5zM285 1663q39 66 73.5 95.5t81.5 29.5q37 0 74.5 -18.5t64 -41t64 -41t74.5 -18.5q31 0 56.5 17t38.5 34.5 t36 55.5l26 -17q-39 -66 -73.5 -95.5t-81.5 -29.5q-42 0 -82.5 18.5t-67.5 41t-61.5 41t-65.5 18.5q-24 0 -42.5 -7.5t-35.5 -25.5t-26.5 -31.5t-26.5 -41.5z" />
<glyph unicode="&#x169;" horiz-adv-x="1089" d="M174 283v835h35v-807q0 -295 283 -295q197 0 389 187v915h34v-1118h-28l-6 166q-188 -182 -406 -182q-150 0 -225.5 82.5t-75.5 216.5zM262 1356q39 66 73.5 95.5t82.5 29.5q37 0 74.5 -18.5t63.5 -41t63.5 -41t74.5 -18.5q24 0 42.5 7.5t35.5 25.5t26.5 31.5t26.5 41.5 l27 -16q-39 -66 -73.5 -95.5t-82.5 -29.5q-42 0 -82.5 18.5t-67 41t-61 41t-65.5 18.5t-56.5 -17t-38.5 -34.5t-36 -55.5z" />
<glyph unicode="&#x16a;" horiz-adv-x="1159" d="M154 428v1006h34v-996q0 -209 92 -315.5t300 -106.5q209 0 300 106t91 316v996h35v-1006q0 -219 -100.5 -331.5t-325.5 -112.5t-325.5 112.5t-100.5 331.5zM346 1743v33h477v-33h-477z" />
<glyph unicode="&#x16b;" horiz-adv-x="1089" d="M174 283v835h35v-807q0 -295 283 -295q197 0 389 187v915h34v-1118h-28l-6 166q-188 -182 -406 -182q-150 0 -225.5 82.5t-75.5 216.5zM309 1436v32h477v-32h-477z" />
<glyph unicode="&#x16c;" horiz-adv-x="1159" d="M154 428v1006h34v-996q0 -209 92 -315.5t300 -106.5q209 0 300 106t91 316v996h35v-1006q0 -219 -100.5 -331.5t-325.5 -112.5t-325.5 112.5t-100.5 331.5zM334 1858v24h31v-24q0 -98 60.5 -139.5t156.5 -41.5t156.5 41.5t60.5 139.5v24h30v-24q0 -112 -70.5 -162.5 t-176.5 -50.5q-50 0 -92 11t-78.5 34.5t-57 66.5t-20.5 101z" />
<glyph unicode="&#x16d;" horiz-adv-x="1089" d="M174 283v835h35v-807q0 -295 283 -295q197 0 389 187v915h34v-1118h-28l-6 166q-188 -182 -406 -182q-150 0 -225.5 82.5t-75.5 216.5zM311 1550v25h31v-25q0 -180 217 -180t217 180v25h31v-25q0 -58 -20.5 -101t-57 -66.5t-78.5 -34.5t-92 -11t-92 11t-78.5 34.5 t-57 66.5t-20.5 101z" />
<glyph unicode="&#x16e;" horiz-adv-x="1159" d="M154 428v1006h34v-996q0 -209 92 -315.5t300 -106.5q209 0 300 106t91 316v996h35v-1006q0 -219 -100.5 -331.5t-325.5 -112.5t-325.5 112.5t-100.5 331.5zM387 1741q0 89 53.5 139.5t141.5 50.5t141 -50.5t53 -139.5q0 -91 -53 -141t-141 -50t-141.5 50.5t-53.5 140.5z M416 1741q0 -77 43.5 -119.5t122.5 -42.5t122.5 42.5t43.5 119.5t-43.5 119.5t-122.5 42.5t-122.5 -42.5t-43.5 -119.5z" />
<glyph unicode="&#x16f;" horiz-adv-x="1089" d="M174 283v835h35v-807q0 -295 283 -295q197 0 389 187v915h34v-1118h-28l-6 166q-188 -182 -406 -182q-150 0 -225.5 82.5t-75.5 216.5zM362 1434q0 89 53.5 139.5t141.5 50.5t141.5 -50.5t53.5 -139.5q0 -90 -53.5 -140.5t-141.5 -50.5t-141.5 50.5t-53.5 140.5z M391 1434q0 -77 43.5 -119.5t122.5 -42.5t122.5 42.5t43.5 119.5t-43.5 119t-122.5 42t-122.5 -42t-43.5 -119z" />
<glyph unicode="&#x170;" horiz-adv-x="1159" d="M154 428v1006h34v-996q0 -209 92 -315.5t300 -106.5q209 0 300 106t91 316v996h35v-1006q0 -219 -100.5 -331.5t-325.5 -112.5t-325.5 112.5t-100.5 331.5zM451 1581l122 326h45l-139 -326h-28zM635 1581l123 326h45l-139 -326h-29z" />
<glyph unicode="&#x171;" horiz-adv-x="1089" d="M174 283v835h35v-807q0 -295 283 -295q197 0 389 187v915h34v-1118h-28l-6 166q-188 -182 -406 -182q-150 0 -225.5 82.5t-75.5 216.5zM420 1274l123 325h45l-139 -325h-29zM604 1274l123 325h45l-139 -325h-29z" />
<glyph unicode="&#x172;" horiz-adv-x="1159" d="M154 428v1006h34v-996q0 -209 92 -315.5t300 -106.5q209 0 300 106t91 316v996h35v-1006q0 -281 -168 -385q-52 -32 -86 -55.5t-81.5 -64.5t-72.5 -87t-25 -94q0 -113 119 -113q44 0 101 23l8 -27q-58 -28 -111 -28q-65 0 -108 33t-43 110q0 132 166 254 q-65 -10 -125 -10q-225 0 -325.5 112.5t-100.5 331.5z" />
<glyph unicode="&#x173;" horiz-adv-x="1089" d="M174 283v835h35v-807q0 -295 283 -295q197 0 389 187v915h34v-1118q-98 -41 -162.5 -111.5t-64.5 -146.5q0 -113 119 -113q43 0 100 23l8 -27q-58 -28 -110 -28q-66 0 -109 33t-43 110q0 87 63 160.5t169 122.5l-4 143q-188 -182 -406 -182q-150 0 -225.5 82.5 t-75.5 216.5z" />
<glyph unicode="&#x174;" horiz-adv-x="1626" d="M59 1434h41l338 -1381l357 1381h36l357 -1381l338 1381h41l-357 -1434h-47l-350 1360l-350 -1360h-47zM551 1581l248 326h28l248 -326h-37l-225 283l-225 -283h-37z" />
<glyph unicode="&#x175;" horiz-adv-x="1409" d="M63 1118h39l301 -1069l283 1069h33l282 -1069l302 1069h38l-321 -1118h-39l-279 1047l-278 -1047h-39zM442 1274l248 325h29l248 -325h-37l-225 282l-226 -282h-37z" />
<glyph unicode="&#x176;" horiz-adv-x="1087" d="M61 1434h41l443 -799l440 799h41l-465 -838v-596h-35v596zM287 1581l248 326h28l248 -326h-37l-225 283l-225 -283h-37z" />
<glyph unicode="&#x177;" horiz-adv-x="925" d="M63 1118h41l363 -1069l358 1069h39l-518 -1532h-39l139 408zM207 1274l248 325h28l248 -325h-37l-225 282l-225 -282h-37z" />
<glyph unicode="&#x178;" horiz-adv-x="1087" d="M61 1434h41l443 -799l440 799h41l-465 -838v-596h-35v596zM354 1675v70h66v-70h-66zM668 1675v70h65v-70h-65z" />
<glyph unicode="&#x179;" horiz-adv-x="1003" d="M109 0v25l751 1376h-721v33h764v-23l-749 -1378h749v-33h-794zM496 1581l122 326h46l-140 -326h-28z" />
<glyph unicode="&#x17a;" horiz-adv-x="927" d="M92 0v25l699 1060h-680v33h723v-24l-697 -1061h697v-33h-742zM432 1274l123 325h45l-139 -325h-29z" />
<glyph unicode="&#x17b;" horiz-adv-x="1003" d="M109 0v25l751 1376h-721v33h764v-23l-749 -1378h749v-33h-794zM467 1696v69h65v-69h-65z" />
<glyph unicode="&#x17c;" horiz-adv-x="927" d="M92 0v25l699 1060h-680v33h723v-24l-697 -1061h697v-33h-742zM406 1389v69h65v-69h-65z" />
<glyph unicode="&#x17d;" horiz-adv-x="1003" d="M109 0v25l751 1376h-721v33h764v-23l-749 -1378h749v-33h-794zM238 1913h36l226 -283l225 283h37l-248 -326h-29z" />
<glyph unicode="&#x17e;" horiz-adv-x="927" d="M92 0v25l699 1060h-680v33h723v-24l-697 -1061h697v-33h-742zM188 1599h37l226 -282l225 282h37l-248 -325h-29z" />
<glyph unicode="&#x192;" horiz-adv-x="933" d="M-117 -399l15 24q56 -22 110 -22q108 0 163 66t75 190l172 1081h-203l6 27l201 6l41 270q22 147 88.5 221t189.5 74q66 0 119 -29l-14 -26q-49 22 -111 22q-108 0 -163 -68.5t-74 -193.5l-41 -270h301l-6 -33h-299l-172 -1075q-47 -295 -279 -295q-69 0 -119 31z" />
<glyph unicode="&#x1e2;" horiz-adv-x="1585" d="M72 0l481 1434h909v-33h-868l211 -633h625v-33h-613l234 -702h411v-33h-438l-160 479h-594l-157 -479h-41zM283 512h571l-287 864zM721 1743v33h477v-33h-477z" />
<glyph unicode="&#x1e3;" horiz-adv-x="1677" d="M125 287q0 88 34.5 158.5t96 118t150 79t192.5 45.5t227 14v107q0 148 -82 220.5t-233 72.5q-155 0 -315 -90l-15 30q169 93 330 93q292 0 340 -234q73 234 344 234q101 0 173.5 -30.5t115 -88.5t62.5 -135.5t20 -178.5v-161h-705v-117q0 -95 17 -167t55 -127.5 t105 -84.5t161 -29q178 0 330 97l16 -29q-165 -100 -346 -100q-149 0 -234 66.5t-120 197.5q-34 -116 -130 -190t-241 -74q-163 0 -255.5 83t-92.5 220zM160 287q0 -124 85 -197.5t236 -73.5q102 0 182 48t121 123.5t41 162.5v320q-147 0 -265 -21t-209.5 -65.5t-141 -119.5 t-49.5 -177zM612 1436v32h478v-32h-478zM860 573h672v121q0 96 -16.5 167.5t-54.5 127.5t-105 84.5t-162 28.5q-181 0 -257.5 -106t-76.5 -302v-121z" />
<glyph unicode="&#x1fa;" horiz-adv-x="1138" d="M72 0l465 1391q-75 8 -118.5 57t-43.5 131q0 89 53 139.5t141 50.5t141.5 -50.5t53.5 -139.5q0 -83 -45.5 -132.5t-120.5 -57.5l469 -1389h-41l-158 479h-598l-157 -479h-41zM283 512h573l-289 864zM403 1579q0 -77 43.5 -119.5t122.5 -42.5t122.5 42.5t43.5 119.5 t-43.5 119.5t-122.5 42.5t-122.5 -42.5t-43.5 -119.5zM537 1812l122 326h46l-140 -326h-28z" />
<glyph unicode="&#x1fb;" horiz-adv-x="1024" d="M125 287q0 88 34.5 158.5t96 118t150 79t192.5 45.5t227 14v107q0 148 -82 220.5t-233 72.5q-155 0 -315 -90l-15 30q169 93 330 93q350 0 350 -334v-801h-29l-6 190q-41 -88 -130.5 -147t-221.5 -59q-163 0 -255.5 83t-92.5 220zM160 287q0 -124 85 -197.5t236 -73.5 q60 0 114 17t91.5 43t67 59t46.5 64t25 59v412q-147 0 -265 -21t-209.5 -65.5t-141 -119.5t-49.5 -177zM334 1434q0 89 53 139.5t141 50.5q17 0 41 -4l115 301h45l-131 -307q58 -18 91.5 -64.5t33.5 -115.5q0 -90 -53.5 -140.5t-141.5 -50.5t-141 50t-53 141zM362 1434 q0 -77 43.5 -119.5t122.5 -42.5t122.5 42.5t43.5 119.5t-43.5 119t-122.5 42t-122.5 -42t-43.5 -119z" />
<glyph unicode="&#x1fc;" horiz-adv-x="1583" d="M72 0l481 1434h909v-33h-868l211 -633h625v-33h-613l234 -702h411v-33h-438l-160 479h-594l-157 -479h-41zM283 512h571l-287 864zM877 1581l122 326h45l-139 -326h-28z" />
<glyph unicode="&#x1fd;" horiz-adv-x="1677" d="M125 287q0 88 34.5 158.5t96 118t150 79t192.5 45.5t227 14v107q0 148 -82 220.5t-233 72.5q-155 0 -315 -90l-15 30q169 93 330 93q292 0 340 -234q73 234 344 234q101 0 173.5 -30.5t115 -88.5t62.5 -135.5t20 -178.5v-161h-705v-117q0 -95 17 -167t55 -127.5 t105 -84.5t161 -29q178 0 330 97l16 -29q-165 -100 -346 -100q-149 0 -234 66.5t-120 197.5q-34 -116 -130 -190t-241 -74q-163 0 -255.5 83t-92.5 220zM160 287q0 -124 85 -197.5t236 -73.5q102 0 182 48t121 123.5t41 162.5v320q-147 0 -265 -21t-209.5 -65.5t-141 -119.5 t-49.5 -177zM819 1274l123 325h45l-139 -325h-29zM860 573h672v121q0 96 -16.5 167.5t-54.5 127.5t-105 84.5t-162 28.5q-181 0 -257.5 -106t-76.5 -302v-121z" />
<glyph unicode="&#x1fe;" horiz-adv-x="1167" d="M154 455v526q0 108 24 192.5t74.5 147t134 96t197.5 33.5q147 0 247 -59l48 116h34l-53 -135q154 -116 154 -391v-526q0 -222 -104 -346.5t-326 -124.5q-151 0 -250 61l-47 -119h-35l53 135q-151 117 -151 394zM188 465q0 -258 131 -369l500 1262q-94 59 -235 59 q-396 0 -396 -446v-506zM346 78q94 -62 238 -62q395 0 395 449v506q0 258 -133 366zM547 1581l123 326h45l-140 -326h-28z" />
<glyph unicode="&#x1ff;" horiz-adv-x="987" d="M123 416v286q0 433 371 433q108 0 188 -39l41 104h35l-47 -119q153 -96 153 -379v-286q0 -208 -86.5 -320t-283.5 -112q-118 0 -195 41l-39 -99h-35l45 115q-147 100 -147 375zM158 424q0 -255 125 -350l387 991q-76 37 -176 37q-182 0 -259 -106t-77 -302v-270zM311 55 q73 -39 183 -39q183 0 259 105.5t76 302.5v270q0 262 -131 355zM453 1274l122 325h46l-140 -325h-28z" />
<glyph unicode="&#x218;" horiz-adv-x="1048" d="M106 117l19 26q152 -127 383 -127q395 0 395 361q0 89 -42 153.5t-109 102.5t-148.5 68.5t-163 62t-148.5 70.5t-109 106t-42 158q0 181 95.5 266.5t285.5 85.5q133 0 218 -35t161 -98l-20 -27q-72 61 -154.5 94t-204.5 33q-348 0 -348 -317q0 -68 26 -121t70.5 -88 t101.5 -63t120.5 -50.5t127 -45.5t120.5 -54t101.5 -69t70.5 -97t26 -133q0 -395 -430 -395q-135 0 -236.5 38t-165.5 95zM469 -350q60 78 57 184h-28v70h61v-70q0 -119 -70 -203z" />
<glyph unicode="&#x219;" horiz-adv-x="854" d="M94 86l17 27q151 -97 309 -97q169 0 246 69.5t77 188.5q0 65 -21.5 115t-58 82t-84 56.5t-99.5 42.5t-104 35t-99.5 39t-84 51t-58 73.5t-21.5 103.5q0 124 81.5 193.5t239.5 69.5q156 0 285 -84l-17 -27q-116 80 -262 80q-84 0 -143.5 -20t-91 -54.5t-45 -73 t-13.5 -84.5q0 -67 35 -114t90.5 -74t122.5 -48.5t134.5 -47t123 -60t90.5 -95.5t35 -146q0 -303 -358 -303q-89 0 -177 26.5t-149 75.5zM381 -350q60 78 57 184h-28v70h61v-70q0 -119 -70 -203z" />
<glyph unicode="&#x21a;" horiz-adv-x="1017" d="M78 1401v33h860v-33h-412v-1401h-34v1401h-414zM457 -350q60 78 57 184h-29v70h62v-70q0 -119 -70 -203z" />
<glyph unicode="&#x21b;" horiz-adv-x="741" d="M63 1085v27l203 6v238l35 6v-244h299v-33h-299v-802q0 -52 3 -86.5t14 -69.5t31 -55t54.5 -32.5t83.5 -12.5q70 0 125 22l9 -29q-59 -26 -134 -26q-71 0 -116 19.5t-67.5 61t-30 90.5t-7.5 124v796h-203zM393 -350q61 79 58 184h-29v70h61v-70q0 -120 -69 -203z" />
<glyph unicode="&#x237;" horiz-adv-x="403" d="M-137 -395l12 28q68 -22 123 -22q49 0 83.5 12.5t54.5 32.5t31 55t14 69.5t3 86.5v1251h35v-1245q0 -75 -7.5 -124t-30 -90.5t-67.5 -61t-116 -19.5q-33 0 -66.5 7t-51.5 13z" />
<glyph unicode="&#x2c6;" horiz-adv-x="856" d="M166 1274l248 325h28l248 -325h-37l-225 282l-225 -282h-37z" />
<glyph unicode="&#x2c7;" horiz-adv-x="856" d="M166 1599h37l225 -282l225 282h37l-248 -325h-28z" />
<glyph unicode="&#x2d8;" horiz-adv-x="700" d="M102 1550v25h31v-25q0 -180 217 -180t217 180v25h31v-25q0 -58 -20.5 -101t-57 -66.5t-78.5 -34.5t-92 -11t-92 11t-78.5 34.5t-57 66.5t-20.5 101z" />
<glyph unicode="&#x2d9;" horiz-adv-x="360" d="M147 1389v69h66v-69h-66z" />
<glyph unicode="&#x2da;" horiz-adv-x="833" d="M221 1434q0 89 53.5 139.5t141.5 50.5t141 -50.5t53 -139.5q0 -91 -53 -141t-141 -50t-141.5 50.5t-53.5 140.5zM250 1434q0 -77 43.5 -119.5t122.5 -42.5t122.5 42.5t43.5 119.5t-43.5 119t-122.5 42t-122.5 -42t-43.5 -119z" />
<glyph unicode="&#x2db;" horiz-adv-x="940" d="M338 -260q0 83 57 150t142 110h63q-98 -41 -162.5 -111.5t-64.5 -146.5q0 -113 119 -113q42 0 100 23l8 -27q-58 -28 -111 -28q-65 0 -108 33t-43 110z" />
<glyph unicode="&#x2dc;" horiz-adv-x="743" d="M76 1356q39 66 73.5 95.5t81.5 29.5q37 0 74.5 -18.5t64 -41t64 -41t74.5 -18.5q24 0 42.5 7.5t35.5 25.5t26.5 31.5t26.5 41.5l27 -16q-39 -66 -73.5 -95.5t-82.5 -29.5q-42 0 -82.5 18.5t-67.5 41t-61.5 41t-65.5 18.5t-56.5 -17t-38.5 -34.5t-36 -55.5z" />
<glyph unicode="&#x2dd;" horiz-adv-x="757" d="M205 1274l123 325h45l-140 -325h-28zM389 1274l123 325h45l-139 -325h-29z" />
<glyph unicode="&#x1e80;" horiz-adv-x="1626" d="M59 1434h41l338 -1381l357 1381h36l357 -1381l338 1381h41l-357 -1434h-47l-350 1360l-350 -1360h-47zM668 1907h45l123 -326h-29z" />
<glyph unicode="&#x1e81;" horiz-adv-x="1409" d="M63 1118h39l301 -1069l283 1069h33l282 -1069l302 1069h38l-321 -1118h-39l-279 1047l-278 -1047h-39zM530 1599h45l123 -325h-28z" />
<glyph unicode="&#x1e82;" horiz-adv-x="1626" d="M59 1434h41l338 -1381l357 1381h36l357 -1381l338 1381h41l-357 -1434h-47l-350 1360l-350 -1360h-47zM799 1581l123 326h45l-140 -326h-28z" />
<glyph unicode="&#x1e83;" horiz-adv-x="1409" d="M63 1118h39l301 -1069l283 1069h33l282 -1069l302 1069h38l-321 -1118h-39l-279 1047l-278 -1047h-39zM655 1274l123 325h45l-139 -325h-29z" />
<glyph unicode="&#x1e84;" horiz-adv-x="1626" d="M59 1434h41l338 -1381l357 1381h36l357 -1381l338 1381h41l-357 -1434h-47l-350 1360l-350 -1360h-47zM627 1675v70h65v-70h-65zM940 1675v70h66v-70h-66z" />
<glyph unicode="&#x1e85;" horiz-adv-x="1409" d="M63 1118h39l301 -1069l283 1069h33l282 -1069l302 1069h38l-321 -1118h-39l-279 1047l-278 -1047h-39zM496 1368v70h65v-70h-65zM809 1368v70h65v-70h-65z" />
<glyph unicode="&#x1ef2;" horiz-adv-x="1087" d="M61 1434h41l443 -799l440 799h41l-465 -838v-596h-35v596zM410 1907h45l123 -326h-29z" />
<glyph unicode="&#x1ef3;" horiz-adv-x="927" d="M63 1118h41l363 -1069l358 1069h39l-518 -1532h-39l139 408zM330 1599h45l123 -325h-29z" />
<glyph unicode="&#x2000;" horiz-adv-x="1069" />
<glyph unicode="&#x2001;" horiz-adv-x="2138" />
<glyph unicode="&#x2002;" horiz-adv-x="1069" />
<glyph unicode="&#x2003;" horiz-adv-x="2138" />
<glyph unicode="&#x2004;" horiz-adv-x="712" />
<glyph unicode="&#x2005;" horiz-adv-x="534" />
<glyph unicode="&#x2006;" horiz-adv-x="356" />
<glyph unicode="&#x2007;" horiz-adv-x="356" />
<glyph unicode="&#x2008;" horiz-adv-x="267" />
<glyph unicode="&#x2009;" horiz-adv-x="427" />
<glyph unicode="&#x200a;" horiz-adv-x="118" />
<glyph unicode="&#x2010;" horiz-adv-x="710" d="M94 631v31h522v-31h-522z" />
<glyph unicode="&#x2011;" horiz-adv-x="710" d="M94 631v31h522v-31h-522z" />
<glyph unicode="&#x2012;" horiz-adv-x="710" d="M94 631v31h522v-31h-522z" />
<glyph unicode="&#x2013;" horiz-adv-x="985" d="M94 631v31h797v-31h-797z" />
<glyph unicode="&#x2014;" horiz-adv-x="1626" d="M94 631v31h1438v-31h-1438z" />
<glyph unicode="&#x2018;" horiz-adv-x="294" d="M98 1245v66q0 114 80 209l23 -19q-35 -45 -52 -85t-18 -97h31v-74h-64z" />
<glyph unicode="&#x2019;" horiz-adv-x="294" d="M94 1245q35 45 52 85t18 97h-31v74h64v-65q0 -114 -80 -209z" />
<glyph unicode="&#x201a;" horiz-adv-x="376" d="M119 -182q34 44 51 84.5t18 97.5h-30v74h63v-66q0 -114 -80 -209z" />
<glyph unicode="&#x201c;" horiz-adv-x="475" d="M98 1245v66q0 114 80 209l23 -19q-35 -45 -52 -85t-18 -97h31v-74h-64zM279 1245v66q0 115 79 209l23 -19q-35 -45 -52 -85t-18 -97h31v-74h-63z" />
<glyph unicode="&#x201d;" horiz-adv-x="475" d="M94 1245q35 45 52 85t18 97h-31v74h64v-65q0 -114 -80 -209zM274 1245q35 45 52 85t18 97h-31v74h64v-65q0 -114 -80 -209z" />
<glyph unicode="&#x201e;" horiz-adv-x="557" d="M119 -182q34 44 51 84.5t18 97.5h-30v74h63v-66q0 -114 -80 -209zM299 -182q35 45 52 85t18 97h-31v74h63v-66q0 -115 -79 -209z" />
<glyph unicode="&#x2020;" horiz-adv-x="669" d="M76 987v39l241 -4l-4 487h43l-4 -487l246 4v-39l-246 4l-2 -1075h-31l-2 1075z" />
<glyph unicode="&#x2021;" horiz-adv-x="669" d="M76 399v39l241 -4v557l-241 -4v39l241 -4l-4 487h43l-4 -487l246 4v-39l-246 4v-557l246 4v-39l-246 4l4 -487h-43l4 487z" />
<glyph unicode="&#x2022;" horiz-adv-x="753" d="M102 625q0 123 76 198.5t199 75.5t198.5 -75.5t75.5 -198.5t-75.5 -199t-198.5 -76t-199 76t-76 199z" />
<glyph unicode="&#x202f;" horiz-adv-x="427" />
<glyph unicode="&#x2030;" horiz-adv-x="2138" d="M111 979v192q0 146 57.5 212.5t181.5 66.5t182 -67t58 -212v-192q0 -145 -58 -212t-182 -67t-181.5 66.5t-57.5 212.5zM143 987q0 -135 47 -195.5t160 -60.5t160 60.5t47 195.5v176q0 135 -47 195.5t-160 60.5t-160 -60.5t-47 -195.5v-176zM451 -59l573 1552h33 l-572 -1552h-34zM920 262v193q0 145 57.5 211.5t181.5 66.5t182 -66.5t58 -211.5v-193q0 -145 -58 -211.5t-182 -66.5t-181.5 66.5t-57.5 211.5zM952 270q0 -135 47 -195.5t160 -60.5t160 60.5t47 195.5v176q0 135 -47 195.5t-160 60.5t-160 -60.5t-47 -195.5v-176z M1548 262v193q0 145 58 211.5t182 66.5t182 -66.5t58 -211.5v-193q0 -145 -58 -211.5t-182 -66.5t-182 66.5t-58 211.5zM1581 270q0 -135 47 -195.5t160 -60.5t160 60.5t47 195.5v176q0 135 -47 195.5t-160 60.5t-160 -60.5t-47 -195.5v-176z" />
<glyph unicode="&#x2039;" horiz-adv-x="626" d="M86 598v29l455 352v-41l-406 -326l406 -325v-41z" />
<glyph unicode="&#x203a;" horiz-adv-x="626" d="M86 246v41l406 325l-406 326v41l455 -352v-29z" />
<glyph unicode="&#x2044;" horiz-adv-x="681" d="M53 -51l539 1536h35l-539 -1536h-35z" />
<glyph unicode="&#x205f;" horiz-adv-x="534" />
<glyph unicode="&#x20ac;" horiz-adv-x="1079" d="M45 563v33h109v242h-109v32h109v111q0 469 424 469q189 0 350 -100l-17 -29q-62 41 -150.5 68.5t-182.5 27.5q-390 0 -390 -446v-101h467v-32h-467v-242h467v-33h-467v-100q0 -447 390 -447q178 0 331 97l19 -29q-161 -100 -350 -100q-424 0 -424 469v110h-109z" />
<glyph unicode="&#x2122;" horiz-adv-x="1318" d="M68 1333v31h467v-31h-218v-731h-32v731h-217zM674 602v762h33l256 -551l256 551h32v-762h-32v688l-242 -518h-29l-241 518v-688h-33z" />
<glyph unicode="&#x2190;" horiz-adv-x="1722" d="M150 709l632 594l21 -25l-594 -553h1362v-31h-1362l594 -553l-21 -24z" />
<glyph unicode="&#x2191;" horiz-adv-x="1490" d="M152 809l593 633l592 -633l-24 -21l-553 594v-1382h-31v1382l-553 -594z" />
<glyph unicode="&#x2192;" horiz-adv-x="1722" d="M150 694v31h1361l-593 553l20 25l633 -594l-633 -592l-20 24l593 553h-1361z" />
<glyph unicode="&#x2193;" horiz-adv-x="1490" d="M152 625l24 20l553 -594v1383h31v-1383l553 594l24 -20l-592 -633z" />
<glyph unicode="&#x2212;" horiz-adv-x="940" d="M20 588v35h900v-35h-900z" />
<glyph unicode="&#x2260;" horiz-adv-x="940" d="M20 395v35h353l112 373h-465v35h476l63 213h35l-64 -213h390v-35h-400l-112 -373h512v-35h-523l-65 -223h-35l65 223h-342z" />
<glyph unicode="&#x25fc;" horiz-adv-x="1116" d="M0 0v1116h1116v-1116h-1116z" />
<glyph unicode="&#xf6c3;" horiz-adv-x="536" d="M213 -350q60 78 57 184h-28v70h61v-70q0 -119 -70 -203z" />
<glyph horiz-adv-x="1064" d="M123 463v508q0 107 22.5 192t70 150.5t127.5 101t189 35.5t189 -35.5t127.5 -101t70.5 -150.5t23 -192v-508q0 -108 -22.5 -193.5t-70.5 -150.5t-128 -100t-189 -35t-189 35t-127.5 100t-70 150.5t-22.5 193.5zM158 473q0 -304 168 -407l401 1306q-79 45 -195 45 q-374 0 -374 -456v-488zM354 51q75 -35 178 -35q375 0 375 457v488q0 292 -151 395z" />
<glyph d="M133 463v508q0 107 23 192t70.5 150.5t127.5 101t189 35.5t189 -35.5t127.5 -101t70 -150.5t22.5 -192v-508q0 -108 -22.5 -193.5t-70 -150.5t-127.5 -100t-189 -35t-189 35t-128 100t-70.5 150.5t-22.5 193.5zM168 473q0 -457 375 -457t375 457v488q0 456 -375 456 t-375 -456v-488z" />
<glyph d="M141 1227l473 207h29v-1399h299v-35h-731v35h397v1360l-452 -197z" />
<glyph d="M162 0v94q0 70 40 143.5t103.5 139.5t140 134.5t153.5 138.5t140.5 139t103.5 148t40 155q0 89 -28.5 153.5t-80.5 101t-116 53.5t-144 17q-150 0 -319 -100l-17 26q170 107 338 107q188 0 295 -89.5t107 -268.5q0 -80 -40 -162t-103.5 -152.5t-140 -141t-153.5 -138 t-140.5 -132t-103.5 -135.5t-40 -137v-59h725v-35h-760z" />
<glyph d="M143 98l19 27q169 -109 354 -109q391 0 391 383q0 154 -91.5 244t-268.5 90h-137v33h137q148 0 229.5 79.5t81.5 219.5q0 162 -86.5 257t-269.5 95q-157 0 -312 -100l-18 26q158 107 332 107q196 0 292.5 -104.5t96.5 -280.5q0 -125 -59.5 -207t-174.5 -108 q119 -16 199 -107t80 -244q0 -415 -420 -415q-207 0 -375 114z" />
<glyph d="M98 381v29l451 1024h39l-447 -1018h586v477h35v-477h225v-35h-225v-381h-35v381h-629z" />
<glyph d="M143 94l19 27q69 -45 161.5 -75t192.5 -30q89 0 158.5 25t112.5 65t70.5 96.5t38.5 114.5t11 123q0 175 -102 286.5t-289 111.5q-70 0 -131 -15.5t-94.5 -33t-81.5 -48.5l-27 7l41 686h643v-33h-610l-39 -619q131 88 299 88q205 0 313.5 -119.5t108.5 -310.5 q0 -70 -11.5 -132t-41.5 -123t-76 -104t-121 -70t-172 -27q-109 0 -207.5 32t-165.5 78z" />
<glyph d="M133 442v463q0 140 34 247t94.5 171t138.5 95.5t171 31.5q182 0 332 -102l-18 -27q-149 96 -312 96q-87 0 -158.5 -29.5t-128 -89t-87.5 -160t-31 -233.5v-207q31 40 59.5 69t74 62.5t107 51.5t134.5 18q108 0 188.5 -35t128 -98.5t70 -144.5t22.5 -179 q0 -104 -22.5 -186t-70 -144t-127.5 -95t-189 -33t-189 33t-128 95t-70.5 144t-22.5 186zM168 442q0 -93 20.5 -167.5t63 -134t117 -92t174.5 -32.5q375 0 375 426q0 73 -12.5 135.5t-40.5 116.5t-70.5 91.5t-106.5 59t-145 21.5q-232 0 -375 -217v-207z" />
<glyph d="M119 1401v33h846v-23l-609 -1411h-37l605 1401h-805z" />
<glyph d="M98 362q0 306 400 394q-13 6 -45 18.5t-56 22.5t-58.5 27.5t-60 35t-53.5 44t-45.5 55t-29 67.5t-11.5 82q0 161 103 251.5t301 90.5q197 0 300 -90.5t103 -251.5q0 -43 -11.5 -82t-29 -67.5t-45 -55t-53 -44t-60 -35t-58.5 -27.5t-56 -22.5t-45 -18.5q399 -87 399 -394 q0 -185 -114.5 -281.5t-329.5 -96.5t-330 96.5t-115 281.5zM133 362q0 -172 107 -259t303 -87t302.5 87t106.5 259q0 145 -101 237t-308 136q-207 -44 -308.5 -136t-101.5 -237zM174 1108q0 -41 13 -78.5t31.5 -65t50.5 -53.5t58 -42.5t67 -35.5t64.5 -28t62.5 -23 q15 -5 22 -8q137 50 191 80q177 97 177 254q0 142 -92 225.5t-276 83.5t-276.5 -83.5t-92.5 -225.5z" />
<glyph d="M133 991q0 104 22.5 186t70.5 144t128 95.5t189 33.5t189 -33.5t127.5 -95.5t70 -144t22.5 -186v-463q0 -140 -34 -246.5t-94.5 -170.5t-138.5 -95.5t-171 -31.5q-182 0 -332 102l19 27q150 -97 311 -97q87 0 159 29.5t128 89t87.5 160t31.5 233.5v207q-31 -40 -59.5 -69 t-74 -62t-107 -51t-134.5 -18q-108 0 -188.5 35t-128 98.5t-70.5 144t-23 178.5zM168 991q0 -73 12.5 -135.5t40.5 -116.5t70.5 -91.5t106.5 -59t145 -21.5q232 0 375 217v207q0 93 -20.5 167.5t-63 134t-117 92t-174.5 32.5q-375 0 -375 -426z" />
<glyph d="M133 463v508q0 107 23 192t70.5 150.5t127.5 101t189 35.5t189 -35.5t127.5 -101t70 -150.5t22.5 -192v-508q0 -108 -22.5 -193.5t-70 -150.5t-127.5 -100t-189 -35t-189 35t-128 100t-70.5 150.5t-22.5 193.5zM168 473q0 -304 168 -407l401 1306q-79 45 -194 45 q-375 0 -375 -456v-488zM365 51q75 -35 178 -35q375 0 375 457v488q0 291 -152 395z" />
<glyph d="M125 117l18 26q152 -127 383 -127q396 0 396 361q0 89 -42 153.5t-109 102.5t-148.5 68.5t-163 62t-148.5 70.5t-109 106t-42 158q0 177 91 262t273 90v141h35v-141q124 -3 205.5 -37.5t155.5 -95.5l-21 -27q-72 61 -154 94t-204 33q-348 0 -348 -317q0 -68 26 -121 t70.5 -88t101.5 -63t120 -50.5t126.5 -45.5t120.5 -54t101.5 -69t70.5 -97t26 -133q0 -379 -397 -395v-179h-35v179q-250 0 -399 133z" />
<glyph d="M102 731v27l174 6q-4 13 -16.5 60t-16.5 64t-11.5 51.5t-10 62.5t-2.5 59q0 101 33 177.5t90 120t125 64.5t147 21q189 0 351 -101l-17 -28q-155 96 -334 96q-72 0 -133 -18t-113.5 -56.5t-83 -109t-30.5 -166.5q0 -52 8.5 -104t16.5 -82.5t32 -110.5h467v-33h-459 q29 -112 42.5 -186t13.5 -152q0 -114 -54.5 -214t-127.5 -146h790v-33h-850v31q77 36 143 138t66 230q0 133 -57 332h-183z" />
<glyph d="M59 1434h41l443 -799l440 799h41l-453 -816h340v-32h-352v-193h352v-33h-352v-360h-35v360h-354v33h354v193h-354v32h342z" />
<glyph d="M102 563v33h109v242h-109v32h109v111q0 469 424 469q189 0 350 -100l-16 -29q-62 41 -151 68.5t-183 27.5q-389 0 -389 -446v-101h467v-32h-467v-242h467v-33h-467v-100q0 -447 389 -447q179 0 332 97l18 -29q-161 -100 -350 -100q-424 0 -424 469v110h-109z" />
<glyph horiz-adv-x="364" d="M141 1214l39 322h43l-53 -322h-29z" />
</font>
</defs>
</svg>
