<?xml version="1.0" encoding="utf-8"?>
<!-- Generator: Adobe Illustrator 27.0.1, SVG Export Plug-In . SVG Version: 6.00 Build 0)  -->
<svg version="1.1" id="Layer_51" xmlns="http://www.w3.org/2000/svg" xmlns:xlink="http://www.w3.org/1999/xlink" x="0px" y="0px"
	 viewBox="0 0 32 32" style="enable-background:new 0 0 32 32;" xml:space="preserve">
<style type="text/css">
	.st0{fill:#0F2E70;}
</style>
<path class="st0" d="M24.5,7.3c-1.8-1.7-4.6-1.7-6.4,0l-4.3,4.3c-1.7,1.7-1.8,4.5-0.1,6.2c0,0,0.1,0.1,0.1,0.1
	c0.3,0.3,0.7,0.3,0.9,0c0.3-0.3,0.3-0.7,0-0.9c0,0,0,0,0,0c-1.2-1.2-1.2-3.1-0.1-4.3c0,0,0,0,0.1-0.1l4.3-4.3c1.2-1.2,3.2-1.2,4.5,0
	c1.2,1.2,1.2,3.1,0.1,4.3c0,0,0,0-0.1,0.1l-3,2.9c-0.3,0.3-0.3,0.7,0,0.9c0.3,0.3,0.7,0.3,0.9,0l3-2.9C26.2,11.9,26.3,9.1,24.5,7.3
	C24.6,7.3,24.5,7.3,24.5,7.3z"/>
<path class="st0" d="M16.9,14.2c-0.3,0.3-0.3,0.7,0,0.9c1.2,1.2,1.2,3.1,0.1,4.3c0,0,0,0-0.1,0.1l-4.3,4.3c-1.2,1.2-3.2,1.2-4.5,0
	c-1.2-1.2-1.2-3.1-0.1-4.3c0,0,0,0,0.1-0.1l3-2.9c0.3-0.3,0.3-0.7,0-0.9c-0.3-0.3-0.7-0.3-0.9,0l-3,2.9c-1.7,1.7-1.8,4.5-0.1,6.2
	c0,0,0.1,0.1,0.1,0.1c1.8,1.7,4.6,1.7,6.4,0l4.3-4.3c1.7-1.7,1.8-4.5,0.1-6.2c0,0-0.1-0.1-0.1-0.1C17.6,13.9,17.2,13.9,16.9,14.2z"
	/>
<path class="st0" d="M10,11.1c0.3,0.3,0.7,0.2,0.9,0c0.2-0.3,0.2-0.7,0-0.9L9.6,8.9C9.4,8.6,9,8.6,8.7,8.9c-0.2,0.3-0.2,0.7,0,0.9
	L10,11.1z"/>
<path class="st0" d="M13.2,10c0.4,0,0.7-0.3,0.7-0.7V8c0-0.4-0.3-0.7-0.7-0.7S12.5,7.6,12.5,8v1.3C12.5,9.7,12.8,10,13.2,10z"/>
<path class="st0" d="M7.8,14h1.3c0.4,0,0.7-0.3,0.7-0.7c0-0.4-0.3-0.7-0.7-0.7H7.8c-0.4,0-0.7,0.3-0.7,0.7C7.2,13.7,7.5,14,7.8,14z"
	/>
<path class="st0" d="M21.6,20.9c-0.3-0.3-0.7-0.2-0.9,0c-0.2,0.3-0.2,0.7,0,0.9l1.3,1.3c0.3,0.3,0.7,0.2,0.9,0
	c0.2-0.3,0.2-0.7,0-0.9L21.6,20.9z"/>
<path class="st0" d="M23.8,18h-1.3c-0.4,0-0.7,0.3-0.7,0.7s0.3,0.7,0.7,0.7h1.3c0.4,0,0.7-0.3,0.7-0.7S24.2,18,23.8,18z"/>
<path class="st0" d="M18.5,22c-0.4,0-0.7,0.3-0.7,0.7V24c0,0.4,0.3,0.7,0.7,0.7s0.7-0.3,0.7-0.7v-1.3C19.2,22.3,18.9,22,18.5,22z"/>
</svg>
