<?xml version="1.0" encoding="UTF-8"?>
<svg width="48px" height="48px" viewBox="0 0 48 48" version="1.1" xmlns="http://www.w3.org/2000/svg" xmlns:xlink="http://www.w3.org/1999/xlink">
    <!-- Generator: Sketch 49.3 (51167) - http://www.bohemiancoding.com/sketch -->
    <title>Logo</title>
    <desc>Created with Sketch.</desc>
    <defs></defs>
    <g id="404" stroke="none" stroke-width="1" fill="none" fill-rule="evenodd">
        <g id="Mobile---404" transform="translate(-80.000000, -24.000000)" fill="#002E70">
            <path d="M104.001693,24 C117.106611,24 128.001693,34.8916955 128.001693,48.0016934 C128.001693,61.1099979 117.106611,72 104.001693,72 C90.8883088,72 80,61.1099979 80,48.0016934 C80,34.8916955 90.8883088,24 104.001693,24 Z M102.834121,39.5076272 L102.834121,50.9903055 L105.159105,50.9903055 L105.159105,39.5076272 C105.159105,38.8810838 104.669724,38.3866225 104.031327,38.3866225 C103.384463,38.3866225 102.834121,38.8997107 102.834121,39.5076272 Z M97.7882453,50.9904748 L100.17927,50.9904748 L100.150483,50.9379807 C99.1903478,48.8940944 97.1989558,44.0764835 97.1989558,42.2933747 C97.1989558,41.3908135 97.730671,40.8929655 98.6670994,40.8929655 C99.1260001,40.8929655 99.5747407,41.0318211 99.8778523,41.1317293 L99.9117195,41.1401961 L100.482382,39.2588725 L100.465448,39.2436323 C99.7643971,38.9913215 99.0396387,38.7407042 98.2352925,38.7407042 C97.2683835,38.7407042 96.3742891,39.0929232 95.744359,39.7143865 C95.0958019,40.3477034 94.7435829,41.214704 94.7435829,42.1697594 C94.7435829,43.6666902 95.6241304,46.2151979 97.7763917,50.9718479 L97.7882453,50.9904748 Z M92.7877514,49.1052565 C91.0537501,45.8946447 90.3730191,44.1758837 90.3730191,42.9735977 C90.3730191,42.2251323 90.6608904,41.3242644 92.0342059,41.3242644 C92.3593311,41.3242644 92.7301771,41.3869188 93.011275,41.4444931 L93.0451422,41.4529599 L93.5954844,39.6190503 L93.5666972,39.6071968 C92.8961264,39.3785931 92.1121005,39.2532844 91.4737035,39.2532844 C90.4272067,39.2532844 89.5161786,39.6055034 88.8439145,40.2659141 C88.2139843,40.9314048 87.8583786,41.8119523 87.8583786,42.7957948 C87.8583786,44.3418331 88.6542581,46.4280533 90.2815776,49.1865378 L91.3365413,50.9899668 L93.7953009,50.9899668 L92.7877514,49.1052565 Z M108.111141,41.1324067 C108.417639,41.0308051 108.86638,40.8919495 109.326974,40.8919495 C110.263402,40.8919495 110.803584,41.3897975 110.803584,42.2940521 C110.803584,44.0754674 108.803725,48.8947717 107.83851,50.938658 L107.81819,50.9911522 L110.200748,50.9911522 L110.217682,50.9725252 C112.369943,46.2158753 113.243717,43.6673675 113.243717,42.1704367 C113.243717,41.2153814 112.896578,40.3466874 112.246328,39.7150639 C111.619784,39.0919071 110.723996,38.7413815 109.757087,38.7413815 C108.956128,38.7413815 108.222903,38.9903055 107.530318,39.2426162 L107.501531,39.2595498 L108.0705,41.1408735 L108.111141,41.1324067 Z M119.147788,40.2662527 C118.480604,39.6041487 117.564496,39.2536231 116.516306,39.2536231 C115.881295,39.2536231 115.097269,39.3789318 114.421619,39.6075355 L114.397912,39.619389 L114.95164,41.4532985 L114.983814,41.4448317 C115.263219,41.3872575 115.635758,41.3246031 115.96427,41.3246031 C117.329119,41.3246031 117.613603,42.225471 117.613603,42.9739364 C117.613603,44.1762224 116.937952,45.8949834 115.205645,49.1055951 L114.196402,50.9903055 L116.656855,50.9903055 L117.713512,49.1868765 C119.339138,46.428392 120.131631,44.3421717 120.131631,42.7961335 C120.131631,41.812291 119.782798,40.9317435 119.147788,40.2662527 Z M92.8084104,59.691131 L106.199506,59.691131 L92.8084104,62.2294786 L92.8084104,64.1277358 L115.184478,64.1277358 L115.184478,62.2836661 L102.455486,62.2836661 L115.184478,59.7622522 L115.184478,57.845368 L92.8084104,57.845368 L92.8084104,59.691131 Z M92.8090877,55.7215551 L115.185155,55.7215551 L115.185155,53.7081493 L92.8090877,53.7081493 L92.8090877,55.7215551 Z M104.977577,34.2407677 L104.977577,32.4915261 L106.525309,32.4915261 L106.525309,30.9268609 L104.977577,30.9268609 L104.977577,28.0684682 L103.021746,28.0684682 L103.021746,30.9268609 L101.474014,30.9268609 L101.474014,32.4915261 L103.021746,32.4915261 L103.021746,34.2407677 C101.899047,34.613307 101.060834,35.6073097 100.915205,36.8163692 C101.822846,36.5555916 102.87781,36.4048825 104.000508,36.4048825 C105.123206,36.4048825 106.176476,36.5555916 107.084118,36.8163692 C106.940182,35.6073097 106.100275,34.613307 104.977577,34.2407677 Z" id="Logo"></path>
        </g>
    </g>
</svg>