<?xml version="1.0" encoding="UTF-8"?>
<svg width="219px" height="96px" viewBox="0 0 219 96" version="1.1" xmlns="http://www.w3.org/2000/svg" xmlns:xlink="http://www.w3.org/1999/xlink">
    <!-- Generator: Sketch 49.2 (51160) - http://www.bohemiancoding.com/sketch -->
    <title>Logo</title>
    <desc>Created with Sketch.</desc>
    <defs>
        <path d="M-1.62630326e-19,51.6415145 L48.3654928,41.4666667 L48.4423963,44.4779992 L0.0769035431,54.6528471 L-1.62630326e-19,51.6415145 Z M0.0215329921,62.510517 L0.0557123446,59.4911841 L48.4194961,63.7681724 L48.3870258,66.7859052 L0.0215329921,62.510517 Z M0.0199949212,72.4990447 L0.0558832414,69.4813119 L48.421376,74.028712 L48.3854877,77.0464449 L0.0199949212,72.4990447 Z M0.0169187795,86.4515708 L48.3807026,80.7649205 L48.4268447,83.7826534 L0.0596429701,89.4677036 L0.0169187795,86.4515708 Z M0.0389644619,95.0266683 L0.0389644619,92.0057353 L48.4044572,92.0057353 L48.4044572,95.0266683 L0.0389644619,95.0266683 Z M56.5167962,65.5311016 L56.5167962,39.4601338 L65.4362043,39.4601338 C73.6367895,39.4601338 77.7912856,43.694022 77.7912856,52.2692154 C77.7912856,61.1088203 73.5584027,65.5311016 64.8291241,65.5311016 L56.5167962,65.5311016 Z M64.9041752,60.2395677 C69.0586714,60.2395677 70.6614297,57.4450693 70.6614297,52.0064565 C70.6614297,47.0173432 68.3732046,44.7533203 65.286102,44.7533203 L63.5699332,44.7533203 L63.5699332,60.2395677 L64.9041752,60.2395677 Z M79.6573899,65.5314321 L79.6573899,39.4604643 L94.6042365,39.4604643 L94.2973608,44.7519982 L86.710527,44.7519982 L86.710527,49.6634407 L93.6902807,49.6634407 L93.6902807,54.7269197 L86.710527,54.7269197 L86.710527,60.2398982 L95.4431412,60.2398982 L95.4431412,65.5314321 L79.6573899,65.5314321 Z M101.923888,65.5314321 L101.923888,44.7519982 L96.3951229,44.7519982 L96.3951229,39.4604643 L114.504123,39.4604643 L114.504123,44.7519982 L108.975358,44.7519982 L108.975358,65.5314321 L101.923888,65.5314321 Z M138.292658,65.5314321 L132.193504,52.1555185 L138.524483,39.4604643 L145.309104,39.4604643 L139.400079,51.6647048 L146.376497,65.5314321 L138.292658,65.5314321 Z M124.760108,65.5314321 L124.760108,39.4604643 L131.811577,39.4604643 L131.811577,65.5314321 L124.760108,65.5314321 Z M158.88118,52.837039 L165.28721,51.2869269 L165.28721,64.5488131 C162.732137,65.6064589 160.293809,65.9815926 157.663685,65.9815926 C150.572188,65.9815926 145.308603,61.2965524 145.308603,52.5329658 C145.308603,43.3909403 151.411093,39.0099733 158.157354,39.0099733 C161.322843,39.0099733 163.991327,39.9535917 165.515699,41.0112374 L163.532682,45.5062319 C162.236799,44.8650341 160.063652,44.2221838 158.385843,44.2221838 C154.801735,44.2221838 152.438459,47.3951211 152.438459,52.6073315 C152.438459,56.7652014 154.269706,60.2389067 158.88118,60.6553547 L158.88118,52.837039 Z M168.831291,65.5314321 L168.831291,39.4604643 L175.884428,39.4604643 L175.884428,60.2398982 L183.664726,60.2398982 L183.664726,65.5314321 L168.831291,65.5314321 Z M56.516129,95.5565077 L56.516129,69.4904976 L64.2180413,69.4904976 C70.1270657,69.4904976 73.8646113,70.8125548 73.8646113,76.2164636 C73.8646113,79.1233368 71.5763862,81.0138786 69.5566773,81.6170672 L69.5566773,81.7691038 C72.4519825,82.2979267 74.3966403,84.3388525 74.3966403,87.5101371 C74.3966403,93.1801099 70.2805036,95.5565077 64.2180413,95.5565077 L56.516129,95.5565077 Z M76.7604169,95.5570035 L76.7604169,69.4909934 L83.8135539,69.4909934 L83.8135539,95.5570035 L76.7604169,95.5570035 Z M86.9403501,95.5565077 L86.9403501,69.4904976 L94.6422624,69.4904976 C100.549619,69.4904976 104.287165,70.8125548 104.287165,76.2164636 C104.287165,79.1233368 101.998939,81.0138786 99.9792306,81.6170672 L99.9792306,81.7691038 C102.876204,82.2979267 104.820861,84.3388525 104.820861,87.5101371 C104.820861,93.1801099 100.703057,95.5565077 94.6422624,95.5565077 L86.9403501,95.5565077 Z M107.487844,95.556673 L107.487844,69.4906629 L114.540982,69.4906629 L114.540982,90.2700968 L122.317945,90.2700968 L122.317945,95.556673 L107.487844,95.556673 Z M124.759775,95.5570035 L124.759775,69.4909934 L131.812912,69.4909934 L131.812912,95.5570035 L124.759775,95.5570035 Z M134.2916,82.5266426 C134.2916,73.3813119 139.6269,69.0383541 146.1847,69.0383541 C152.744167,69.0383541 158.079468,73.3813119 158.079468,82.5266426 C158.079468,91.6670155 152.744167,96.0099733 146.1847,96.0099733 C139.6269,96.0099733 134.2916,91.6670155 134.2916,82.5266426 Z M164.219316,95.556673 L164.219316,74.7805442 L158.690551,74.7805442 L158.690551,69.4906629 L176.799551,69.4906629 L176.799551,74.7805442 L171.272453,74.7805442 L171.272453,95.556673 L164.219316,95.556673 Z M179.012558,95.556673 L179.012558,69.4906629 L193.956069,69.4906629 L193.652529,74.7805442 L186.064027,74.7805442 L186.064027,79.6919867 L193.042113,79.6919867 L193.042113,84.7538132 L186.064027,84.7538132 L186.064027,90.2700968 L194.794974,90.2700968 L194.794974,95.556673 L179.012558,95.556673 Z M210.503172,95.556673 L204.404018,82.1857171 L210.731661,69.4906629 L217.516282,69.4906629 L211.608925,81.6932508 L218.583676,95.556673 L210.503172,95.556673 Z M196.968954,95.556673 L196.968954,69.4906629 L204.023759,69.4906629 L204.023759,95.556673 L196.968954,95.556673 Z M186.116563,65.5777041 L186.116563,60.2779074 L191.46187,60.2779074 L191.46187,65.5777041 L186.116563,65.5777041 Z M64.5599408,90.2699315 C66.3544963,90.2699315 67.3435033,89.4006789 67.3435033,87.2110217 C67.3435033,85.0924251 66.4295475,84.3388525 64.7517381,84.3388525 L63.5709339,84.3388525 L63.5709339,90.2699315 L64.5599408,90.2699315 Z M64.5599408,79.6918214 C66.162699,79.6918214 66.923217,78.860578 66.923217,77.1220728 C66.923217,75.3455584 66.0476207,74.780379 64.5599408,74.780379 L63.5709339,74.780379 L63.5709339,79.6918214 L64.5599408,79.6918214 Z M94.9858297,90.2699315 C96.7770497,90.2699315 97.7660566,89.4006789 97.7660566,87.2110217 C97.7660566,85.0924251 96.8521008,84.3388525 95.1742914,84.3388525 L93.9934872,84.3388525 L93.9934872,90.2699315 L94.9858297,90.2699315 Z M94.9858297,79.6918214 C96.5852524,79.6918214 97.3474381,78.860578 97.3474381,77.1220728 C97.3474381,75.3455584 96.470174,74.780379 94.9858297,74.780379 L93.9934872,74.780379 L93.9934872,79.6918214 L94.9858297,79.6918214 Z M150.91292,82.5266426 C150.91292,77.1227338 149.085009,74.3249303 146.1847,74.3249303 C143.289395,74.3249303 141.419788,77.1227338 141.419788,82.5266426 C141.419788,87.9255936 143.289395,90.7233971 146.1847,90.7233971 C149.085009,90.7233971 150.91292,87.9255936 150.91292,82.5266426 Z M18.166055,0.0666666667 C28.0849805,0.0666666667 36.3313128,8.2351501 36.3313128,18.0673017 C36.3313128,27.8981832 28.0849805,36.0653967 18.166055,36.0653967 C8.24072121,36.0653967 -0.000484423963,27.8981832 -0.000484423963,18.0673017 C-0.000484423963,8.2351501 8.24072121,0.0666666667 18.166055,0.0666666667 Z M17.2823363,11.6969768 L17.2823363,20.3086817 L19.0420837,20.3086817 L19.0420837,11.6969768 C19.0420837,11.2270858 18.671678,10.8562529 18.1884844,10.8562529 C17.6988825,10.8562529 17.2823363,11.2410555 17.2823363,11.6969768 Z M13.4631848,20.3088087 L15.2729176,20.3088087 L15.2511291,20.2694394 C14.5244162,18.7365788 13.0171599,15.1234981 13.0171599,13.7862137 C13.0171599,13.1093167 13.4196076,12.7359438 14.1283769,12.7359438 C14.4757124,12.7359438 14.8153577,12.8400818 15.0447785,12.9150104 L15.0704121,12.9213603 L15.5023384,11.5104173 L15.4895216,11.4989875 C14.9589059,11.3097612 14.4103467,11.1218048 13.8015484,11.1218048 C13.0697088,11.1218048 12.3929815,11.3859597 11.9161964,11.8520408 C11.4253128,12.3270117 11.1587232,12.9772392 11.1587232,13.6935055 C11.1587232,14.816164 11.8251971,16.7274773 13.454213,20.294839 L13.4631848,20.3088087 Z M9.67838223,18.8949448 C8.3659414,16.4870709 7.85070584,15.1980456 7.85070584,14.2963629 C7.85070584,13.7350337 8.06859152,13.0594066 9.10803441,13.0594066 C9.35411707,13.0594066 9.6348051,13.1063957 9.84756406,13.1495749 L9.87319767,13.1559248 L10.2897438,11.7805412 L10.2679553,11.7716513 C9.76040979,11.6002046 9.16699171,11.5062264 8.68379816,11.5062264 C7.89171961,11.5062264 7.2021755,11.7703813 6.69334834,12.2656719 C6.21656319,12.7647723 5.94741029,13.4251596 5.94741029,14.1630155 C5.94741029,15.3225033 6.54980013,16.8871133 7.78149509,18.9559036 L8.57998204,20.3084277 L10.4409821,20.3084277 L9.67838223,18.8949448 Z M21.2764373,12.9155184 C21.5084215,12.8393199 21.8480668,12.7351819 22.1966839,12.7351819 C22.9054532,12.7351819 23.3143093,13.1085547 23.3143093,13.7867217 C23.3143093,15.1227361 21.8006446,18.7370868 21.0700867,20.2699474 L21.0547066,20.3093167 L22.858031,20.3093167 L22.8708478,20.295347 C24.4998637,16.7279853 25.1612109,14.816672 25.1612109,13.6940135 C25.1612109,12.9777472 24.8984664,12.3262497 24.4063011,11.8525488 C23.9320793,11.3851977 23.2540703,11.1223128 22.5222307,11.1223128 C21.9159959,11.1223128 21.3610282,11.3089992 20.8368209,11.4982256 L20.8150323,11.5109253 L21.2456769,12.9218683 L21.2764373,12.9155184 Z M29.6299181,12.2659258 C29.124936,11.7693654 28.4315469,11.5064804 27.6381866,11.5064804 C27.1575564,11.5064804 26.5641384,11.6004586 26.0527478,11.7719053 L26.0348043,11.7807951 L26.4539138,13.1561788 L26.4782658,13.1498289 C26.6897431,13.1066497 26.9717128,13.0596606 27.2203588,13.0596606 C28.2533933,13.0596606 28.4687156,13.7352877 28.4687156,14.2966169 C28.4687156,15.1982996 27.9573251,16.4873249 26.6461659,18.8951988 L25.8822843,20.3086817 L27.7445661,20.3086817 L28.5443347,18.9561576 C29.774748,16.8873673 30.3745745,15.3227573 30.3745745,14.1632695 C30.3745745,13.4254136 30.1105483,12.7650263 29.6299181,12.2659258 Z M9.69401874,26.8340706 L19.8295482,26.8340706 L9.69401874,28.7377641 L9.69401874,30.1614069 L26.6301449,30.1614069 L26.6301449,28.7784034 L16.9957526,28.7784034 L26.6301449,26.8874096 L26.6301449,25.4497972 L9.69401874,25.4497972 L9.69401874,26.8340706 Z M9.69453141,23.8569937 L26.6306576,23.8569937 L26.6306576,22.3469926 L9.69453141,22.3469926 L9.69453141,23.8569937 Z M18.9046875,7.74697146 L18.9046875,6.43508661 L20.0761435,6.43508661 L20.0761435,5.2616291 L18.9046875,5.2616291 L18.9046875,3.11791018 L17.4243465,3.11791018 L17.4243465,5.2616291 L16.2528905,5.2616291 L16.2528905,6.43508661 L17.4243465,6.43508661 L17.4243465,7.74697146 C16.5745924,8.02636611 15.9401605,8.77184182 15.829936,9.67860444 C16.5169167,9.48302819 17.3154037,9.37000035 18.1651579,9.37000035 C19.014912,9.37000035 19.8121173,9.48302819 20.4990981,9.67860444 C20.3901552,8.77184182 19.7544417,8.02636611 18.9046875,7.74697146 Z" id="path-1"></path>
    </defs>
    <g id="Symbols" stroke="none" stroke-width="1" fill="none" fill-rule="evenodd">
        <g id="Header/Desktop-New">
            <g id="Logo/Desktop">
                <mask id="mask-2" fill="white">
                    <use xlink:href="#path-1"></use>
                </mask>
                <use id="Logo" fill="#002E70" fill-rule="evenodd" xlink:href="#path-1"></use>
                <g id="Color/Dark-blue-#002E70" mask="url(#mask-2)" fill="#002E70" fill-rule="evenodd">
                    <rect id="Rectangle" x="0" y="0" width="219" height="96"></rect>
                </g>
            </g>
        </g>
    </g>
</svg>