<?xml version="1.0" encoding="UTF-8"?>
<svg width="141px" height="36px" viewBox="0 0 141 36" version="1.1" xmlns="http://www.w3.org/2000/svg" xmlns:xlink="http://www.w3.org/1999/xlink">
    <!-- Generator: Sketch 49.2 (51160) - http://www.bohemiancoding.com/sketch -->
    <title>Logo</title>
    <desc>Created with Sketch.</desc>
    <defs>
        <path d="M39.8809294,16.7198135 L39.8809294,0.283796341 L45.4460533,0.283796341 C50.5626789,0.283796341 53.1548112,2.95298219 53.1548112,8.35907327 C53.1548112,13.9318582 50.5137708,16.7198135 45.0672752,16.7198135 L39.8809294,16.7198135 Z M45.1141022,13.3838521 C47.7062345,13.3838521 48.7062502,11.6221061 48.7062502,8.19342122 C48.7062502,5.04811597 47.2785483,3.62079957 45.3523994,3.62079957 L44.2816229,3.62079957 L44.2816229,13.3838521 L45.1141022,13.3838521 Z M54.3191375,16.7200219 L54.3191375,0.284004708 L63.6449865,0.284004708 L63.4535162,3.6199661 L58.719831,3.6199661 L58.719831,6.71630503 L63.0747382,6.71630503 L63.0747382,9.90849294 L58.719831,9.90849294 L58.719831,13.3840605 L64.1684078,13.3840605 L64.1684078,16.7200219 L54.3191375,16.7200219 Z M68.2119677,16.7200219 L68.2119677,3.6199661 L64.7623818,3.6199661 L64.7623818,0.284004708 L76.0612065,0.284004708 L76.0612065,3.6199661 L72.6116206,3.6199661 L72.6116206,16.7200219 L68.2119677,16.7200219 Z M90.9036874,16.7200219 L87.0982166,8.2873949 L91.0483307,0.284004708 L95.2814877,0.284004708 L91.5946452,7.97796938 L95.9474711,16.7200219 L90.9036874,16.7200219 Z M82.4602665,16.7200219 L82.4602665,0.284004708 L86.8599194,0.284004708 L86.8599194,16.7200219 L82.4602665,16.7200219 Z M103.749571,8.71704839 L107.746512,7.73980549 L107.746512,16.1005457 C106.152314,16.7673212 104.630958,17.0038182 102.989933,17.0038182 C98.5653062,17.0038182 95.2811755,14.0502109 95.2811755,8.52535042 C95.2811755,2.76190932 99.0887275,0 103.297951,0 C105.273008,0 106.937966,0.594888805 107.889074,1.26166435 L106.651802,4.09546041 C105.843256,3.69122773 104.487356,3.28595322 103.440513,3.28595322 C101.204265,3.28595322 99.7297366,5.28627986 99.7297366,8.57223308 C99.7297366,11.1934944 100.872314,13.3834354 103.749571,13.6459782 L103.749571,8.71704839 Z M109.957785,16.7200219 L109.957785,0.284004708 L114.358478,0.284004708 L114.358478,13.3840605 L119.212873,13.3840605 L119.212873,16.7200219 L109.957785,16.7200219 Z M39.8805132,35.6488419 L39.8805132,19.2159502 L44.6859997,19.2159502 C48.3728422,19.2159502 50.7048248,20.0494197 50.7048248,23.456226 C50.7048248,25.2888169 49.2771228,26.4806782 48.0169574,26.8609486 L48.0169574,26.9567976 C49.8234374,27.2901853 51.0367759,28.5768538 51.0367759,30.5761386 C51.0367759,34.1506806 48.4685774,35.6488419 44.6859997,35.6488419 L39.8805132,35.6488419 Z M52.5116169,35.6491544 L52.5116169,19.2162628 L56.9123104,19.2162628 L56.9123104,35.6491544 L52.5116169,35.6491544 Z M58.8632256,35.6488419 L58.8632256,19.2159502 L63.6687121,19.2159502 C67.3545141,19.2159502 69.6864966,20.0494197 69.6864966,23.456226 C69.6864966,25.2888169 68.2587947,26.4806782 66.9986292,26.8609486 L66.9986292,26.9567976 C68.8061498,27.2901853 70.0194883,28.5768538 70.0194883,30.5761386 C70.0194883,34.1506806 67.4502492,35.6488419 63.6687121,35.6488419 L58.8632256,35.6488419 Z M71.6835103,35.6489461 L71.6835103,19.2160544 L76.0842038,19.2160544 L76.0842038,32.3161102 L80.9365173,32.3161102 L80.9365173,35.6489461 L71.6835103,35.6489461 Z M82.4600584,35.6491544 L82.4600584,19.2162628 L86.8607519,19.2162628 L86.8607519,35.6491544 L82.4600584,35.6491544 Z M88.4072902,27.4343755 C88.4072902,21.6688508 91.7361667,18.9309037 95.8278022,18.9309037 C99.9204784,18.9309037 103.249355,21.6688508 103.249355,27.4343755 C103.249355,33.1967748 99.9204784,35.9347219 95.8278022,35.9347219 C91.7361667,35.9347219 88.4072902,33.1967748 88.4072902,27.4343755 Z M107.080216,35.6489461 L107.080216,22.550974 L103.63063,22.550974 L103.63063,19.2160544 L114.929455,19.2160544 L114.929455,22.550974 L111.48091,22.550974 L111.48091,35.6489461 L107.080216,35.6489461 Z M116.310226,35.6489461 L116.310226,19.2160544 L125.633994,19.2160544 L125.444605,22.550974 L120.709879,22.550974 L120.709879,25.6473129 L125.063745,25.6473129 L125.063745,28.838459 L120.709879,28.838459 L120.709879,32.3161102 L126.157415,32.3161102 L126.157415,35.6489461 L116.310226,35.6489461 Z M135.958297,35.6489461 L132.152827,27.2194446 L136.10086,19.2160544 L140.334017,19.2160544 L136.648215,26.9089773 L141,35.6489461 L135.958297,35.6489461 Z M127.513836,35.6489461 L127.513836,19.2160544 L131.91557,19.2160544 L131.91557,35.6489461 L127.513836,35.6489461 Z M120.742658,16.7491933 L120.742658,13.4080227 L124.077778,13.4080227 L124.077778,16.7491933 L120.742658,16.7491933 Z M44.8993225,32.316006 C46.0190071,32.316006 46.6360824,31.7679998 46.6360824,30.3875661 C46.6360824,29.0519313 46.0658341,28.5768538 45.0189914,28.5768538 L44.2822473,28.5768538 L44.2822473,32.316006 L44.8993225,32.316006 Z M44.8993225,25.6472087 C45.8993382,25.6472087 46.3738514,25.1231648 46.3738514,24.0271525 C46.3738514,22.907178 45.8275369,22.5508698 44.8993225,22.5508698 L44.2822473,22.5508698 L44.2822473,25.6472087 L44.8993225,25.6472087 Z M63.8830755,32.316006 C65.0006789,32.316006 65.6177542,31.7679998 65.6177542,30.3875661 C65.6177542,29.0519313 65.0475059,28.5768538 64.0006632,28.5768538 L63.2639191,28.5768538 L63.2639191,32.316006 L63.8830755,32.316006 Z M63.8830755,25.6472087 C64.88101,25.6472087 65.3565638,25.1231648 65.3565638,24.0271525 C65.3565638,22.907178 64.8092087,22.5508698 63.8830755,22.5508698 L63.2639191,22.5508698 L63.2639191,25.6472087 L63.8830755,25.6472087 Z M98.7779006,27.4343755 C98.7779006,24.0275693 97.637404,22.2637396 95.8278022,22.2637396 C94.0213222,22.2637396 92.8548107,24.0275693 92.8548107,27.4343755 C92.8548107,30.8380563 94.0213222,32.601886 95.8278022,32.601886 C97.637404,32.601886 98.7779006,30.8380563 98.7779006,27.4343755 Z M17.9466487,0.0665457813 C27.7455138,0.0665457813 35.8920312,8.22021746 35.8920312,18.0345406 C35.8920312,27.847596 27.7455138,36 17.9466487,36 C8.14145272,36 0,27.847596 0,18.0345406 C0,8.22021746 8.14145272,0.0665457813 17.9466487,0.0665457813 Z M17.0736266,11.6757668 L17.0736266,20.2718564 L18.8120737,20.2718564 L18.8120737,11.6757668 C18.8120737,11.2067279 18.4461515,10.8365674 17.9688066,10.8365674 C17.4851309,10.8365674 17.0736266,11.2206723 17.0736266,11.6757668 Z M13.3007027,20.2719831 L15.0885303,20.2719831 L15.0670054,20.2326853 C14.3490888,18.7026041 12.8600767,15.0960749 12.8600767,13.7612154 C12.8600767,13.0855458 13.257653,12.71285 13.9578433,12.71285 C14.3009745,12.71285 14.6365087,12.8167992 14.8631526,12.8915919 L14.8884759,12.8979302 L15.3151741,11.4895457 L15.3025125,11.4781367 C14.7783194,11.2892534 14.2364,11.1016378 13.6349708,11.1016378 C12.9119895,11.1016378 12.2434534,11.3653138 11.7724393,11.8305497 C11.2874974,12.3046593 11.0241347,12.9537078 11.0241347,13.6686753 C11.0241347,14.7892981 11.6825415,16.6971457 13.2918395,20.2580387 L13.3007027,20.2719831 Z M9.56171206,18.860683 C8.26515722,16.4571753 7.75615816,15.1704873 7.75615816,14.2704396 C7.75615816,13.7101282 7.97140652,13.0357263 8.99826782,13.0357263 C9.24137185,13.0357263 9.51866239,13.0826302 9.72884608,13.125731 L9.75416942,13.1320694 L10.1656736,11.7591797 L10.1441488,11.750306 C9.64274674,11.5791702 9.05651149,11.4853624 8.5791666,11.4853624 C7.7966755,11.4853624 7.11547774,11.7490383 6.61280951,12.2434307 C6.14179545,12.7416262 5.87590041,13.400816 5.87590041,14.137334 C5.87590041,15.2947193 6.47099882,16.8564922 7.68778515,18.9215312 L8.47660708,20.2716028 L10.3150813,20.2716028 L9.56171206,18.860683 Z M21.0193823,12.8920989 C21.2485585,12.8160386 21.5840927,12.7120894 21.9284901,12.7120894 C22.6286804,12.7120894 23.0325876,13.0847852 23.0325876,13.7617225 C23.0325876,15.0953143 21.5372446,18.7031112 20.8155295,20.2331923 L20.8003355,20.2724902 L22.5818322,20.2724902 L22.5944939,20.2585458 C24.2037919,16.6976528 24.857134,14.7898052 24.857134,13.6691824 C24.857134,12.9542149 24.5975698,12.3038987 24.1113617,11.8310568 C23.64288,11.3645532 22.9730777,11.1021449 22.2500965,11.1021449 C21.6511996,11.1021449 21.1029493,11.2884928 20.5850871,11.4773761 L20.5635623,11.4900528 L20.9889943,12.8984373 L21.0193823,12.8920989 Z M29.2717513,12.2436843 C28.7728815,11.7480242 28.0878853,11.4856159 27.304128,11.4856159 C26.8293154,11.4856159 26.2430802,11.5794237 25.7378796,11.7505595 L25.7201533,11.7594333 L26.1341899,13.1323229 L26.158247,13.1259846 C26.3671646,13.0828837 26.6457213,13.0359798 26.8913576,13.0359798 C27.9118881,13.0359798 28.1246041,13.7103818 28.1246041,14.2706931 C28.1246041,15.1707409 27.6194036,16.4574288 26.3241149,18.8609365 L25.5694795,20.2718564 L27.4092199,20.2718564 L28.199308,18.9217848 C29.4148281,16.8567457 30.0073942,15.2949728 30.0073942,14.1375875 C30.0073942,13.4010696 29.7465638,12.7418797 29.2717513,12.2436843 Z M9.57715929,26.7854129 L19.5900066,26.7854129 L9.57715929,28.6856545 L9.57715929,30.1067158 L26.3082878,30.1067158 L26.3082878,28.72622 L16.7905117,28.72622 L26.3082878,26.8386552 L26.3082878,25.4036495 L9.57715929,25.4036495 L9.57715929,26.7854129 Z M9.57766576,23.8137343 L26.3087943,23.8137343 L26.3087943,22.3064713 L9.57766576,22.3064713 L9.57766576,23.8137343 Z M18.6763406,7.73292403 L18.6763406,6.42341799 L19.8336171,6.42341799 L19.8336171,5.25208829 L18.6763406,5.25208829 L18.6763406,3.11225654 L17.2139179,3.11225654 L17.2139179,5.25208829 L16.0566414,5.25208829 L16.0566414,6.42341799 L17.2139179,6.42341799 L17.2139179,7.73292403 C16.3744493,8.01181205 15.7476967,8.75593601 15.6388064,9.66105441 C16.3174718,9.46583279 17.1062937,9.35300991 17.9457623,9.35300991 C18.785231,9.35300991 19.5727867,9.46583279 20.2514521,9.66105441 C20.143828,8.75593601 19.5158092,8.01181205 18.6763406,7.73292403 Z" id="path-1"></path>
    </defs>
    <g id="Symbols" stroke="none" stroke-width="1" fill="none" fill-rule="evenodd">
        <g id="Logo/Mobile">
            <mask id="mask-2" fill="white">
                <use xlink:href="#path-1"></use>
            </mask>
            <use id="Logo" fill="#002E70" xlink:href="#path-1"></use>
        </g>
    </g>
</svg>