<?xml version="1.0" encoding="UTF-8"?>
<svg width="135px" height="48px" viewBox="0 0 135 48" version="1.1" xmlns="http://www.w3.org/2000/svg" xmlns:xlink="http://www.w3.org/1999/xlink">
    <!-- Generator: Sketch 49.3 (51167) - http://www.bohemiancoding.com/sketch -->
    <title>Logo</title>
    <desc>Created with Sketch.</desc>
    <defs></defs>
    <g id="404" stroke="none" stroke-width="1" fill="none" fill-rule="evenodd">
        <g id="Desktop---404" transform="translate(-80.000000, -843.000000)" fill="#002E70">
            <path d="M80.0005532,865.333582 L80.0005532,843.379083 L87.3968107,843.379083 C94.1969974,843.379083 97.6420381,846.944462 97.6420381,854.165678 C97.6420381,861.609555 94.1319966,865.333582 86.8934005,865.333582 L80.0005532,865.333582 Z M86.9556353,860.877553 C90.400676,860.877553 91.7297342,858.524291 91.7297342,853.944407 C91.7297342,849.743048 89.832265,847.836503 87.2723412,847.836503 L85.8492393,847.836503 L85.8492393,860.877553 L86.9556353,860.877553 Z M99.1894712,865.33386 L99.1894712,843.379361 L111.583873,843.379361 L111.329402,847.835389 L105.038157,847.835389 L105.038157,851.971341 L110.825992,851.971341 L110.825992,856.235323 L105.038157,856.235323 L105.038157,860.877831 L112.279519,860.877831 L112.279519,865.33386 L99.1894712,865.33386 Z M117.653562,865.33386 L117.653562,847.835389 L113.068933,847.835389 L113.068933,843.379361 L128.085493,843.379361 L128.085493,847.835389 L123.500865,847.835389 L123.500865,865.33386 L117.653562,865.33386 Z M147.811705,865.33386 L142.754092,854.069933 L148.003941,843.379361 L153.629965,843.379361 L148.730013,853.656616 L154.515082,865.33386 L147.811705,865.33386 Z M136.590083,865.33386 L136.590083,843.379361 L142.437386,843.379361 L142.437386,865.33386 L136.590083,865.33386 Z M164.884364,854.643845 L170.196448,853.338487 L170.196448,864.506391 C168.077699,865.39704 166.055761,865.712943 163.874777,865.712943 C157.994282,865.712943 153.62955,861.767646 153.62955,854.387783 C153.62955,846.689235 158.689929,843 164.284144,843 C166.909069,843 169.121861,843.794626 170.385918,844.685275 L168.741537,848.470533 C167.66695,847.930578 165.864907,847.38923 164.473614,847.38923 C161.501558,847.38923 159.541854,850.061177 159.541854,854.450407 C159.541854,857.951771 161.060382,860.876996 164.884364,861.22769 L164.884364,854.643845 Z M173.135312,865.33386 L173.135312,843.379361 L178.983998,843.379361 L178.983998,860.877831 L185.43567,860.877831 L185.43567,865.33386 L173.135312,865.33386 Z M80,890.618134 L80,868.66781 L86.3866711,868.66781 C91.2866226,868.66781 94.3859145,869.781121 94.3859145,874.331781 C94.3859145,876.779675 92.4884453,878.37171 90.8136383,878.879658 L90.8136383,879.007689 C93.2145177,879.453013 94.8270899,881.171688 94.8270899,883.842243 C94.8270899,888.616957 91.4138581,890.618134 86.3866711,890.618134 L80,890.618134 Z M96.7872088,890.618552 L96.7872088,868.668227 L102.635895,868.668227 L102.635895,890.618552 L96.7872088,890.618552 Z M105.228734,890.618134 L105.228734,868.66781 L111.615405,868.66781 C116.513974,868.66781 119.613266,869.781121 119.613266,874.331781 C119.613266,876.779675 117.715796,878.37171 116.040989,878.879658 L116.040989,879.007689 C118.443252,879.453013 120.055824,881.171688 120.055824,883.842243 C120.055824,888.616957 116.641209,890.618134 111.615405,890.618134 L105.228734,890.618134 Z M122.267371,890.618273 L122.267371,868.667949 L128.116057,868.667949 L128.116057,886.16642 L134.564963,886.16642 L134.564963,890.618273 L122.267371,890.618273 Z M136.589806,890.618552 L136.589806,868.668227 L142.438492,868.668227 L142.438492,890.618552 L136.589806,890.618552 Z M144.4939,879.645616 C144.4939,871.944285 148.918101,868.287057 154.356037,868.287057 C159.795357,868.287057 164.219558,871.944285 164.219558,879.645616 C164.219558,887.342772 159.795357,891 154.356037,891 C148.918101,891 144.4939,887.342772 144.4939,879.645616 Z M169.310916,890.618273 L169.310916,873.122586 L164.726287,873.122586 L164.726287,868.667949 L179.742848,868.667949 L179.742848,873.122586 L175.159602,873.122586 L175.159602,890.618273 L169.310916,890.618273 Z M181.577944,890.618273 L181.577944,868.667949 L193.969579,868.667949 L193.717874,873.122586 L187.425247,873.122586 L187.425247,877.258538 L193.211698,877.258538 L193.211698,881.521128 L187.425247,881.521128 L187.425247,886.16642 L194.665226,886.16642 L194.665226,890.618273 L181.577944,890.618273 Z M207.690965,890.618273 L202.633352,879.358521 L207.880435,868.667949 L213.506459,868.667949 L208.607891,878.943813 L214.391576,890.618273 L207.690965,890.618273 Z M196.46796,890.618273 L196.46796,868.667949 L202.318029,868.667949 L202.318029,890.618273 L196.46796,890.618273 Z M187.468811,865.372826 L187.468811,860.909839 L191.90131,860.909839 L191.90131,865.372826 L187.468811,865.372826 Z M86.6701851,886.166281 C88.1582878,886.166281 88.9784039,885.434278 88.9784039,883.590357 C88.9784039,881.806275 88.2205226,881.171688 86.8292296,881.171688 L85.8500691,881.171688 L85.8500691,886.166281 L86.6701851,886.166281 Z M86.6701851,877.258398 C87.9992434,877.258398 88.6298891,876.558404 88.6298891,875.0944 C88.6298891,873.598387 87.9038167,873.122447 86.6701851,873.122447 L85.8500691,873.122447 L85.8500691,877.258398 L86.6701851,877.258398 Z M111.900302,886.166281 C113.385639,886.166281 114.205755,885.434278 114.205755,883.590357 C114.205755,881.806275 113.447874,881.171688 112.056581,881.171688 L111.07742,881.171688 L111.07742,886.166281 L111.900302,886.166281 Z M111.900302,877.258398 C113.226594,877.258398 113.858623,876.558404 113.858623,875.0944 C113.858623,873.598387 113.131168,873.122447 111.900302,873.122447 L111.07742,873.122447 L111.07742,877.258398 L111.900302,877.258398 Z M158.276828,879.645616 C158.276828,875.094956 156.761066,872.738911 154.356037,872.738911 C151.955158,872.738911 150.40482,875.094956 150.40482,879.645616 C150.40482,884.192101 151.955158,886.548146 154.356037,886.548146 C156.761066,886.548146 158.276828,884.192101 158.276828,879.645616 Z" id="Logo"></path>
        </g>
    </g>
</svg>